/* XPM */
static char *b3fd89df188746b5839622249f89fd24NjLJs5RfJL0jnALY[] = {
/* columns rows colors chars-per-pixel */
"64 64 245 2 ",
"   c #0B0505",
".  c #0A0705",
"X  c #150C05",
"o  c #140B09",
"O  c #1B0E0C",
"+  c #0D100F",
"@  c #1C1203",
"#  c #1B110C",
"$  c #161514",
"%  c #2C0B07",
"&  c #2C1C03",
"*  c #22130D",
"=  c #281909",
"-  c #351909",
";  c #251311",
":  c #2B1613",
">  c #2A1B17",
",  c #311A15",
"<  c #381D19",
"1  c #382508",
"2  c #2F2515",
"3  c #382617",
"4  c #3D231E",
"5  c #1A3032",
"6  c #372B25",
"7  c #2E322F",
"8  c #4D170F",
"9  c #471A0C",
"0  c #781D15",
"q  c #4A2B0A",
"w  c #4A3208",
"e  c #573906",
"r  c #462618",
"t  c #572616",
"y  c #4A3314",
"u  c #583A15",
"i  c #6A3014",
"p  c #442521",
"a  c #4A2722",
"s  c #4C2823",
"d  c #482C26",
"f  c #532A25",
"g  c #532B27",
"h  c #5B2B25",
"j  c #5D2E29",
"k  c #46342B",
"l  c #5A3129",
"z  c #5E312B",
"x  c #463734",
"c  c #573E37",
"v  c #612721",
"b  c #622C25",
"n  c #6C2C24",
"m  c #622F29",
"M  c #6A2F29",
"N  c #762E26",
"B  c #673528",
"V  c #62332D",
"C  c #6C322A",
"Z  c #73322A",
"A  c #7C332A",
"S  c #7C3A2B",
"D  c #653731",
"F  c #6F3730",
"G  c #663832",
"H  c #6A3B35",
"J  c #753B34",
"K  c #5B410F",
"L  c #5B4216",
"P  c #6B490A",
"I  c #734B07",
"U  c #7C5405",
"Y  c #6A4819",
"T  c #734B18",
"R  c #77571A",
"E  c #58483C",
"W  c #754826",
"Q  c #6F4134",
"!  c #1D3E41",
"~  c #1B494E",
"^  c #224447",
"/  c #374444",
"(  c #285257",
")  c #265F65",
"_  c #306C73",
"`  c #505151",
"'  c #6A564A",
"]  c #446054",
"[  c #496D71",
"{  c #647273",
"}  c #872B19",
"|  c #98261C",
" . c #AA281D",
".. c #B42419",
"X. c #BB261B",
"o. c #B2281C",
"O. c #BE281C",
"+. c #B9301B",
"@. c #862D24",
"#. c #962C22",
"$. c #833229",
"%. c #8C3229",
"&. c #87382B",
"*. c #8C3B2E",
"=. c #933229",
"-. c #98372A",
";. c #853C31",
":. c #A52E23",
">. c #B32D21",
",. c #A43529",
"<. c #A83629",
"1. c #AC3D2D",
"2. c #BA3727",
"3. c #B33528",
"4. c #C51604",
"5. c #C32A1D",
"6. c #CA2C1F",
"7. c #D6301B",
"8. c #C42E21",
"9. c #CD2E21",
"0. c #D12F21",
"q. c #C33323",
"w. c #CC3425",
"e. c #CB3728",
"r. c #C73A28",
"t. c #D43223",
"y. c #DB3425",
"u. c #D53728",
"i. c #D53B29",
"p. c #DB3A29",
"a. c #E23626",
"s. c #E43728",
"d. c #E43A29",
"f. c #E83928",
"g. c #875804",
"h. c #925507",
"j. c #855917",
"k. c #AE4215",
"l. c #976403",
"z. c #906718",
"x. c #A46C03",
"c. c #A66A09",
"v. c #AC7203",
"b. c #B37503",
"n. c #B97A04",
"m. c #AC731B",
"M. c #904E27",
"N. c #984432",
"B. c #B1452E",
"V. c #A84733",
"C. c #B54C35",
"Z. c #916824",
"A. c #956D24",
"S. c #AE7A2A",
"D. c #A97C28",
"F. c #C17E02",
"G. c #C97D08",
"H. c #C2601E",
"J. c #C9432D",
"K. c #D3432D",
"L. c #D9452D",
"P. c #C64A34",
"I. c #D44D33",
"U. c #DB4B32",
"Y. c #C75338",
"T. c #D95337",
"R. c #D45639",
"E. c #DC5539",
"W. c #DD5C3C",
"Q. c #E7442D",
"!. c #E74630",
"~. c #E34C33",
"^. c #E94C34",
"/. c #E65136",
"(. c #E45539",
"). c #E95539",
"_. c #E45C3B",
"`. c #EA5C3C",
"'. c #E5623F",
"]. c #EA613F",
"[. c #8A725B",
"{. c #D56A4E",
"}. c #E86843",
"|. c #EA7153",
" X c #DB7B66",
".X c #B58019",
"XX c #B7842C",
"oX c #B68230",
"OX c #C38101",
"+X c #C68508",
"@X c #CC8B0B",
"#X c #CE8D13",
"$X c #D89616",
"%X c #E19F1F",
"&X c #C8922E",
"*X c #CD912F",
"=X c #CC9531",
"-X c #D69E33",
";X c #DBA132",
":X c #EAA828",
">X c #E8AA37",
",X c #F3AD36",
"<X c #F8B537",
"1X c #F4B43A",
"2X c #FFBD3C",
"3X c #978270",
"4X c #AD8E69",
"5X c #E79C5B",
"6X c #C38675",
"7X c #FFC24A",
"8X c #FFC758",
"9X c #FFCC6A",
"0X c #FFD27B",
"qX c #4B7E84",
"wX c #338A93",
"eX c #318A94",
"rX c #508C93",
"tX c #649397",
"yX c #509CA5",
"uX c #4AA3AD",
"iX c #54AAB4",
"pX c #6AB2BA",
"aX c #5ABDC8",
"sX c #70CED8",
"dX c #78DCE7",
"fX c #7CE6F2",
"gX c #7CF2FF",
"hX c #AB9D95",
"jX c #A6B1AD",
"kX c #D0A98D",
"lX c #F6A190",
"zX c #FAD389",
"xX c #FFDC95",
"cX c #EFD3A4",
"vX c #FFE1A4",
"bX c #FFE3AD",
"nX c #FFE5B1",
"mX c #90CCD0",
"MX c #AED3D6",
"NX c #87DDE5",
"BX c #87EEF8",
"VX c #B4F2F8",
"CX c #D0FBFF",
"ZX c #E4FCFD",
"AX c #EAFEFF",
/* pixels */
"m j m j j m 2.5.6.5.5.t.f.f.5...X.O.5.5.5.5.X.5.3.r.$.m m M j j j j ..b s f H H H G G G H H H H H H G G D G G G V Z p.p.y.M j m ",
"j m j j j *.5.6.a.%.N A $.:.X.5.a.f.y.t.f.6.O.t.f.f.f.f.5.X.X.@.n | O.5.f s j V H H H H H H H G D V V z V G H G D j d.8.O.M j m ",
"j m j j ;._.E.f.f j j j j M @.O.0.f.p.3.%.A M j M A -.2.u.f.y.t.O.O.I.J.e.h s f j V V D D V j j j j j j j j H G V j p.t.5.M j j ",
"f j m h O.E.}.`.f f j j j j Z t.t.3.j j j j V z j j j j j C 3.~.`.'._.J.L.f.=.f f f j j j j j f f f s f f j D D j j u.f.5.N f s ",
"h s s b O.0.5._.}.N.n h f j m e.}.C.j j z D H H H G D V z j j j V.}.}.J.I.6.f.!.,.M h f s s f s a s s s s f V D j j r.f.y.:.h N ",
"b f n @.5.a.O.t.^.^.`.`.J.*.b <.`.}.*.j j D H H H G G H G G G V j S ~.a.`.}.I.U.}.K.i._.p.e.<.n s a s s s s j D j j 2.^.t.0.3.,.",
"| N N 5.t.,.$.C C $.<.U.`.]._._.L._.}.1.j j V D G H G G G G G G D j C E.).).}.'.T.9.9.i.t.f.i.`.W.V.a a s s f G V j C.~.t.t.f.0.",
"X...X.5.,.j j j j j , o =.p.y.7.4.t.'.}.W.C j j V D G H D p a a d V j j 1.~.`.^.u.J.p.y.a.9.O.f.6.9.w.a s a f G V j 1.Q.5.y.s.6.",
"..O.O.6.V j z V z V d o j j =.t.a.y.f.f.]._.A j z ` / $ +   : > $   , f j V 1.W.}.}.}.W.U.O.t.Z m 2.5.B.a a s D V j j t.O.9.t.0.",
"O...t.w.j z D D j j k o z j j j :.p.f.f.f.`.I.x > d / ^ 5 ) tXyXyXrX7 O : E Y f -.E.}.q.I.q.3.m m Z y.w.a a s D V j j q.5.O.5.t.",
"..O.t.=.j D G G D s > ; l j z j j -.w.e.O.s 5 x kXlXx _ 5 5 rXgXgXaXuXqX$ $ 7 1 j j 1.W.W.~.3.M A Z :.d.*.a s D D j j o.e.K.6.y.",
"5.O.w.j z H H H D > 3Xk < z D j j j ,.&.  ^ ' {.lXI.k ( _ _ ^ 5 ^ ) ( ) rX> ] U l.u y r -._.U.A M $.Z Q.Y.a s D D j j >.W.R.2.5.",
"y.0.3.j D H G H 3 3XbXkX  f z j j j ;   ( _ 0 Q.Q.2./ ( 5 eXiXpX( 5 5 5 wX[ 2 P w @ e 1 X X 8 8 r j M e._.a s D V j j %._.T.p.X.",
"f.f.m j D D a o E cXcXcX: ; z j j ; + _ pX! _ -.N.' ( _ ~ eX_ 7 d n -.3XuXyX' # +X1 l.OXv.x.I n 9 O < -.`.M s j j j j V.'.T.^.O.",
"f.u.j j D l p : ; O , ' ; D G D , 5 5 pXmXeX~ ^ ~ ~ ) eXeXmX$ J.Q.{.6XVXpXuX` $ n.1 v.OXOX$X@Xb.H.k.# * ).B.s f j j j N.).^.`.O.",
"f.$.j j G H H G V j <   p G G l # uX^ [ pXeXeX_ ) ~ _ eXMX{ n /.NXgXCXAXpXuX` # b.OXOXv.F.OXOX#X#XG.c.- 8 }.m s s f f {.^.Q.U.O.",
"%.j j z H H H D j j j   d H H , / uXtXE 7 7 7 x ' { _ MXMX6 J.NXgXCXAXZXiXyX6 : m.l.l.& @ 1 w U OX+X+Xv.1 8 ~.1.n n I._.y.I.e.5.",
"j j z H H H G z j j z   s H G # rXuX6X|.|.|.5X5X XhX! ] 6 &.hXVXAXAXAXVXuXrXO k *Xw R D.+Xv.g.e & l.OXOXv.1 i `.].`.Q.r.r.I.e.5.",
"j V H H H H j j j j j O d G f > yXuXmXhX XhXmXmXBXgXsXyXjX XgXCXAXAXAXpXrX2 > 4XR P l.OXOXOXOXOX.X1 I +XOXn.@ T r.f.f._.u._.i.j ",
"D H H H H D j j j j j D 6 H p 6 rXuXgXNXmXjXjXjXgXgXgXgXVXCXBXBXCXVXfXtX: 3 -XXXu @XOXOXOXOXOXOXOX#Xw R @XOXg.= S J.`.]._.C.j j ",
"H H H H H V j j j j j j V G < 6 qXuXdXmX6X{. XhXgXgXgXgXZXAXVXgXgXdX[ = L 1X-X= 3 1 K x.F.OXOXOXOXOX+X1 D.$XOX1 r B.).}.V.j j V ",
"G H H G G V j j j j j j j < * < ` rXiXgXgXgXgXgXgXgXgXgXVXCXBXfXrX6 1 XX2X&X2 r a a > * q c.F.OXOXOXOXx.y ;X#Xg.- T.}.-.j j G H ",
"H H G G D z j j j j j j r O r : ; E [ iXfXgXgXgXgXgXgXgXgXdXrX6 y XX2X2XD.y =.#.s a s f , O P n.OXOXOXOXU L <X+X- C.$.j V D H H ",
"H H G D j j j j f s s s a O W j.6 x a c { pXsXdXdXNXmXqX/ 3 Y &X2X2X>XR u 2._.w.u.a a s j f o w F.OXOXOX+Xw -X$Xe < j V D G H D ",
"G H D j j f s a a a b n b * g.x.n.m.6 * * : : 3 y r r u D.1X2X2X2X-XL &.+...B.r.f.:.a s s j s o h.OXF.F.F.j.A.:XU = z H H H G G ",
"G V j j f s a s #. .o.5.t.8 c.1 l.+Xb.W f r T D.=X,X2X2X2X1X2X2X>XW m  .9.n V *.5.p.s s s a s v O F.F.F.F.b.j.2Xv.= G H H H H H ",
"j j f s a a b o.a.p.w.J.| 9 b.v.l.%X@Xx.g.c.+X#X$X:X;XD.j.A.,XW m $. .X.6.M m j @.t.,.f f @.o.O.9 I F.F.OX+XR 2X$X& D H H H H G ",
"f s s s a h 9.f.f.}.B.B.@ h.F.OXOX$X<X.Xe 1 @ & 1 1 1 e B j n A >.0.f.f.f.e.M j j <.f.y.t.t.s.5.| & F.F.OXOXz.,X,X& j V D D V z ",
"s s s a h 8.f.^.R.A N = g.OXOX+X$X:X2X2X<XK u B.%.m m f s b 5.5.9.3.$.;.C.d.2.j j j C m M Z q.a.6.= n.OXOXOX%X2X2X& j j j j j j ",
"s s s n 9.).}.C.m j : w F.OX@X2X2X2X2X2XR L F j h b N 1.d.y.u.=.j z z j j ;.!.j j j j j m A r.a.0.q l.OXOXx.z.2X2X& f s f f f s ",
"f h @.5.).R.$.j m a = n.OX+X<X2X2X2X2XS.q W f n N 1.^.).p.$.V D G D G V j j B.%.j j j m Z 2.y.9.q.u I OXOXv.I 2X2X1 s a a a a s ",
"......t.Y.C j C j * I F.OX:X2X2X2X2X<X- :.-.-.Y.}.).T.=.z D D D H H H D V j *.d.f j M a.t.8.=.m j u I OXOXb.P 2X2X- | h a a f b ",
"..5.f.E.V V V V s @ n.OX$X2X2X2X2X2Xj.t (.^.~.d.e.%.j V D D G H H H H G D j C.Q.f j d.5.#.j j j j w U OXOXx.j.2X<X% 5.~.U.}.R.y.",
"~.f.f.&.V D V m : w OXOX2X2X2X2X2X1Xo n $.%.Z j j j D G G G G H H H H G V j E.f.s j u.5.M j j j V 1 g.OXOX+X;X2X*X% (.}.).`.}.d.",
"^.-.m z G V m j # h.OX$X2X2X2X2X2XD.* j j j j j j D G G G H H H G H H D z $.s.n s m 5.5.j j z D H & v.OXOX@X2X2Xj.8 Y.1.-.V.q.5.",
"r.Z D H G m m f   b.OX,X2X2X2X2X2Xy , j j j j j j G G G H H H D D H G z j u.f.f a n X.e.j j z G Q & OXOXOX$X2X2Xt t J J H ;.#.5.",
",.V H H H m j a   F.+X2X2X2X2X2X1X= f H D V j j j V D D D V j j j V j j -.f.9.5.#.O.6.=.j j j V r w OXOXOX:X2X2X= F H V V V $.0.",
"%.V J H H j j r   F.@X2X2X2X2X2X-X* z H H G j j j j j j j j j j j j f @.....O.9.~.6.p.j j j j j 1 g.OXOX#X2X2XXX* H j j j j Z a.",
",.m V G V m j v   n.$X2X2X7XzX2X&XO G H H D j j V G D j j j j j j s -.o.5.t.(.}.].Q.$.j j j j f = OXOXOX:X2X2Xy < m j j j j C a.",
"J.h m m j j f S   l.$X2X2XxXxX2X=X; G H D j j D H G H V j j j j f 1.=.m 5.a.]./.}.*.j j j j j ; w OXOXv.D.2X>XX m j j j j j C 5.",
"U.h f h b A V B @ l.%X2X7XbXbX8X>X# G D j j j G G G V j j j f m E.Z m 3.X.U.`.f.-.j z z j j a o x.OXOX.X,X2XY ; s s s s f j N t.",
"w.1.f s h N.Y.5.& b.%X2X7XbXbX9X1X* j j j j j z z j j j j s A _.A j >.5.i.}.p.Z j V D D j f O w F.OX@X2X2X<X  s f C h S h j @.f.",
"..(.`./.].].T.#.& x.$X2X7XbXnX0X2Xy : j j j j j j j f s a *._.,.A  .X.p.}.1.j j V G G D j , O b.OXg.:X2X&XL u B.Y.e.P.B.h f $.6.",
"..K.(.i.W.].I.@.1 g.#X2X7XbXnXxX2X&Xo s f f f j j f s a S U.-.$.T._._._.*.j D G H H G z s   I F.l.j.2X>XA.- }.].(.6.T.W.Y.m u.5.",
"..U.(.L.r.E.U.!.t w @X2X2XvXnXbX7X2Xy , a s s s s s a &.f.m m `.(.E.a.@.j V G G H H V j O , b.v.P 1X<Xj.1 M.}.V.f =.y.5.!.W.Q.q.",
"..L./._.>.N 1.U.^.@ n.<X2X0XnXnXxX2XZ.# p a a a s a h d.f.h i.].'.U.3.f j D G G H D j ; - c.n.R ;X2XA.y i '.m f j j C t.6.!.f.`.",
"..~.J.Z j j f s ,.q P :X2X2XvXnXbX9X,X= : a a a a B Y.%.b K.`.&.V._.n f j V D V V j , = c.F.$X>X2X=XY q Q.b j j j j j %.9.y.!.`.",
"q.R.A j j j j f s -.@ #X2X2X2XbXnXvX7X*X- V.r.i.u.R.;.z K.Y.C j A _.$.s f j j j j < * b.F.z.;X2X>Xj.= f.=.j j j j j j m i.K./.`.",
"U.V.m j j j j j f s t i <X2X2X8XbXbX9X2XXX= <...0.M m T.R.m M j j >.U.b s s f f r = l.b.P D.2X<XR = N U.f f f o G G z j I.r.~.`.",
"J.$.j j j j j j j s n - m.2X2X2X9X9X2X2X2XA.% } a.y.K.`.V.m m j m r.9.9.=.a a r X l.U Y &X2X2Xy # n T.-.f j a   H G D j E.u.w.].",
"K.S j j j j j j j f a t - ,X2X2X2X2X2X9X7X2XXX- 9 Y.!.f.f.C j j m M q.w.9.q.9 - 1 L A.<X2X<X1 , j r.R.f f j 6   H H D j _.t./.].",
"E.A z V z j j j j j a a , 9 ,X2X2X2X2XzXvX7X2X2XT @ N 2.9.O.:.j j m B B C.M.= X Y >X2X2X>X1 , j #.E.1.s f f > > D G D j (.t.`._.",
"R.Z j G V j j j j j s s s # * =X2X2X2X2X8X2X2X2X2X&X1 @   % 9 8 ; ; * * * 1 R 2X2X2X<XZ.  < j $.5.E.f s j ; [.E c G D m y.t.`.(.",
"P.C z D G j j j j j f a a s ;   Y 1X2X2X2X2X2X2X2X2X2X1XZ.Y Y T T R A.&X,X2X2X2X2X*X3 O f m =.t.I.&.a r 4 ' cX[.6 D V C 9.a.`._.",
"U.C V H H j j j j j j j f s f r O : oX<X2X2X2X2X2X2X2X2X2X2X2X2X2X2X2X2X2X2X2X;Xu - 0 3.<.f.~.R.S s 4 o k cXcXcX; o j %.5.f.(.`.",
"~.C V H H V j j j j j j j j j j j : o , S.1X2X2X2X2X2X2X2X2X2X2X2X2X2X<X<XA.q = 0 K.t.t.q.P.N.s s f j z k 6 kX3 > f j 3.5.a./.].",
"/.S z H G H j j j j j j j j j j j j f , o o 3 Y Z.oX-X1X2X2X2X2X>XXXj.9   - 0 J.V.&.b s s s a s f j j j z o , > V j j 2.9.y.).`.",
"E.Z V H G G D j j j j j j j j j j D D D G l 4 : O               X - t } t.%.f f f s f f f f j j j j j j D 4   G j m ,.e.y.0.f.`.",
"Q.Z z G H D G V j j j j j j j z D G H H H H H H D j j j a a :.a.f.f.e.E.Z j j j j j j j j j j j j j j V H 4   G j j =.f.y.9.f.U.",
"t.*.j D G H G G D V z j j j V D D H H G H H H G D z j j s b d.3.h =.E.,.j j j j j j j j j j j j j j D H H , O D j =.3.d.t.t.Q.U.",
"$.2.Z j G G H G H H H H H G G G G G D G G G G G J A $.@.-.d.p.f f C r.m j j j j j z V z z j j z V G H H G 4 f V j $.p.d.t.t.f.5.",
"j f.u.Z j V C C V C D D D V V j j j C Z C V Z 3.y.f.f.f.f.3.b j j Z 5.j j j j z G H H H H H H H H G G H H H G V j <.u.u.t.y.f.%.",
"j M f.u.V.N.C.V.-.1.A C A ,.,.#.-.1.2.W.C.C.2. .9.f.N f s f j j j $.5.j j j V G G H H H H H H H H G H H H G G V j 3.q.p.y.a.m j ",
"j m $.m m ,.t.Q.Q.f.t.5.O.a.,.u.9.w.5.O.m m M A f.f.$.j j j j j j Z y.m j V D D H H G G G G G G G G H H G H H V j -.<.e.f.m j j "
};
