/* XPM */
static char *_374343b4c7c490981c0d8b6ed9a51031YgyAIR0wQEkCqfM[] = {
/* columns rows colors chars-per-pixel */
"64 64 238 2 ",
"   c #0C0907",
".  c #17100D",
"X  c #1C1918",
"o  c #291917",
"O  c #251C1A",
"+  c #2C1E1B",
"@  c #361E1B",
"#  c #24201E",
"$  c #2C221D",
"%  c #34221E",
"&  c #3B211D",
"*  c #342B23",
"=  c #382825",
"-  c #3B2C24",
";  c #342D29",
":  c #3B312A",
">  c #681F19",
",  c #44221D",
"<  c #4C231E",
"1  c #53231D",
"2  c #5A251D",
"3  c #5F281F",
"4  c #69261E",
"5  c #79261E",
"6  c #442622",
"7  c #4A2723",
"8  c #442A25",
"9  c #4C2923",
"0  c #4B2D29",
"q  c #582621",
"w  c #542B26",
"e  c #5B2B24",
"r  c #5D2E29",
"t  c #47352B",
"y  c #55352B",
"u  c #5E312B",
"i  c #493A35",
"p  c #563933",
"a  c #632B24",
"s  c #6C2C24",
"d  c #622F29",
"f  c #6A2F29",
"g  c #722D26",
"h  c #7C2E25",
"j  c #752F28",
"k  c #62332D",
"l  c #6C322A",
"z  c #69362A",
"x  c #733229",
"c  c #7B332A",
"v  c #78362A",
"b  c #653731",
"n  c #663932",
"m  c #6A3B35",
"M  c #693F3B",
"N  c #773B33",
"B  c #4E4238",
"V  c #5B4635",
"C  c #694837",
"Z  c #774537",
"A  c #6A553B",
"S  c #765A3E",
"D  c #4C4440",
"F  c #5A4B45",
"G  c #5C514C",
"H  c #5C5453",
"J  c #644B46",
"K  c #66564A",
"L  c #775A41",
"P  c #665957",
"I  c #775452",
"U  c #796345",
"Y  c #71645B",
"T  c #756965",
"R  c #7C7474",
"E  c #87271D",
"W  c #98261D",
"Q  c #AD281D",
"!  c #B2271B",
"~  c #B52419",
"^  c #BB261B",
"/  c #BD291C",
"(  c #872D24",
")  c #962C22",
"_  c #843229",
"`  c #8C3229",
"'  c #893629",
"]  c #933329",
"[  c #983629",
"{  c #8A3C32",
"}  c #A62E23",
"|  c #B22D22",
" . c #A43529",
".. c #A93729",
"X. c #B33528",
"o. c #BA3728",
"O. c #C51604",
"+. c #C32A1D",
"@. c #C92C1F",
"#. c #D6301B",
"$. c #C52E21",
"%. c #CD2E21",
"&. c #D12F21",
"*. c #CC3424",
"=. c #C73827",
"-. c #D43223",
";. c #DB3425",
":. c #D53728",
">. c #D63A29",
",. c #DB3A29",
"<. c #E23626",
"1. c #E53728",
"2. c #E43928",
"3. c #E83928",
"4. c #854337",
"5. c #974432",
"6. c #8E5A3C",
"7. c #A94632",
"8. c #B54933",
"9. c #B74C35",
"0. c #C7442E",
"q. c #CC422E",
"w. c #D3442D",
"e. c #DB422C",
"r. c #C54A34",
"t. c #D44430",
"y. c #D44C32",
"u. c #DB4B33",
"i. c #C75339",
"p. c #D45639",
"a. c #DB5639",
"s. c #E3432E",
"d. c #E9432E",
"f. c #E84630",
"g. c #E44D34",
"h. c #E94D34",
"j. c #E65136",
"k. c #E35639",
"l. c #E95539",
"z. c #E35B3B",
"x. c #EA5C3C",
"c. c #DC603E",
"v. c #E3623F",
"b. c #EA613F",
"n. c #865B45",
"m. c #93554B",
"M. c #95554B",
"N. c #886948",
"B. c #946948",
"V. c #8B714B",
"C. c #98734D",
"Z. c #866F57",
"A. c #977B51",
"S. c #9C7B51",
"D. c #A8764E",
"F. c #A46259",
"G. c #A37B52",
"H. c #AC7D52",
"J. c #8B7769",
"K. c #947D6E",
"L. c #897B78",
"P. c #B87066",
"I. c #D75B49",
"U. c #D96747",
"Y. c #E86742",
"T. c #E87148",
"R. c #D77567",
"E. c #E37364",
"W. c #A88557",
"Q. c #B48859",
"!. c #BC8C5B",
"~. c #BB915E",
"^. c #9B816F",
"/. c #9A8576",
"(. c #BC9663",
"). c #AD8C73",
"_. c #C48E5D",
"`. c #CC8959",
"'. c #C6915E",
"]. c #C9925F",
"[. c #CA9561",
"{. c #C49A63",
"}. c #CD9A63",
"|. c #D29A66",
" X c #E88577",
".X c #CCA368",
"XX c #D4A369",
"oX c #D9AA6C",
"OX c #DCB072",
"+X c #E2AD6F",
"@X c #E4B573",
"#X c #E8B875",
"$X c #EABB76",
"%X c #EEBF79",
"&X c #EFC079",
"*X c #F0C27E",
"=X c #978987",
"-X c #948C8B",
";X c #998A88",
":X c #A69284",
">X c #B89B89",
",X c #A59791",
"<X c #BBA192",
"1X c #A9A5A5",
"2X c #B4A8A6",
"3X c #BAB2AD",
"4X c #EC9488",
"5X c #CFAD8D",
"6X c #C7AA97",
"7X c #D4B997",
"8X c #D6B49D",
"9X c #D8B69F",
"0X c #EABE85",
"qX c #D9B7A1",
"wX c #DBBAA3",
"eX c #D8BAA8",
"rX c #C6B4B2",
"tX c #E2BDA7",
"yX c #F2C888",
"uX c #F0CB96",
"iX c #F5CE95",
"pX c #DFC5AC",
"aX c #E3C3AD",
"sX c #F7D6A6",
"dX c #F8D6A3",
"fX c #FADAAC",
"gX c #EACBB6",
"hX c #F1CAB6",
"jX c #FBDEB3",
"kX c #F6D9BB",
"lX c #FCE0B7",
"zX c #FDE2BB",
"xX c #D1CAC9",
"cX c #F4D6C1",
"vX c #F7D9C4",
"bX c #E3D3D2",
"nX c #FEE4C0",
"mX c #F3F0F0",
/* pixels */
"d r d r r d o.+.@.@.+.-.3.2.+.~ ^ / +.+.+.+.^ +.X.=._ d d f r r r r ~ a 9 w m m m n n n m m m m m m n n b n n n k x ,.,.;.f r d ",
"r d r r r ' +.@.1.` g h _ } ^ +.<.3.;.-.3.%./ -.3.3.3.2.+.^ ^ ( f W / / w 9 r z m m m m m m m n b k k u k n m n b r <.$./ f r d ",
"r d r r { z.a.3.e r r r r f ( / &.3.,.X.` c l r f c [ o.:.2.;.-.^ / y.q.=.e 9 w r k k n n k r r r r r r r r m n k r ,.-.+.f r r ",
"w r d r / a.Y.x.w w r r r r g -.-.X.r r r r k 6 = n S 9 7 e ) ..9.8.7.] [ } q & w w r r r r r w w w 9 w w r n n r r :.2.+.h w 9 ",
"e 9 9 a / &.+.z.Y.5.f e w r d =.Y.9.r r u n y t V.V.V.N.S S A - V L n.6.N.N.B.C s a e w w w w 9 7 9 9 9 9 w k b r r =.2.;.} e h ",
"a w s ( +.<./ -.f.h.l.l.0.{ a ..x.T.' r r u t 5XzXnXnXnXzXlXlXjXzXjXjXzXzXlXjXyXC  .>.z.,.=...f 9 7 9 9 9 9 r b r r o.h.-.&.X. .",
"W h g +.-. ._ l l _ ..u.l.b.z.z.e.z.Y...r V ).zXzXjXjXzXzXjXfXzXzXzXjXjXjXfXlXzX7Xe %.>.-.3.>.x.a.7.7 7 9 9 w n k r 8.g.-.-.3.&.",
"^ ~ ^ +. .r r r r r r r ] ,.;.#.O.-.v.Y.N.J.zXfXiX&X&X&XfXjXlXzXzXzXjXfXiX&X&XdXlX^.N ;.<.%./ 3.@.%.*.7 9 7 w n k r ..s.+.;.1.@.",
"~ / / @.d r k k u r r k r r ] -.<.#.d.H.Y zXfXyX%X&X&X&XiXdXdXjXjXdXsXiX&X&X&X&XdXfXV.6.u./ -.x d o.+.7.7 7 9 b k r r -.^ %.-.&.",
"/ ~ -.*.r u b n r r b n u r r r } ,.i.K aXfX*X&X&X%X&X&X&X%XyXjXfX*X&X&X&X&X&X&X%XdXfXU 6.$.X.d d x ;.*.7 7 9 b k r r =.+./ +.-.",
"~ / -.] r b n n b r n b n r u r r ' p 7XfX%X$XoX$X$X.X~.$X&XyXjXfXyX&X{.(.$X&XOXOX$XdXuXA 7.X.f c c } 2.{ 7 9 b b r r Q =.w.@.;.",
"+./ *.r u m m m n u n n n u n r w 8 5XfX&XW.U H.[.'.W.A.U {.%X&X%XOXV.C.S.~.XX{.N.A.$XdXuXn 8.c f _ c d.i.7 9 n b r r | a.p.o.+.",
";.&.X.r b m n m n r b n k r k r w + fXyX$XW.|.[.].[._.}.~.{.@X$X%X.X(.[.'._._.].[.W.%X%XzXL [ X.f r l =.z.7 9 n k r r ` z.p.,.^ ",
"3.2.d r n m m m n r r r r r u r w % %X%X+X].H.Z m K L C.[.!.Q.OX.XW.[._.S V t p B.'.|.@XfXU 7 8.:.x r [ l.a 9 r r r r 7.v.u.f./ ",
"3.:.r r n m m m b r r r b n n b w - %X$X_.D.k m.>X6X:Xi L Q.A.%XW.S.Q.t J.:X6XK.t C ].XXiXU 7 r r.<.r d l.8.9 w r r r 5.l.f.l./ ",
"3._ r r n m m n k r r b m n n m u t %XOXQ.% ).9XqXwX8X>X= Q.V.$XW.G.A ^.8X8X9XqXqX+ C.}.%XU 7 r 5.3.d r 3.Y.a 9 9 w w U.f.s.u./ ",
"` r r u m m m b r r r m m m m m u p &XXXC.= qXvX<XvXqX9X: G.L XXU W.B 6XqXgX6XaX9XK S [.&XN.7 r _ &.x r x 3.g...s s y.z.;.y.=.+.",
"r r u m m m n u r r k n m m n n u V &X[.G.t qX:X).vXwX8XF S W.oXQ.!.i 8XaXvX>X/.6XJ.S [.&XV.6 r g +.c d r  .3.x.b.x.s.=.=.y.=.+.",
"r k m m m m r r r r u n m n n m u A %X'.C.V qXvXhXvX>X).J * : O $ - : >X:XvXvXcX8X^.C [.&XC.8 r d <.c f r d x ` =.3.3.z.:.z.:.r ",
"b m m m m b r r r r r b n m n m y S %X'.C.V qXvXhX6X# : 5X>X6X8X>X:X6XG O /.vXvX8X/.V [.&XA.0 r k 3.f d r d r _ x 0.l.b.z.9.r r ",
"m m m m m k r r r r r r k n n m y S %X[.C.V qXvXhX/.X ; tXwXqXqXwXqXwXF X H vXvX9X/.t [.&XS.8 r N 3.f d r d r d c 7.l.Y.7.r r k ",
"n m m n n k r r r r r r r r u k 0 S %X'.C.V 9XvXvX:X# : eXvXvXvXcXcXkXD # Y vXvX9X^.0 }.&XS.0 r ' ;._ r d r r c u.u.Y.[ r r n m ",
"m m n n n u r r r r r r r r r r 7 A %X'.S.V 8XcXvXpX: : wXvXvXvXcXkXkXD ; 6XvXvX8XZ.V }.%XA.8 r 7.&. .f c ] } v.v.c._ r k n m m ",
"m m n b r r r r w 9 9 9 w w r r 7 V [.'.G.- >XhXvXvXeXvXhXvXvXvXvXvXvXvXeXvXvXvX8Xi p }.%XW.8 r 9.w.v.u.2.3.y.u.=.x r k n n m n ",
"n m b r r w 9 7 7 7 a s q , 9 9 = O 0 V G i V gXvXvXvXvXgXvXvXvXvXvXvXvXvXvXvXvX/.p ; t L - + 9 w.9.9.Y.g.Y.Y.w. .r u m m m n n ",
"n k r r w 9 7 9 ) Q ! +.) @ Z { = G ,X3XxX2X% Z.cXvXvXvXaX:XL.J./.:XgXvXvXvXvX<XP mXxX1X1X-X: M 4.& x k.=.s.Y.T.N r n m m m m m ",
"r r w 9 7 7 a Q <.,.*.q.=.i 1X1XbXmX1XR H 6 < 1 N kXvXvXvXgX>X/.6XcXvXvXvXvX:Xt K L.P R 1XmXmX1X,Xq =.d.+.2.l.b.x r b m m m m n ",
"w 9 9 9 7 q %.3.3.Y.7.r.v.` T bXrXJ Z ~.OX(.B.x h Z 6XaXaXqX9X8X9XtXvXvXtXL = y = 6.[.(.J.H rXbXI 5 ;./ ~ ;.l.Y.[ r r k n b k u ",
"9 9 9 7 e $.3.h.p.v c c  .u.E s e D.dXzXiX*X}.t _.A.i B K K e + 2 1 p i w 6.'.A Q.yXsXjXjX(.1 4 5 ;.<.y.k.d.Y.b.i.w w r r r r r ",
"9 9 9 s %.l.Y.9.k r r r j / ~ E n.fXzXdX*X$X|.V Q.&X%XOXXX}.H.* G..XXX@X$X@X_.i _.XX%XyXlXzXB.4 &.&.3.3.x.Y.l.x.l.a 9 9 w w w 9 ",
"w e ( +.l.p._ r d r r d ( +.%.1 0XzXdX%X%XXXQ.t [.&X*X*X%X%X[.* Q.@X&X&X&X%X'.C N.].oX%X&XfXiX1 } [ _  .q.x.l.f.d.e.7 7 7 7 7 9 ",
"~ ~ ~ -.i.l r z r d h _ / ,._ 1 $XiX&X$XXX.XA C.XX&XfXjXiX%X'.- W.@X$X%X%X$XXXQ.V H.[.@X%X*X&X8 9 r r r r c k.h.-.1.W q 7 7 w a ",
"~ +.2.a.k k z k r w 5.v.%.l r + {.%X+X}.[.C V.[.$XdXzXzXjX%X!.- G.$X$XiXdXyX$X[.Q.V `.].%X&X%X$ r r r r r r o.x.+.^ +.g.u.Y.p.;.",
"g.3.3.' k b k d w e Y.p.f r r 6 t [.].'.L ; S XX%XiXdXdXdX$X!.- S.$X&XdXfXfX*XOXG.: x `.'.@XN.% k k r r r r ( l.+.~ k.T.l.x.Y.3.",
"h.[ d u n k d r 9 8.y...r u u 9 O V !.B.; G - |.$X&X$X&X&X%X!.- G.&X&XyX0X%X%X&XV - p _ [.B.% 8 m n u r r r ` k.^ +.i...[ 7.$./ ",
"=.x b m n d d w 9 c.y.` r b n 8 a = ; * L.T + S [.@X(.{.@X&X{.* G.&X&X{.W.XX}.W.+ G =Xi = + 5 6 n k r r r w 8.l.:.] N N m { ) +.",
" .k m m m d r w w v.3.c r n m , 5 p Y R ;XT = t V _.[..X.XOX~.$ C.oXOX(._.'.S w h P ;XL.P , E , w r r r r 9 a.l. .N m k k k _ &.",
"` k N m n r r w e w.3.l r b u , E p R ,X;XT < ( - G._._.B.S S X B L S.'.'.[.- E ( H ;X,X2X, E 1 7 r r w 9 7.3.b.N m u r r r x <.",
" .d z n k d r f l w.3.f r u 8 a ) J L.2X;XT 1 E k G._._.!._.!.$ G.'.'.[.'.!.e E ] H ;X1X3X1 } h % w 9 a c.>.3.[ b k r r r r l <.",
"0.r d d r r w 4.' ^ <.` r r + [ o.K =XxX;XT q ) g N.[.[.$X&XoX* (.$X&X$X_.H.e } [ H ;X2X2Xe =.7.+ 6 { c.v.-.] k d r r r r r l +.",
"u.e w e a c k l ~ / @.X.w 7 w R.=.P R xX;XT < } ` p !.XX%X%X$X* {.&X&X$X'.B.l q.' H ;XrX2Xr q.I.w w v.w.j.g ( w 9 9 9 9 w r j -.",
"*.X.w 9 e 5.i.+.+.+.@.,.9 + P.E.t.P T rX;XP <  .q.+ n.(.OX$X$X* {.$X$XXXC.y [ t.h H ;X2X,Xu t.E.R.7 v.,.=.a h w w l r N e r ( 3.",
"~ k.x.l.b.b.p.) d g ;.3.s 9 4Xu.t.i i P G : 7 X.q.g t = $ $ % X + - - - - p [ t._ i F P D 7 t.E.4X_ ' &.-.9.9.7.i.=.r.7.e w _ @.",
"~ w.k.>.a.b.y.( w r ( ;.4 F. Xt. .$ T K./.i @ t. .w b l 2 2 1 < 1 4 a a 3 = a t.q F :X/.Y i ' E.4Xr.u q./ y.T.b.k.@.u.a.i.a :.+.",
"~ u.k.e.=.a.u.d.g e g Q < R.I.w.7 ).qX9X9X8X8 [ ` u M.M.M.4.4.N l f f s x t 7 0.p qX8X8X8X6X& I.4XI.e } / z.U.7.w ] ;.+.f.a.d.$.",
"~ e.l.z.| j ..u.f._ w s E 1 , < : 8XaXcXgXqXJ a 1 C M.F.4.4.4.N c c c c c k $ y P 8X9XqX8X8X: ) , & h / f.v.a w r r l -.@.f.2.x.",
"~ g.r.x r r w 9  .z.c w c.l.} 2 : aXcXvXvXgXF % O m.F.N c c l x l x c c c c # 0 G qXgXvXcXwX: E w d ` 3.s.a r r r r r ` %.;.f.x.",
"$.p.v r r r r w 9 ..z.p.z.x.3.3.N >XcXvXvXaXe } % F.M.c a % $ O $ + x x c c $ 9 : 6XvXvXvXeX7 $.h r d 3.] r r r r r r d >.w.j.l.",
"u.7.k r r r r r w 9 p.*.z.r.o.3.8.J 6X6XJ.p ] W - F.4.c 2 + r r r o 2 x c c - = 6 ; Y >X>Xi 4 ) f r ` u.w w r b n n u r y.=.g.x.",
"q._ r r r r r r r 9 c y.z.i._ ..h.k p n _ ! @.g C F.x s 2 O d r d @ < s c c d # 9 9 & % + < $._ r x a.[ w r k n m n b r a.:.*.b.",
"w.c r r r r r r r w 7 5.w.3.3.3.3.g.U.d.2.2.s.% M.M.c 2 1 * r r d & , 2 c c c * ) ] j ` X.^ ..r r =.a.w w r n m m m n r z.-.j.b.",
"a.v u k u r r r r r 7 7 c r.a.,.<.<.s.z.p.=.E 0 M.v x 2 < 2 } r r 7 @ 2 x c c 9 4 ;.,.;.} f r r ) a...9 w r n m m n n r k.-.x.z.",
"p.x r n k r r r r r 9 9 9 7 9 9 9 9 7 7 7 9 + m m.c 4 2 6 > ~ X.r 7 @ 2 a c c l @ :.d r r r r _ +.a.w 9 r u n m m n b d ;.-.x.k.",
"r.l u n n r r r r r w 7 7 9 9 9 7 9 9 w w r + w 7 7 , @ $ + ) ;.a 7 + @ & 6 6 0 1 } f d d d ] -.y.' 9 w r k n m m n k l %.<.l.z.",
"u.l k m m r r r r r r r w 9 w r r r r r r w $ - 8 8 - $ % 7 w ;.a 7 & + $ $ $ $ < W *.....2.g.p.c 9 w r r b n m m n r ` +.3.k.x.",
"g.l k m m k r r r r r r r r r r r r r r r 6 * F * $ $ # $ 9 9 / Q s , + $ $ $ B t s -.-.*.r.5.9 9 w r r r b n m n k r X.+.1.j.b.",
"j.v u m n n r r r r r r r r r r r r u k 9 * V - $ $ $ $ O 9 a <.y.r.] $ $ % % t J * & 9 9 9 7 9 w r r r u n m m k r r o.%.;.h.x.",
"a.x k m n n b r r r r r r r r r r b n 0 X .             O 9 h 3.h.d.5 .             O % w w r r r r r r b m m m r d  .:.;.&.3.x.",
"s.v u n m n n k r r r r r r r u n n m = O O $ $ + O O O O 9 X.3.3.3.4 w + + % % % + + + r r r r r r r k m m m n r r ] 2.;.%.3.u.",
"-.{ r b n m n n n k u r r r k b n m m n n u y 0 0 9 9 9 7 a <.X.e ] a.[ w 9 7 7 7 9 r r r r r r r r n m m m m b r ] X.<.-.-.d.u.",
"_ o.x r n n m n m m m m m n n n n n b n n n n n N c _ ( [ <.,.w w l =.d r r r r r u k u u r r u k n m m n m m k r _ ,.<.-.-.2.+.",
"r 3.:.c r z z z z z b n n k k r r r l x z k x X.;.2.3.3.2...a r r c +.r r r r u n m m m m m m m m n n m n m n k r ..:.:.-.;.2.' ",
"r f 3.:.7.5.8.7.[ ..c l c  . .) [ ..o.p.9.9.o.Q %.3.g w 9 w r r r _ +.r r r k n n m m m m m m m m n m m m n n k r X.=.,.;.1.d r ",
"r d _ d d  .-.s.s.2.-.+./ <. .:.%.*.+./ d k f c 3.3._ r r r r r r c ;.d r k n b m m n n n n n n n n m m n m m k r [ ..=.3.d r r "
};
