/* XPM */
static char *_7abb58124784eada5e77691999747d8w28LjnBvaaGbi4oE[] = {
/* columns rows colors chars-per-pixel */
"64 64 217 2 ",
"   c #030101",
".  c #0B0402",
"X  c #130604",
"o  c #160805",
"O  c #1B0A06",
"+  c #1E0B08",
"@  c #220B07",
"#  c #240D09",
"$  c #2B0E09",
"%  c #300F0A",
"&  c #26110B",
"*  c #2D110B",
"=  c #34120C",
"-  c #3C140D",
";  c #3E180E",
":  c #3D1710",
">  c #371B10",
",  c #3E1810",
"<  c #480F0B",
"1  c #43150E",
"2  c #49170F",
"3  c #45180F",
"4  c #4B180F",
"5  c #53140D",
"6  c #5A180E",
"7  c #461710",
"8  c #481710",
"9  c #441911",
"0  c #4C1B12",
"q  c #541C12",
"w  c #5A1D13",
"e  c #710D0B",
"r  c #671A0F",
"t  c #73140D",
"y  c #631E14",
"u  c #691C12",
"i  c #771D13",
"p  c #4D2716",
"a  c #552116",
"s  c #5B2116",
"d  c #5D2817",
"f  c #5C2318",
"g  c #632116",
"h  c #6B2216",
"j  c #632519",
"k  c #6B2519",
"l  c #67281B",
"z  c #6C291C",
"x  c #732313",
"c  c #7C2313",
"v  c #752519",
"b  c #78261A",
"n  c #742B1D",
"m  c #7B2D1E",
"M  c #6B331C",
"N  c #76341D",
"B  c #7E311F",
"V  c #5D3920",
"C  c #7E2F20",
"Z  c #6A3F21",
"A  c #7E3020",
"S  c #783C23",
"D  c #774527",
"F  c #8D150E",
"G  c #97150F",
"H  c #891912",
"J  c #971C16",
"K  c #B20E0F",
"L  c #BD100F",
"P  c #B91711",
"I  c #822513",
"U  c #8B2617",
"Y  c #852917",
"T  c #842D1D",
"R  c #8B2B1B",
"E  c #922A16",
"W  c #9E2518",
"Q  c #9D2B1B",
"!  c #82301F",
"~  c #8C331C",
"^  c #9B331D",
"/  c #AA2719",
"(  c #A22D1A",
")  c #B7271A",
"_  c #B3261C",
"`  c #A4331D",
"'  c #AA321B",
"]  c #AE381E",
"[  c #B7331D",
"{  c #812F20",
"}  c #9A2F21",
"|  c #843121",
" . c #8B3423",
".. c #923524",
"X. c #9C3521",
"o. c #943926",
"O. c #9A3B26",
"+. c #953A28",
"@. c #9C3C29",
"#. c #B32B21",
"$. c #A23621",
"%. c #AA3423",
"&. c #A43B24",
"*. c #AB3A21",
"=. c #A33E2A",
"-. c #A83F2B",
";. c #B53627",
":. c #B43C23",
">. c #BA3E25",
",. c #CD1511",
"<. c #C61E16",
"1. c #D51814",
"2. c #E81C16",
"3. c #F61914",
"4. c #C62519",
"5. c #CC2A1C",
"6. c #D6251C",
"7. c #D62D1D",
"8. c #DA391F",
"9. c #EF271A",
"0. c #E22C1C",
"q. c #EC2B1C",
"w. c #F42418",
"e. c #F7271A",
"r. c #E3341F",
"t. c #ED361F",
"y. c #F4371F",
"u. c #C52F20",
"i. c #D42921",
"p. c #C63721",
"a. c #C23C22",
"s. c #CB3E22",
"d. c #C13B2B",
"f. c #D73A23",
"g. c #DC3D22",
"h. c #E33722",
"j. c #EB3D24",
"k. c #F53B24",
"l. c #F83923",
"z. c #824D2A",
"x. c #944D2B",
"c. c #994C2C",
"v. c #8F5430",
"b. c #935530",
"n. c #A54827",
"m. c #A7402C",
"M. c #AB422D",
"N. c #B2452F",
"B. c #B94628",
"V. c #B34B2B",
"C. c #A9552E",
"Z. c #B7532D",
"A. c #B54630",
"S. c #B74B32",
"D. c #AB5531",
"F. c #A45E35",
"G. c #B45A33",
"H. c #BC5A34",
"J. c #B66638",
"K. c #C74629",
"L. c #C4452B",
"P. c #D54124",
"I. c #DB4123",
"U. c #DA4328",
"Y. c #D34D2B",
"T. c #DB4B2A",
"R. c #C6552F",
"E. c #D4552D",
"W. c #C24F30",
"Q. c #D85B34",
"!. c #E44423",
"~. c #EB4423",
"^. c #E6472A",
"/. c #E54D2B",
"(. c #F24524",
"). c #F14925",
"_. c #F34729",
"`. c #F84429",
"'. c #ED572D",
"]. c #F3522C",
"[. c #ED5331",
"{. c #E35B32",
"}. c #EC5D35",
"|. c #F55A33",
" X c #FC5B35",
".X c #C66739",
"XX c #C96D3C",
"oX c #D8683A",
"OX c #C0743E",
"+X c #CE743D",
"@X c #D2743E",
"#X c #E66637",
"$X c #F46235",
"%X c #F4673A",
"&X c #FA663A",
"*X c #F36C3B",
"=X c #EB743D",
"-X c #F4743E",
";X c #CD7842",
":X c #D37A43",
">X c #E47A42",
",X c #EC7B43",
"<X c #F37440",
"1X c #FB7241",
"2X c #F57B42",
"3X c #FD7C46",
"4X c #B68147",
"5X c #D8884A",
"6X c #EB8547",
"7X c #ED8B4B",
"8X c #F28347",
"9X c #F8864B",
"0X c #F48A4A",
"qX c #FA8B4B",
"wX c #F9934F",
"eX c #FB9852",
"rX c #F7A358",
/* pixels */
"d j u 9 0 q S XXg.'.7XX.| | | | | s.s.| | | | | | | | | | | | | | |  . . ._.9XXX@.&.q.&XY. .| ..I.(.~.s.s.!.q.d.A.L.@X) Q ' o.N ",
"j Z g 0 h Y *.+XQ.!.rXG.| | | ..:.2X*.| | | | | | | | | | | | | | | | | | I.w.%X:X .5.&X|.~.t.~.~.~.P.r.0.>.i.d.A.B.:X5.$.' C.^ ",
"r M M x ~ n.Z.+X8.!.>XG. .a.P./.=X;X . . . ...=.A.A.A.A.A.A.A.A. .| | | | *.~.w. X_.3X&X$X].].!.f.q.p.9.' } 6.A.A.5XT.,.B.' n.` ",
"r u D z.x.` ) XXT.6X>X>X!.(.].H..Xs.=. .| | O.o.A.A.A.A.A.A.A.A.@. .| |  . .&.s.}.*X*X-X~.0X$Xw.q.2.#.q.4.,.d.S.7X{.oX5..XC.C.Y ",
"u v N z.U W P 4.g.=X-X%X(.2X8X:.P.s.A.o.| | M.| N.A.A.A.A.A.A.A.A.M.=.N.A.A.=. .X.w.1X].2XrXk.|.1Xk.3.w.) %.>.~._.#Xg.,.[ J.` s ",
"5 t i H F k k ( 1./.,X[.q.0XwXL.| =.M.=.| | =. .M.A.A.A.A.A.A.A.A.A.A.A.A.A.A.=.|  .`.3X9XrX#Xf.j.9Xk.h.7.'.*Xl.1X^.,.4.P K v s ",
"- 5 e I E E j R 1.1.4._ 4.U.,XQ.| | | | | | .. . ...o......... . . . . . . . . . .| _ 7.0X}.w.w.:.{.eX9XqX2X*X|.h.J n m ( / b s ",
"; e c I E E j z T T | | J.j.$XL... . .| | | | .. . . . . . . . .| | | { T m m m m n m s.0X(._.p. .n m R T <X].a.b k k g j k j k ",
"7 t c U E s s j k k n J.-Xj.~.v k k j q 0 q w s s s s w w w w w q q q q q 0 0 8 1 = ; 1 c.Z.!.( ; - = % p J.I.; = = $ # # # @ @ ",
"$ 6 x u 2 $ @ @ @ @ , OXE.8.E = $ $ % = - - ; ; 1 1 1 - ; ; 1 1 1 1 1 1 2 1 - - - - - ; 5 5X).!.q q q w b.oX~.g y q 0 3 1 1 0 q ",
"@ - I c x u ; 2 0 q v.wX(.(.Y w w w w w w w w w j w j w s w w s w s s w s s s j j j s w y G.).!.q q q q q oXg.w q 0 0 0 7 1 1 ; ",
"O + r u 5 1 # # # $ V 4XI.[ = * = = * $ $ * # $ # # # # # $ $ = * * # # # # $ $ * $ $ $ $ z.B.R $ $ $ $ $ b.*.% # @ @ # @ + + + ",
"# $ 1 I I 6 - - 1 1 2 5XE.E 2 0 y g h h g y w w w w w w y h v h w q q q y q q w y g w h g F.7XR g h h h h V.h.w q q q q 2 2 1 1 ",
"$ = = x h 2 1 2 4 q j 7X(.x w w w k v v v v v w w q q w v v v v g w w q q w q q q w w h v H.8XY v v v v v U 2.w q q 0 2 w w 1 1 ",
"= = 1 w 1 2 1 2 0 c Q.8X(.` q w q w h v v v v g w w q w v b b v b w w w w w w w w w w w h W./.Q b b b b b b [ w s s x Q q w 1 1 ",
"1 1 1 q q w 6 c G.#X2X-X(.h w s s g k  . .....o.n n v | ! o.@.@...m T m | o... .m m m m ^ 6.3.r.;.-.-.-.=.=.=.| V.;XB.` x m w w ",
"7 u x x.F._ L W.>X#X@XL.:.{ | | | |  .N.A.A.A.A.A.m.|  . . . . . .| |  . .@.o.o.m.@. .| I. X Xy.j.[.Q.A.A.A.A.M.m ! n ` m | k j ",
"x x z.c.` V.:.R.U.I.>.A.A.o. .| | | | N.A.A.A.A.A.A...| |  . . .| |  .o.A.A.A.m.=.7.2.[.1X3XeXk.$X0X[.N.A.A.A.A.C m n z z A z j ",
"j f D B m U V.[ s.s.U.A.A.=. .| | | | A.A.A.A.A.A.A.@.| | | | | |  .| N.A.A.A.L.3.l.1X X`.y.(.w.l.q.t.A.A.A.A.A.| n C z n n n j ",
"0 0 0 s s F ] ` o..X$X~.!.L.| | | | | =.A.A.A.A.A.A.m.|  .| | | |  .M.A.A.A.A.f.`.qX0X8X0X0X6X{.E.9.U.A.A.A.A.N. .n m z n z C j ",
"7 0 u F G ' J.^ :.'.).:.P.I.o.| |  .| |  .o.O.@.@.@...| | |  . . .o.@.@.@.@.@.0.w.9XoX .@.c.o.D.-X7. . . . . . .| m n z k j j j ",
"7 7 y F J D.:..X:.$.X.|  .X.| | | | |  . .| | | | | | | | | | | | | | | | | | 5.w.~.s.| | | | @.*Xs.| | | | | | m n n z k k z j ",
"f 0 0 q D x.>.x.m | | | | |  .| | |  . . . . . .| | | | | | | | | | | | |  . .| *.:. .| | | | W.2X%X..|  .| | | m n n n z l z z ",
"@ @ + @ & > - * * = = = = - 9 - 9 , , 9 0 0 0 0 0 , ; : , , : - - - : - - - : : : = = = = = = ~ oXG.2 9 9 : , 9 : : - - = = * * ",
"* $ $ = ; 5 i 0 q q w q q q q q q q q q q q q w w w w w s s j j g g k k k k k k n m m m b v v b Y.=XY j s s j j s w w q q 0 1 q ",
"# # $ * = - < - ; 1 ; ; - - - - ; 1 1 1 2 0 q q w w w w w w w w w w w w w w w w w w w w w q q q &.@X0 2 1 1 1 ; - = % $ # # @ # ",
"+ + @ # * * = - ; 7 0 0 1 ; ; - - = = = $ $ # # # # # # # # # # # # # # # # # # # # # # # # # # # 1 $ $ $ $ = = = = % = = = = = ",
"= = = = - 1 0 q j k j w w w w w w w w w w w w w k v j h w q w q q v v g h j q q w w w y w w h w c.! v v v v v v x g q 1 2 1 2 1 ",
"# # $ % = - w y h v v v v v v v y q w w q q w w v v v v v v q w q w v v v v v q w q q q q w g w M i J v b v v v k h y y 1 1 ; ; ",
"# # $ % = - 0 j k v v v v v v v v w w w q q w w b b b b b b v q w w v b b b j w w w w w w w w w n.X.w v b b b v k h g y 2 1 ; - ",
"* = = - 1 0 q w v ........X.X.X.o.| k k k k k k  .o.o.o.o.o.o.v k k k X.T k k k k k g h k k J 1.2Xj.<.R ...... .{ T m m s q 0 0 ",
"= ; 9 0 q s j z m m.A.A.A.A.A.A.A.M.| | | | | | ..A.A.A.A.A.A.@. .| | | | | | |  ...A.N.N.@.h.P.8Xr._ s.P.L.A.M.=.@.+. .l j s s ",
"= - 9 0 q s j z m @.A.A.A.A.A.A.A.@.| | | | | .. .A.A.A.A.A.A.M.| | | | | | | ..C A.A.A.d.}.*X$XoX5.X. .L.B.A.M.=.@.o. .j j s s ",
"= - 7 s j f j z m | A.A.A.A.A.A.A.| | | | |  . .@.A.A.A.A.A.A.A.| | | | | | | | =.A.A.A.i.*X^.T :.$.| =.A.A.A.M.=.@.o.m f j s a ",
"* 7 a j z A j z m | o.A.A.A.m...m | |  .| | C  .A.A.A.A.A.A.A.M.| | | | | | | M.A.A.A.A.i./.!...| P.a.| | | | m n z k j z f s a ",
"= 7 a j z C z z m | | | | C | |  .o... .M.N.N.A.A.N.M.M.M.@. .| | | | |  .o.A  .o.@.@.@.%.u.a.&.| | =. .| | | m n n z j j s s f ",
"= , 0 a j z j n m | | | | | | | | ..=.| { | | | | | | | | |  ...| | | | | | | | | | | | X.oX| | | | | | | | | C m n z z l f l j ",
"* = ; 7 0 s j z m | | | | | | | | | | | | | | { | | | | | { { | | | | C C C A | | | | | W ( m n n n n n n z l f a 9 = * * # @ + ",
"* = : 9 0 s j k n C A | B m m m C | | | | | m m n z k j j f s s a q 0 0 9 : - - - = = = = = = * = = = = - - ; ; - - - - - - - ; ",
"+ + + # # = = - ; 1 ; - = = = - = = = = = = = = = = = = ; ; 1 7 0 0 q w g w 0 0 4 4 2 2 0 0 q w q q 0 0 0 0 0 2 1 1 ; - - = = - ",
"O + @ # # $ = - ; 1 1 2 0 8 0 0 q q q q q q q w 2 2 2 2 4 0 0 0 4 2 2 4 0 0 w g g g h g g y w q 0 2 2 0 0 0 1 - = $ # @ @ + O o ",
". X X X o O O + + @ @ @ @ @ + @ @ + + + + + + + + + + + + + + + + + + + + @ # # # # # # # # # # # # # # @ + @ @ @ @ # $ * # @ @ ",
"o O O + # # $ = - ; 1 1 1 1 0 1 2 q q q 0 1 1 1 1 1 1 1 1 1 q w 1 1 1 1 2 1 q q q q q 0 0 2 0 q w w w w w q 1 ; - = 2 1 ; - # # ",
"O @ # @ # # % = - ; 1 1 1 1 1 1 w w w w q ; 1 - ; - q q q 0 1 ; 1 1 ; - ; ; ; ; ; ; ; 1 1 1 1 - 0 q q q q q 2 - = = - 1 - - # # ",
"+ @ # # # # $ = ; 0 q 1 - - - ; q q q q q ; - - - - q q q q q 8 - - - - - - - - - ; ; ; ; ; ; 1 ; q q q q q q ; - - = - 1 ; $ # ",
"# * * = ; 7 7 q s j s 0 0 7 0 7 j j j f q 7 0 0 0 0 w j j j j s 0 0 0 0 0 0 0 0 0 0 0 0 0 0 0 0 0 k z z z z z f 0 7 9 - 0 9 = * ",
"# * = - 9 0 a f l z l s w q w w l j a q q a q q q a f z z z z l 0 q q q q q a a q 0 q a a a 0 0 0 l l z z z l j 9 , ; = 9 : * # ",
"@ * * = , 7 q a j z j w 0 0 0 a 0 0 0 q 0 0 0 q 0 0 j l l l l j 0 0 q 0 a j j j j j j j j j 7 7 7 j j f f f j a ; - = = : * * # ",
"@ # * = - 9 0 a f j j 0 7 0 0 0 7 7 0 0 9 7 7 7 0 f j j j j j f 7 7 q 7 f f f f a f a f f a 9 9 9 a a a a a a , - = = * * # # @ ",
"@ # @ @ # = 9 0 a f f a 9 9 9 9 9 9 7 7 q a f a a a a a f a 0 9 9 9 0 7 a a a a 0 : ; ; ; - ; ; - 7 0 0 0 0 ; - = = * * * # @ + ",
"+ @ O @ # * * = - ; ; - 9 : : : , 9 , 7 , 0 0 0 0 7 9 : : : , : - , 7 , 0 0 0 , - - - - - - = = - - = = = = - = * * # # @ @ + O ",
"o o O + @ # * * = - - - - - - - - , - - - = = = = = = - - - - - = - - = = : - = - = = = = = = = = = = = = = = * * * # @ + + @ + ",
"X o o O + @ # * - = = = = = = = = = = = = = = = = = = = = = = = = = = = * * * * * * = * * * * * * * * # # @ + O o X X X . . . . ",
". X X o O + @ # * * * # # # # @ @ + + O O O o o o o o o X X X X X X X X X X X X X X X X X X X X o o o o o O O + + + O O o o o X ",
". . . . . . . . . X X X X X X o o o O O O O + + + O o o o o O O O o O O O O O O O + + + + + O O O O O O O o o o X X X X . . . . ",
". . . . . . X X o o o o O o o o o o o o o o o o o o X o X X X X X X X X X X X X X X X X X X X X X X X X . . . . . . . . . . . . ",
"                . . . . . . . . . . . . . . . . . . . . . . . . . . . . . . .             . . . . . . . . .   . . . . . . .     ",
"  . . . . . . . . . . . . . . . . . . . . . . . . . . . . . . . . . . . . . . . . . . . . . . . . . . . . . . . . . . . . . . . ",
"  . . . . . . . . . . . . . . . . . . . . . . . . . . . . . . . . . . . . . . . . . . . . . . . . . . . . . . . . . . . . .     ",
"    . . . . . . . . . . . . . . . . . . . . . . . . . . . . . . . . . . . . . . . . . . . . . . .                               ",
"        . . . . . . . . . . . . . . . . . . . . . . . . . . . .                                                                 ",
"        . . . . . . . . . . . . . . . .                                                                                         ",
"                . . . .                                                                                                         ",
"                . . .                                                                                                           "
};
