/* XPM */
static char *d5feaa69d90248beb65e93f3bc1a0eca8JicZZI0fBwAipsG[] = {
/* columns rows colors chars-per-pixel */
"64 64 82 1 ",
"  c #3B221D",
". c #3C221E",
"X c #3D241F",
"o c #3F2621",
"O c #412723",
"+ c #412823",
"@ c #422924",
"# c #442B26",
"$ c #452C27",
"% c #472E29",
"& c #492F2B",
"* c #49302B",
"= c #4A302C",
"- c #4C332E",
"; c #4D342F",
": c #4E3530",
"> c #503732",
", c #513833",
"< c #523934",
"1 c #543B36",
"2 c #553C37",
"3 c #563D38",
"4 c #583E3A",
"5 c #59403B",
"6 c #5B413D",
"7 c #5C433E",
"8 c #5D443F",
"9 c #5F4641",
"0 c #604742",
"q c #614843",
"w c #634945",
"e c #644A46",
"r c #654C47",
"t c #674E49",
"y c #684F4A",
"u c #69504B",
"i c #6B524D",
"p c #6C534E",
"a c #6D544F",
"s c #6E5550",
"d c #705652",
"f c #715853",
"g c #725954",
"h c #745B56",
"j c #755C57",
"k c #765D58",
"l c #795F5B",
"z c #79605B",
"x c #7B625D",
"c c #7C635E",
"v c #7D645F",
"b c #7F6661",
"n c #806762",
"m c #816863",
"M c #836965",
"N c #846B66",
"B c #856C67",
"V c #866C68",
"C c #886E6A",
"Z c #89706B",
"A c #8B726D",
"S c #8C736E",
"D c #8D746F",
"F c #8E7470",
"G c #917773",
"H c #917873",
"J c #927874",
"K c #947A76",
"L c #957C77",
"P c #977D79",
"I c #987E7A",
"U c #99807B",
"Y c #9B827D",
"T c #9D837F",
"R c #9C847E",
"E c #9E8480",
"W c #A08682",
"Q c #A18883",
"! c #A38985",
"~ c #A48B86",
"^ c #A58C87",
"/ c #A68D88",
/* pixels */
"VCVCCVt06>%&=20000000000aukMbdMCCtOsjbT~~!!!~~~~^~!EUEWWDCCC0NCV",
"CVCCCz005kckk0&6005:*&:300008&O;0o#OgknL!~!~~~~!YKFSDE^WPCCC7NCV",
"CVCCl100xCCCCMe%02=9dzmCMvjatq0:.   #hlvCJPTTKCCCCCCCCPEHCCC>MCM",
"bVVn=200kzMCCCmO50CCCCDZCCCCCMdw6O .@-ixlnNCCCNbcxzxMCCCCCCV=lMh",
"ghhdO%%&=tfkbNV1,aCCAT~~!EPFSZCCgq+o%&-$elkzxxxkhjkklbCCCCCV&tgs",
"dgawXOO@$%=9tpg05wxCCI!~~WW~!WEJCbw&O=302@o.o&5ilhllllVCCCCN=%ih",
"1tk-OelMMci>103100wiCCFUE!!!!!!WICMr>$=4545#@;:#=9hhjkbCCCCN$>=>",
"@O-owCCCCCCCf36;79993mCCFTW^/~~!EJCCh4%=:3@@>1400==hjhxCCCCMO=00",
"0# @VCSGACCFCCg*=&#%9:cCCAEW~^/^!WCCCCp:=#O5000MVw#3hgzCCCCM@&00",
"0# 5CZUTZCIWSCCC6@#o$9<cCCZ!W^~/~~KCCCCCf-&000sVBM0%hglCCCCM@:00",
"0OOlCY!WPZQTTCACCt$&o&4&bCCHE^~/~^WFCCCCCCy-80sNbMi>eglCCCCMO:00",
"0O=CA~!~ESW!EATCCCt-&o<1&nCCPW~/~/!WJCCCCCCC09rbNcM6>glCCCCnX>00",
"9OtCI~!~WZTWGCFCCCCr#=#6<-CCSE~//~~~~KCCCCCCCgedNCMu&glCCCCb ,00",
"4+VCY^^~WCCCCCZCCCCC3@=&0=wCCY!!/~^^^WFCCCCCCCCdyMCk:skVCCCc.:00",
"<6CCE^^~TCCCIWWIACCCn:$:09#CCJW~/!~~^EDCCCCCCCCCiwCV63kcCCCxo:06",
"0vCCW^^!GCCT~EW~TCCCCk3&40%0CZE^/!~WYKCCCCJJZCCCk0VCq3djlxxiO:9<",
"xCCA~^~YCCC!~~~~^KCCCCe&=0:%CCIQ/!YACCCCCCEEWDCCv0MCM00tffy3@:07",
"CCS!~~WACCS!~!!!^~SCCCC5O9@OBCAEYTSCCCCCCC!~!!ZCM0MVCh009>#=$:00",
"CL~/~~ZCCCAE~!!!~^WACCCkO%oo9CCFPDCCCCCCCCT/!^YCV0nNCVMxu9&%@5rC",
"P~^~^TCCCCCP!~!^!~^QUACCqOo@&CCCCCCCNxvcMCS~^~~CV0NVCVCcMu;=8dCC",
"~~^~~HCCCCCCJEW~!!~~!ESCy:.:OBCCCCBczlgghcCR/~~Cb0NVCVCVba39hCCC",
"W^^Q!PCCCCCCCCAGIE!^~!UCk##7@0CCCMxzlxxlggxC!^~Cx0vCVCCb7,7jCCCC",
"~^!EEACCCCCCCCCCCZJ~~EECbO%9<+lVni<=$-<9kgjnCWWCh0fNMzs4,0vCDYZC",
"/~!YCCCNxllkxMBCCCCF~!YCb#6bg=%3%==>,>-@=hhkCCCVa00eq,%,9MCGETAC",
"!~PCCnlhhhspshllvNVCZPCCj%aCVq9qcVV00qf0O9hjkMble<#O&O50hCA^^ECC",
"EDCBxjgj5&%@ o#>ixnCCCCC61dVVMvVCCN5qMVk>@jkkhjg6=&.X&00nCE^^WCC",
"CCMkhgd#O=,564:%X%6lMMl9#0jMCCVVVk<<<NVCk=exjp92-;=.@#60MCI~^JCC",
"zkjhhdo%40st0004@ooX%@.O50NNCMkg:@<0>>MCCa:%#&&=>#.ooo;0dCCGJCCC",
"kljhsO$0tnbnk05:&#@OOo%wkVNbkd=$3dvva=5CCCNBNmi05-OO#oO5exnVCCCC",
"kkjio#6sVCCCb-&:=&&$#MNncks5O%8lCSACCvonCCCCVby<:5004-.&9dkkbmbl",
"hjeO+wvCVCCVsoO@O@=%tkhfd9@#6cDPEEEJCC7tMCCVna07tkchuq$o;ehhhhhj",
"&@oOyNCACVkh&3xtq07#<pi3=%3lZPYU^/^YPCl+xCN00rkVCCCCCn3%&&9kgggd",
"OO@9VSLFCxw&wMCCVgrq-#&<wxCHYTE^//^WUCsOlC%0sCCCCCCCCCu&;&@Oo   ",
"966vHUFVbs#qMCCCCCCMccmCCZUEWW!//~~ELCe$zC>9MCCCKPCCCBd=>0072:=:",
"0kVA!HVCk3-yCASHACCCCCCCCUW!!~~~R!!TZv0plV<8CCAE~WACCVi:<0ikbj00",
"uMI~!VVmkO:kCI!^!TACCCCCCWEW~^~YT!RACt5jhg:tCCAW!JZCCnq<eVYWWHj0",
"gZ~^RVCxgO1zCE///!^!TGCCCJTTYKCCZFCCj8;:q=4lCCCGCCCCVl>6METHFDb0",
"xA!~UCCks@>mCY^~^^^//!CCCCCZCCCCCVvgw==510eCCCCCCCVnk990TUACCCM0",
"gVHEFVVsp#:NCS^~~//^~PCCLWYCCCCCVxst=.o$10vCCCCCVxhs190BPCCCCCN0",
"rbVVCVlpw:>kCCP~E!!~YCCT~!~FCCCVxpkV:oO3exCCCCCMlhi200kACCVBVCM0",
"0glvlghg$939vCCKEW!ICCCE!EJCCCnkeMVp&%7qlCFACVvkgp900kfzkjhklVb0",
"6ikhgi,%400=kvVCFHACCCCSACCCBzsqnC0#&7eMCJEYVvkgfw<4ikdkkhjskMk5",
"o8003:>uVn0$yglnVCCCCCCCCCmlhswgbw#-wgCCKW!INlgg7%%20pspttuajnx:",
".##%600scCl@=ggzklzxbbnNMckhswkx9#>qjCT!~~ESNkhy:OO%:@=&<000rvt=",
"2oXoO000gcn>odggghhhhjjjkjhf0Vn044wgBP!!~~KCVhh0<5>@oo1pnkw0>5#O",
"4:+X4ht<2aczX%kghjhghhhhjhhw0ce009tvCYWW^TCCVgg9cbw9-5hbVCMq+ .X",
"6;.jCCnz7Oin% ;9wadggggghgukh82ch6sxCGIIDCCVxgfqNVx0qkBCCCCl6@.O",
"0o#VCCCmk3O>@#@=5:=-:33ettkg00NCv8ijMVCCCVMxggfevCV0pBCCZCCC09+@",
"6.#CCCCCbj#+0ip00&OOOoo.<kg96VNCCu=djzvvxzkgglssMCxwxmCI!WAC60=O",
"6 #CCCCCVki@>icf0bby0&@.=1<<sVVCVi6-thhjllghjkwvCm0ixNKE~WIC<06o",
"8 @CCCCCCmgq&603,37,%@+OOO%90MCCBNi6,<9etifdpqsCCwwkxCT!^~TC>00@",
"7.oLACCCCCghy3,::331249099000&wCCVVVa0o.$:e0smVCg0uznZE^^!TC:>0=",
"7OoWKCCCCCkjkhkkkkhhhjkhgfsai9;qCCCCCl3o#eVCCCCc0wxkCSW^^WYC>:0<",
"7#oTECCCCCnhhkkjhjlvmNBVVCNlhkp&xCCCNh:#<tNVVVz0qglbCHW~^WGC&;06",
"8#o~~CCCCCCBvlxMBCCCCCCCCCCCbkx&sxcxg8$@#-wddq0egkxCCPW^~ICC#>00",
"9@o~~PCCCCCCCCCCCCCCCCCCCCCCCklO:kks7%=5110qeyhkjbCCCYW^ECCC@=00",
"9Oo^Q!CCCCCCCCCCCCALPJACCCCCCkk+O6O==-9epsglljhjbCCCSE^WDCCC+%00",
"7@@~W!ICCCCCCCCCCITY!^!ECCCCVjs#o o0qgncxzzxxcNCCCCCT~!FCCCC#%00",
"0>+P~RQPCCCCCCCSYW~^~!^^YCCVxk62-60wbCBBCCCCCCCCCCCD^~HCCCCC##00",
"08=k!~Q!RGZCCCGYT^!E~~!!TSCNkg<ahp0hCCCCCCCCCCCCCCY~^ICCCCCC#O&,",
"c00$bY~!~~~~~!WWWWUWWE!IFxgqq60hcM-NCCCCCAFSACCAKE~!!ACCCCCC:.&<",
"C900%o%<30ijxdw6<:&%@OooO#=10tsMVb,CCCCSW^^~~^~~~ET!UCCCCCCC9 <z",
"Cn&180;%%,380000000000wu00lxlbCCC41CCCGWW~~~~//^~!~^FCCCCCCC3.VC",
"CVxVBf00000000gr000wVVNb00lMMckdt OVCFEP!~!EW!!!!!~~DCCCCCCC-NCC"
};
