/* XPM */
static char *_f48ec16fe4f4c77e67046c8b8f67b07usNuN1YJxoV58e5y[] = {
/* columns rows colors chars-per-pixel */
"64 64 181 2 ",
"   c #4A2723",
".  c #4C2823",
"X  c #532A26",
"o  c #5B2B25",
"O  c #572C28",
"+  c #5D2E29",
"@  c #5E302A",
"#  c #632C25",
"$  c #6C2C25",
"%  c #622F29",
"&  c #6A2F29",
"*  c #732D26",
"=  c #7B2E26",
"-  c #742F28",
";  c #7B2F28",
":  c #62332D",
">  c #6C312A",
",  c #7A3127",
"<  c #73312A",
"1  c #7C332A",
"2  c #77382D",
"3  c #7D3A2D",
"4  c #653731",
"5  c #663832",
"6  c #6A3B35",
"7  c #773730",
"8  c #723B35",
"9  c #7B3D35",
"0  c #91261D",
"q  c #9E261D",
"w  c #9E291F",
"e  c #A1261C",
"r  c #AD261C",
"t  c #A72B1F",
"y  c #AD2A1F",
"u  c #B12217",
"i  c #B52419",
"p  c #BB261B",
"a  c #B42A1D",
"s  c #BE291C",
"d  c #842D25",
"f  c #8A2D25",
"g  c #932C23",
"h  c #9B2B22",
"j  c #823127",
"k  c #8C3027",
"l  c #843229",
"z  c #8B3229",
"x  c #833A2D",
"c  c #8C3B2D",
"v  c #933026",
"b  c #993127",
"n  c #933329",
"m  c #9A3329",
"M  c #943C2E",
"N  c #9C3C2E",
"B  c #853C31",
"V  c #9D3D32",
"C  c #A62E23",
"Z  c #B32D21",
"A  c #A43227",
"S  c #AE3227",
"D  c #A43529",
"F  c #AD3428",
"G  c #A33C2E",
"H  c #AC3C2C",
"J  c #B43427",
"K  c #BD3123",
"L  c #B33528",
"P  c #BB3528",
"I  c #B33D2D",
"U  c #BD3B2B",
"Y  c #C51604",
"T  c #C32A1D",
"R  c #CA2C1F",
"E  c #D02B15",
"W  c #DE2E1E",
"Q  c #D3381E",
"!  c #C42E21",
"~  c #CD2E21",
"^  c #D12F21",
"/  c #C33323",
"(  c #CC3424",
")  c #C33A26",
"_  c #CB3927",
"`  c #C43628",
"'  c #CB3728",
"]  c #C63C2A",
"[  c #CC3D29",
"{  c #D43223",
"}  c #DB3425",
"|  c #D33A27",
" . c #D43728",
".. c #DB3728",
"X. c #D43C29",
"o. c #DB3A29",
"O. c #E23626",
"+. c #E43728",
"@. c #E43A29",
"#. c #E83A28",
"$. c #8B4431",
"%. c #944432",
"&. c #9D4331",
"*. c #994A36",
"=. c #AB412F",
"-. c #BA402F",
";. c #A24432",
":. c #AD4431",
">. c #A44934",
",. c #AC4A34",
"<. c #AF4F38",
"1. c #B74632",
"2. c #B34B35",
"3. c #BC4D36",
"4. c #B34F38",
"5. c #B2533A",
"6. c #BC5038",
"7. c #C3412D",
"8. c #CC442D",
"9. c #CE482F",
"0. c #D4432D",
"q. c #DB432D",
"w. c #D4482F",
"e. c #C54732",
"r. c #C94431",
"t. c #C44C34",
"y. c #CC4C32",
"u. c #D44C32",
"i. c #DB4B33",
"p. c #DC4C33",
"a. c #C3543A",
"s. c #CC5439",
"d. c #D65236",
"f. c #DB5236",
"g. c #D55639",
"h. c #DA5639",
"j. c #DC5539",
"k. c #D75B3C",
"l. c #DD5839",
"z. c #DC5C3C",
"x. c #DE5D3C",
"c. c #E3432E",
"v. c #E8432E",
"b. c #E9452F",
"n. c #E34630",
"m. c #E94630",
"M. c #E14932",
"N. c #E34C34",
"B. c #E24D34",
"V. c #E74E35",
"C. c #E94932",
"Z. c #E94C33",
"A. c #E94D34",
"S. c #E55136",
"D. c #E95136",
"F. c #E95237",
"G. c #E45639",
"H. c #E95539",
"J. c #E35B39",
"K. c #E55A3A",
"L. c #E45B3C",
"P. c #E25F3D",
"I. c #EA593A",
"U. c #EA5C3C",
"Y. c #EA5D3D",
"T. c #D6603E",
"R. c #DD613F",
"E. c #E1633F",
"W. c #E6633F",
"Q. c #EA623F",
"!. c #DB6542",
"~. c #DE6A44",
"^. c #E76340",
"/. c #E56641",
"(. c #EA6541",
"). c #E46B44",
"_. c #E76B44",
"`. c #E86B45",
"'. c #EA6B45",
"]. c #E67148",
"[. c #EA7148",
/* pixels */
"% + % + + % K T R T T { #.#.T i p s T T T T p T J ` l % % & + + + + i # . X 6 6 6 5 5 5 6 6 6 6 6 6 5 5 4 5 5 5 : < ....} & + % ",
"+ % + + + c T R O.z * = d C p T O.#.} { #.R s { #.#.#.#.T p p f & q s s X . + : 6 6 6 6 6 6 6 5 4 : : @ : 5 6 5 4 + O.! s & + % ",
"+ % + + B P.l.#.X + + + + & f s ^ #...L z 1 & + & 1 m P  .#.} { s s u.9._ o . X + : : 5 5 : + + + + + + + + 6 5 : + ..{ T & + + ",
"X + % o s h.`.U.X X + + + + * { { L + + + + : @ + + + + + > L M.U.W.K.9.q.#.n X . X + + + + + X X X . X O + 5 5 + +  .#.T = O . ",
"o . . # s ^ T P.(.&.& o X + % ' (.<.+ + @ 4 6 6 6 5 4 : @ + + + ,.^.`.0.w.R #.b.N & o X X X X .   . . . . X : 4 + + ` #.} C o = ",
"# X $ f T O.s { C.Z.I.I.7.M # F U.].c + + 4 6 6 6 5 5 6 5 5 5 : + 3 B.O.I./.u.p.W.0.X.K...' F & .   . . . . + 4 + + U A.{ ^ L D ",
"w = * T { D l > > l F i.I.Q.J.J.q.K.).H + + : 4 5 6 5 5 5 5 5 5 4 + > h.D.H.(.E.d.~ ~ X.{ #.X.U.z.>.    . . X 5 : + 1.V.{ { #.^ ",
"p i p T D + + + + + + + n ..} E Y Q W.(.z.> + + : 5 5 6 6 6 6 5 5 : + + G M.U.A. .8...} O.~ s #.R ~ (   .   X 5 : + G c.T } +.R ",
"i s s R % + : : @ + + : + + n { O.W #.#.Q.L.1 + + @ 5 5 6 6 6 6 6 5 + + + + H z.(.).`.z.p.s { < % K T :.    . 4 : + +  .s ~ { ^ ",
"s u { ( + @ 4 5 + + 4 5 @ + + + C ..#.#.#.U.B.1 + + @ 5 5 6 6 6 6 6 : + + + + + m l.(./ u./ L % % < } (     . 4 : + + ` T s T { ",
"i s { n + 4 5 5 4 + 5 4 5 + @ + + N ( _ O.#.H.V.1 + + : 5 6 6 6 6 6 5 : + + + + + + G z.k.M.L & 1 < C @.c   . 4 4 + + a [ 0.R } ",
"T s ( + @ 6 6 6 5 @ 5 5 5 @ 5 + + + G z._ #.b.(.B.< + + 4 5 6 6 6 6 5 5 : + + + + + + + I L.i.1 & l < v.s.  . 5 4 + + Z z.g.K T ",
"} ^ L + 4 6 5 6 5 + 4 5 : + : + + + + 5.X.~ #.#.C.f.+ + : 5 6 6 6 6 6 6 6 : + + + + + + + z p.I & + > ' J.  . 5 : + + z P.d...p ",
"#.#.% + 5 6 6 6 5 + + + + + @ + + + + + !.g.f.{ #.D.D + + 4 6 5 6 6 6 6 6 5 : + + + + + + + + 2.' < + m I.& . + + + + ;.W.f.C.s ",
"#. .+ + 5 6 6 6 4 + + + 4 5 5 4 @ + + + > M.i.T R #.n.+ + : 5 6 6 6 6 6 6 5 : + + + + + + + + + t.O.+ % H.2.. X + + + *.H.C.I.s ",
"#.j + + 5 6 6 5 : + + 4 6 5 5 6 4 + + + + l n.V.T #.C.A + + 5 6 6 6 6 5 5 : + + + + : : + + + + %.#.% + #./.% . . X X ~.C.c.i.s ",
"z + + @ 6 6 6 4 + + + 6 6 6 6 6 6 : + + + + H (./ { { r + + 4 5 6 6 5 @ + + + + + + 5 5 5 : + + j ^ < + < #.B.G $ $ u.J.} u.[ T ",
"+ + @ 6 6 6 5 @ + + : 6 6 6 5 5 6 6 @ + + + + j.D.T { T % + @ 5 5 5 @ + + + + + + + 5 6 5 6 + + * T < % + D #.U.Q.U.c.) ) u.[ T ",
"+ : 6 6 6 6 + + + + @ 5 6 5 5 6 6 6 5 @ + + + n w.s { O.F + + : 4 @ + + + + + + + + 5 6 6 6 4 + % O.1 & + % < z ' #.#.L. .L.X.+ ",
"4 6 6 6 6 4 + + + + + 4 5 6 5 6 5 6 6 5 4 @ + + a T ~ ~ / + + + + + + + + X X X O + @ 6 6 6 6 + > #.& % + % + l < r.I.Q.P.4.+ + ",
"6 6 6 6 6 : + + + + + + : 5 5 6 5 5 6 6 6 5 @ + h T T T R % + + + + + X . .       X + 5 6 6 6 + 2 #.& % + % + % 1 =.H./.>.+ + : ",
"5 6 6 5 5 : + + + + + + + + @ : 4 5 5 6 6 5 5 + d O.T T { F + + + O X ; n 1 X .     X + 6 6 6 + c } j + % + + 1 i.f./.N + + 5 6 ",
"6 6 5 5 5 @ + + + + + + + + + + + + : 6 6 5 5 + - } T { O.T = + X b  ...9.g.7.g .   . O + 5 5 + ;.^ A & < n S E.E.R.l + : 5 6 6 ",
"6 6 5 4 + + + + X . . . X O + + + + + : 6 5 4 + - T } 1 D s #.` ! a ~ T ) ( K.(  .    . + + + + 3.0.W.p.#.#.u.i._ < + : 5 5 6 5 ",
"5 6 4 + + O .       # $ # X . . X + + + @ 4 + + z s P + % p { / * % % / u i =.] #.A   . . + X . 0.z.`./.p./.E.0.D + @ 6 6 6 5 5 ",
"5 : + + X .   . g r a T } O...` = X O + + + + + h T L % % < = % + + % e ~ $ > M T ... . .   . f { p.I.G._ c./.[.2 + 5 6 6 6 6 6 ",
"+ + O .     # r O.o.( 9./ ^ { } #...P z > > l F T O.m < + + % + % d y p R & % + f { A X X d y s T { #.v.T #.H.Q.< + 4 6 6 6 6 5 ",
"X . . .   o ~ #.#.(.:.t.W.! s p i T #.#.^ #.#.#.#.#.> & + + & = Z ^ #.#.#.' & + + F #.} { } +.T T #.} s i } H.(.M + + : 5 4 : @ ",
". . .   o ! #.A.g.2 1 < G i./ T ( B.{ T R T #.' m % + X . # T T ~ L l x 3.@.P + + + > % & < ` O.R } O.u.G.v.(.Q.s.X O + + + + + ",
". . . $ ~ H.`.2.% + + + - s i { I.`.o.} ..% + o o # * H O.}  .n + @ @ + + x n.o + + + + % 1 ` O.^ ^ #.#.U.(.H.U.I.& . . X O X . ",
"X o f T D.g.j + % + + % f T ~ #.Q.D.Q.A.A . X $ * I A.H...l : 4 5 5 5 : + + -.k + + + % < P } ~ / m l D 8.U.H.m.b.q.          . ",
"i i i { a.> + > + % ; x s ..z  .U.I.m.(.0.N M t.(.H.f.n @ 4 4 4 6 6 6 5 : + c @.X + & O.{ ! g % + + + + + 1 G.A.{ O.0 o     O # ",
"i T #.j.: : : : + X %.E.~ > + + % F ..p.G.Z.V.@.' z + : 4 4 5 6 6 6 6 5 4 + 2.v.X + O.T h + + + + + + + + + I U.T p T M.i./.g.} ",
"B.#.#.x : 4 : % X o (.g.& + + + + + + < l z < + + + 4 5 5 5 5 6 6 6 6 5 : + l.#.. +  .T & + + + : : + + + + f I.T u G.`.H.U./.#.",
"A.m % @ 5 : % + . 2.u.H + @ @ : @ + + + + + + + + 4 5 5 5 6 6 6 5 6 5 5 @ j +.$ . % T T + + @ 5 6 5 @ + + + k G.s T t.H N :./ T ",
"` < 4 6 5 % % O . R.u.z + 4 5 6 5 5 @ + + + + + + 5 5 5 6 6 6 4 5 6 5 @ +  .#.X   * p ' + + @ 5 5 : + + + O -.H. .M 9 8 6 B g T ",
"D : 6 6 6 % + X X E.#.1 + 5 6 6 6 5 6 6 4 : + + + : 5 5 4 : + + + : + + m #.~ T h s R n + + + : + + + + + . k.I.G 9 6 : : : l ^ ",
"z : 8 6 6 + + X o 0.#.> + 4 6 6 6 6 6 6 6 5 + + + + + + + + + + + + X d i i s ~ M.R ..+ + + + + + + + X . :.#.U.8 6 @ + + + < O.",
"D % : 5 : % + & > 0.#.& + @ 6 6 6 6 6 6 6 4 + + : 5 4 + + + + + + . b a T { G.`.Q.v.j + + + + + + X   # T.X.#.V 4 : + + + + > O.",
"7.o % % + + X $.c p O.z + + : 6 5 5 5 6 4 + + 4 6 5 6 : + + + + X H n % T O.Q.D.!.c + + + + + + .   x R.E.{ n : % + + + + + > T ",
"i.o X o # 3 : > i s R L X + + : 5 5 5 4 + + + 5 5 5 : + + + O % h.< % S p i.U.#.M + : @ + + X .   $.E.0.V.* f X . . . . X + - { ",
"( I X . o $.s.T T T R ... X + + : : @ + + + + @ @ + + + + . 3 L.3 + Z T X.(...< + : 5 5 + X .   3 W.E.o.` & = X X > o 3 o + f #.",
"i G.U.D.Q.Q.d.g % * } #.f   . X + + + + + + + + + + O .   c K.D 1 t p o.^.H + + : 5 5 4 + .   % G.U.f.^ { 3.5.:.s.' t.:.o X d R ",
"u 0.G.X.z.Q.u.d X + d }  .    . . . . X X X X + + X .   3 p.m j f.J.L.K.c + 4 5 6 6 5 @ + .   s.I.H.`.9.s u.`.Q.G.R f.z.t.%  .T ",
"u i.G.q.[ l.i.b.* o * r } -               . . . . .   x #.% % U.G.h.O.f + : 5 5 6 6 : + +     l.(.(.(._ s J.~.;.O n } T n.k.v./ ",
"u q.D.K.Z - H i.m.j X $ T ...     .             .   o O.#.o X.Q.W.i.L X + 4 5 5 6 4 + + +   o O.= < 0.T M.E.% X + + > { R m.#.U.",
"u B.r.< + + O . D K.3 O T.H.P f = $ o X           > a.z # 0.U.x >.P.$ X + : 4 4 : + + + .   $ } % % z #.c.# + + + + + z ~ } m.U.",
"/ g.2 + + + + O . H K.g.J.U.#.#.#.m.A.#.V.z.[  . .g.x @ 0.a.> + 3 J.x . O + + + + + + X     k ! = + % #.v + + + + + + % | 0.S.I.",
"i.>.% + + + + + X . g.( L.e.P #.A.H.v.Q.(.).u.T ^ & % f.k.% & + + Z u.# . . X X X . .     . C h & + z p.X O + 4 5 5 @ + u._ V.U.",
"9.l + + + + + + + . , u.J.a.l F A.3 2 J T T R #.O.#.C.U.:.% % + % ` ~ ~ v       . .     . $ ! j + < f.N X + : 5 6 5 4 + l. .( Q.",
"0.3 + + + + + + + O   %.0.#.#.#.#.B.!.b.#.#.c.K.W.W.m.#.#.> + + % & ` ( ~ #.a / J g - k L s S + + ) g.X X + 5 6 6 6 5 + L.{ S.Q.",
"l.2 @ : @ + + + + +     , r.f.o.O.O.c.P.d.( R ~ T 0.[ 0.~ s C + + % > > 2.h.y.K R } ..} C & + + g j.H . X + 5 6 6 5 5 + G.{ U.K.",
"g.< + 5 : + + + + + . . .   . . . .       . X X # $ * c H a i J + + + + + & [ k.s  .% + + + + l T l.X . + @ 5 6 6 5 4 % } { U.G.",
"y.> @ 5 5 + + + + + O     . . .   . . X O + + + + + + .   . h } % + + + + # ^ k.]  .& % % % n { u.x . X + : 5 6 6 5 : > ~ O.I.K.",
"i.> : 6 6 + + + + + + + X . X + + + + + + + + + + + + + X . X } # X X X # 7.k./.u.R ( F F #.B.g.3 . X + + 4 5 6 6 5 + z T #.G.U.",
"B.> : 6 6 : + + + + + + + + + + + + + + + + + + + + + + + . . s y $ o = I.8.u.u.X.n.{ { ( t.%.. . X + + + 4 5 6 5 : + L T O.D.Q.",
"D.2 @ 6 6 6 + + + + + + + + + + + + @ : 4 : @ + + + + + + . # O.u.t.M.} E.R ! 7.,.x # . . .   . X + + + @ 5 6 6 : + + P ~ } D.U.",
"f.< : 6 5 5 4 + + + + + + + + + + 4 5 4 5 6 6 5 + + + + + . = #.A.b...( } k X X X . . . X X + + + + + + 4 6 6 6 + % D ' } ^ #.U.",
"c.2 @ 5 6 5 5 : + + + + + + + @ 5 5 6 6 6 6 6 6 4 + + + . . L #.#.#._ l.< + + + + + + + + + + + + + + : 6 6 6 5 + + n #.} ~ #.p.",
"{ c + 4 5 6 5 5 5 : @ + + + : 4 5 6 6 5 6 6 5 5 5 @ + + . # O.L o v h.G + + + + + + + + + + + + + + 4 6 6 6 6 4 + n L O.{ { v.p.",
"l P < + 5 5 6 5 6 6 6 6 6 5 5 5 5 5 4 5 5 5 5 5 7 1 l f b O...X X > ] % + + + + + @ : @ @ + + @ : 5 6 6 5 6 6 : + j ..O.{ { #.T ",
"+ #. .< + : > > : > 4 5 5 : : + + + > < > : < L } #.#.#.#.S # + + < T + + + + @ 5 6 6 6 6 6 6 6 6 5 5 6 5 6 6 : + F  . .{ } #.k ",
"+ & #. .;.&.2.;.N H 1 > 1 D D h b H U k.6.3.U y ~ #.* X . X + + + j T + + + : 5 5 6 6 6 6 6 6 6 6 5 6 6 6 5 5 : + L ` ..} O.% + ",
"+ % j % % D { c.c.#.{ T s O.A  .~ ( T s % % & 1 #.#.j + + + + + + < } % + : 5 4 6 6 5 5 5 5 5 5 5 5 6 6 5 6 6 : + m F ' #.% + + "
};
