/* XPM */
static char *_b9008af3d4c42dabc26f94c151d510eE3MEkKNfxMbEaA5F[] = {
/* columns rows colors chars-per-pixel */
"64 64 234 2 ",
"   c #130C0A",
".  c #120E0E",
"X  c #1D0E0B",
"o  c #1A110E",
"O  c #240E0B",
"+  c #23110E",
"@  c #2C110D",
"#  c #34120E",
"$  c #2C1512",
"%  c #271915",
"&  c #371814",
"*  c #341A16",
"=  c #3B1E1A",
"-  c #25201D",
";  c #35231C",
":  c #3C211C",
">  c #3B2A1E",
",  c #3B2A25",
"<  c #3C3532",
"1  c #47120D",
"2  c #56140E",
"3  c #431A15",
"4  c #441A14",
"5  c #4B1C14",
"6  c #531C15",
"7  c #5A1C15",
"8  c #6F1D15",
"9  c #43221D",
"0  c #4B221B",
"q  c #54251D",
"w  c #5A231A",
"e  c #53301F",
"r  c #68251C",
"t  c #77271C",
"y  c #4B2723",
"u  c #442824",
"i  c #4C2923",
"p  c #532A25",
"a  c #542A24",
"s  c #5B2A24",
"d  c #5D2E29",
"f  c #483527",
"g  c #583627",
"h  c #5E302A",
"j  c #543C2A",
"k  c #493A34",
"l  c #503D37",
"z  c #632C25",
"x  c #6D2C25",
"c  c #632F29",
"v  c #6A2F29",
"b  c #742C22",
"n  c #7A2D23",
"m  c #752F28",
"M  c #62332D",
"N  c #6C322A",
"B  c #73322A",
"V  c #7B332A",
"C  c #7B362A",
"Z  c #653731",
"A  c #6A3730",
"S  c #663832",
"D  c #6A3B35",
"F  c #763B34",
"G  c #59452D",
"H  c #584636",
"J  c #67452D",
"K  c #664A33",
"L  c #784736",
"P  c #6B5538",
"I  c #785739",
"U  c #574C43",
"Y  c #6E4B44",
"T  c #695448",
"R  c #7B6452",
"E  c #79706F",
"W  c #892419",
"Q  c #99261C",
"!  c #AA281C",
"~  c #B2271B",
"^  c #B52419",
"/  c #BB261B",
"(  c #BE281C",
")  c #842E24",
"_  c #892D24",
"`  c #962C22",
"'  c #8C3126",
"]  c #843229",
"[  c #8B3229",
"{  c #89392B",
"}  c #923329",
"|  c #98382A",
" . c #833D33",
".. c #9D3D32",
"X. c #A62E23",
"o. c #B52E21",
"O. c #A83326",
"+. c #A43529",
"@. c #AD3428",
"#. c #A33B2C",
"$. c #AB3C2C",
"%. c #B33528",
"&. c #BA3728",
"*. c #C51604",
"=. c #C32A1D",
"-. c #CA2C1F",
";. c #D6301B",
":. c #C52F21",
">. c #CD2E21",
",. c #D12F21",
"<. c #C33323",
"1. c #CC3324",
"2. c #CB3927",
"3. c #CB3728",
"4. c #C83928",
"5. c #D43223",
"6. c #DB3425",
"7. c #D43728",
"8. c #DA3728",
"9. c #D33C29",
"0. c #DB3A29",
"q. c #E23626",
"w. c #E53728",
"e. c #E43928",
"r. c #E83A28",
"t. c #8A473A",
"y. c #964533",
"u. c #825437",
"i. c #AB442D",
"p. c #A64733",
"a. c #AD4431",
"s. c #B54D34",
"d. c #B64C34",
"f. c #83613F",
"g. c #C9432E",
"h. c #D4432D",
"j. c #DB422C",
"k. c #C84732",
"l. c #C44B34",
"z. c #D64430",
"x. c #D44C32",
"c. c #DB4B33",
"v. c #C95439",
"b. c #D85437",
"n. c #D45639",
"m. c #DC553A",
"M. c #DC5C3C",
"N. c #E3432E",
"B. c #E8432E",
"V. c #E84630",
"C. c #E34D34",
"Z. c #E94D34",
"A. c #E65136",
"S. c #E35639",
"D. c #E95539",
"F. c #E35B3B",
"G. c #E95B3C",
"H. c #DA613F",
"J. c #E3623F",
"K. c #EA613F",
"L. c #864C44",
"P. c #8F5349",
"I. c #97554B",
"U. c #AD574B",
"Y. c #866642",
"T. c #936B46",
"R. c #9B764C",
"E. c #876B55",
"W. c #AE684F",
"Q. c #A3774D",
"!. c #AA7E51",
"~. c #917668",
"^. c #847B79",
"/. c #DB5644",
"(. c #D7664E",
"). c #E56642",
"_. c #EA6541",
"`. c #E96B45",
"'. c #E46D53",
"]. c #DD7769",
"[. c #E47768",
"{. c #A88454",
"}. c #B88959",
"|. c #BA945D",
" X c #928178",
".X c #B38E68",
"XX c #C58858",
"oX c #C7925E",
"OX c #CA9561",
"+X c #C49D63",
"@X c #CD9963",
"#X c #D29C65",
"$X c #E88172",
"%X c #CBA367",
"&X c #D5A66A",
"*X c #DBAA6C",
"=X c #DCB170",
"-X c #E1AF70",
";X c #E4B472",
":X c #EBBC76",
">X c #E4B879",
",X c #EEBF78",
"<X c #EFC079",
"1X c #F0C27C",
"2X c #968E8D",
"3X c #AC978C",
"4X c #B6A296",
"5X c #BAAEAC",
"6X c #C09F8B",
"7X c #C3A48E",
"8X c #C6A794",
"9X c #D0AF98",
"0X c #D7B39C",
"qX c #C5B5AE",
"wX c #D9B7A0",
"eX c #DDBAA4",
"rX c #E2BEA8",
"tX c #F1C583",
"yX c #F2C88A",
"uX c #F5CE96",
"iX c #F6D199",
"pX c #E6C3AE",
"aX c #F8D7A6",
"sX c #EACAB3",
"dX c #F0CEB9",
"fX c #F7D8B8",
"gX c #FCE0B6",
"hX c #FDE2BB",
"jX c #CACACA",
"kX c #D2C5C3",
"lX c #F6D6C1",
"zX c #F7D9C4",
"xX c #E2DFDF",
"cX c #F1F1F1",
/* pixels */
"c d c d d c o.=.-.-.=.5.r.w.=.^ / ( =.=.=.=./ =.%.4.] c c v d d d d ~ z i p D D D S S S D D D D D D S S Z S S S M B 8.8.6.v d c ",
"d c d d d { =.-.q.[ m n ) X./ =.q.r.6.5.r.-.( 5.r.r.r.w.=./ / _ v Q ( ( a i d M D D D D D D D S Z M M h M S D S Z d e.:.( v d c ",
"d c d d  .F.m.r.p d d d d v _ ( ,.r.8.%.[ V v d v V | @.X.! Q W t t } &.2.s i p d M M S S M d d d d d d d d D S M d 8.5.=.v d d ",
"p d c d ( m.`.G.p p d d d d B 5.5.%.d d d d M h d 9 * u G I T.R.Q.R.Y.J g #.} p i p d d d d d p p p i p p d S S d d 7.w.=.n p i ",
"s i i z ( ,.=.F._.y.v s p d c 3._.s.d d h S D g ; K |.,X<X<X<X,X,X,X<X<X&XP J x...z s p p p p i y i i i i p M Z d d 4.w.6.X.s n ",
"z a x _ =.q.( 5.V.Z.G.G.g.{ z @.G.`.{ d d S u , }.,X<X<X,X,X<X<X<X<X<X<X<X<X{.G s.h.9.F.8.3.@.v i y i i i i d Z d d &.Z.5.,.%.+.",
"Q n m =.5.+.] N N ] @.c.G.K.F.F.j.F.`.$.d 9 > :X<X,X,X<X<X<X<X<X<X<X<X<X<X<X,X+XG W >.9.5.r.9.G.M.p.y y i i p S M d s.C.5.5.r.,.",
"/ ^ / =.+.d d d d d d d } 8.6.;.*.5.J._.M.$ %X<X<X<X<X<X<X<X,X,X<X<X<X1XtX<X<X<X,Xg Q 6.q.>.( r.-.>.1.y i y p S M d #.N.=.6.w.-.",
"^ ( ( -.c d M M h d d M d d } 5.q.6.r.r.a.J <X<X<X<X<X<X<X<X<X<X,X,XtXfXgX1XuXtXaX*Xg s.c.( 5.B c o.=.a.y y i Z M d d 5.( >.5.,.",
"( ^ 5.1.d h Z S d d Z S h d d d X.0.r.r.8 !.<X<X{.{.|.<X<X<X,X<X,X,X,XiXhXhXfXhXaX<X|.5 x.<.%.c c B 6.1.y y i Z M d d <.=.( -.5.",
"^ ( 5.} d Z S S Z d S Z S d h d d | 3.2.e ,X<X<X|.{.Y.P %X<X<X,X,X<X<X,XaXhXhXhXaX<X,XI | C.%.v V V X.e.{ y i Z Z d d ~ 2.h.-.6.",
"=.( 1.d h D D D S h S S S h S d d d #.s.K <X<X<X<X,X,X|.I %X<X<X<X,X,X,X,XiXiXfXaX<X<X|.e F.c.V v ] V B.v.y i S Z d d o.M.n.o.=.",
"6.,.%.d Z D S D S d Z S M d M d d d d L R.<X<X%X|.;X,X,X%X=X<X<X<X<X<X,X<X<XiXhXiX<X<X,Xu [ c.$.v d N 3.F.y i S M d d [ F.b.8./ ",
"r.w.c d S D D D S d d d d d h d d d d f %X<XR H L G T.,X<X,X<X<X<X<X<X,X,X<X<XgXtX,X<X<XG p d s.3.B d | G.z i d d d d p.J.b.V.( ",
"r.7.d d S D D D Z d d d Z S S Z h d d ; :XT.R 0X0X0XT R.<X,X<X<X<X,X<X<X,X<X<XyXaX,X<X<XP y d d l.e.d c D.a.i p d d d y.D.V.G.( ",
"r.] d d S D D S M d d Z D S S D Z d p u <XG 7XwX0X0X8XG ;X<X:X@X<X,X<X<X,X<X<X<XyX:X<X;XI = d d y.r.c d r.).z i i p p ).V.N.c.( ",
"[ d d h D D D Z d d d D D D D D D M y j <XG rXzXdXeXwXY |.<X{.{.;X<X:X<X,X,X<XyXuX,X<X-Xf.= d d ] ,.B d B r.C.#.x x x.F.6.x.2.=.",
"d d h D D D S h d d M D D D S S D D y G ,XG sXzXdXpXwXE.R.<XY.Q.*X<X:X,X,X,X<X<XtX,X<X&XT.: d d B =.V c d +.r.G.K.G.N.4.<.x.2.=.",
"d M D D D D d d d d h S D S S D D D p j ,XG fX9X7XdXeX XI <XY.R.*X<X,X,X,X<X<X<X,X,X<X#XR.* Z d c q.V v d c B [ 4.r.r.F.7.F.9.d ",
"Z D D D D Z d d d d d Z S D S D S D p > *XH zX- - dXeX6XG <XY.T.&X<X,X,X<X<X<X<X,X,X<X@XQ.= D d N r.v c d c d ] B g.G.K.F.s.d d ",
"D D D D D M d d d d d d M S S D S S D * % , sX. o fXeX8Xj <XI T.#X<X,X,X<X<X<X<X,X,X,XOXR.: D d C r.v c d c d c V i.D.).p.d d M ",
"S D D S S M d d d d d d d d h M Z S S D l 3XzXU < lXrX8Xj ;XP T.@X<X,X,X,X<X<X<X:X,X*XOXT.: D d { 6.] d c d d V c.b.)...d d S D ",
"D D S S S h d d d d d d d d d d d d M D k 8XzXzXlXlXrX8XH *XP T.OX<X,X,X<X<X,X<X,X:X@XOXY.: S d p.,.+.v V } O.J.J.H.] d M S D D ",
"D D S Z d d d d p i i i p p d d d d d M u 3XzXzXlXlXpX8XH &XY.!.OX;X,X:X<X<X<X:X&XOXOXOXI = d d s.h.i.c.w.r.x.c.2.B d M S S D S ",
"S D Z d d p i y y y z x z a i i p d d d 9 R zXzXlXlXsX7XH #X@XOX}.oX@X#X#X@XQ.u.L R.OXQ.j % p i +.0 w ).c.).J.h.+.d h D D D S S ",
"S M d d p i y i ` ! ~ =.6.e.8.4.n p p d y , dXzXlXlXlXwXk U H f % j Y.}.}.J q t  .z f E.%   , u T 6 i.S.2.N._.`.C d S D D D D D ",
"d d p i y y z ~ q.0.1.k.<.>.5.6.r.8.&.[ N * 3XzXzXzXzXeX7X4X XT T Y.I g C &.z.z.m.[.U., xXcXcXcX^.t r.B.=.r.D.K.B d Z D D D D S ",
"p i i i y s >.r.r._.a.l.J.:.( / ^ =.r.r.,.o.s 8XzXzXzXsXwX8XH >XaXiX;X@Xr | n 6 &.z.'.U.T cXjXE L.r.6.( ^ 6.D._...d d M S Z M h ",
"i i i y s :.r.Z.n.C V V #.c.<.=.1.C.5.=.-.=.o.M < H T H f f K fXhXgX1X&XQ.K XXj # O.x.[.A 2Xl W -.6.q.x.S.B._.K.v.p p d d d d d ",
"i i i x >.D.`.s.c d d d m ( ^ 5.G.`.0.6.8.c d y u +X+X&X:XR.j hXaXtX<X&X}.G OX@Xs 5 +.(.(.0 4.q.,.,.r.r.G._.D.G.G.z i i p p p i ",
"a s _ =.D.n.] d c d d c _ =.>.r.K.D.K.Z.O.i a 0 P <XtXyX<X%XH <X<X,X,X@X{.K @XOXi t 4 z.[.A Q >.<.| ] +.g.G.D.V.B.j.y y y y y i ",
"^ ^ ^ 5.v.N d N d c V ] ( 8.[ 7.G.G.V._.h.| ..{ I <XaXfXyX,Xf ;X<X<X*XOXI Y.OXOXi ) # _ m.W.0 c d d d d d V S.Z.5.w.Q s y y p z ",
"^ =.w.m.M M M M d p y.J.>.N d d c @.8.c.S.Z.C.3.q ,XiXfXfXtXY.H ,X*XOX}.G }.OXoX9 n 5 5 ' '.a y d d d d d d &.G.=./ =.C.c.).n.6.",
"C.r.r.{ M Z M c p s _.n.v d d d d d d B ] [ V d % }.;XyXaXyX|.> K }.}.; K @XOXQ.5 n r # b /.P.3 M M d d d d _ G.=.^ S.`.D.G.).r.",
"Z.| c h S M c d i s.x.$.d h h M h d d d d d d d 9 j oXOX*X;X{.P R < , % !.@XOXJ * n b @ r $.'.$ D S h d d d ' S.( =.l.$...a.<.=.",
"4.B Z D S c c p i H.x.[ d Z S D S S h d d d d d d , j }.oX@X}.P qX2XE , !.OXoX; 4 n b * w ' z.r u M d d d p a.D.7.} F F D  .` =.",
"+.M D D D c d p p J.r.V d S D D D S D D Z M d d d M ; K oX;X+XP kX4XE f !.OXXX4 6 b b 6 6 n z.U.$ d d d d i M.G.#.F D M M M ] ,.",
"[ M F D S d d p s h.r.N d Z D D D D D D D S d d d d d , ;X<X&XH kX5XE f Q.OXL 8 7 b b r 4 n g.(.y y d p i a.r.G.F D h d d d B q.",
"+.c M S M c d v N h.r.v d h D D D D D D D Z d d M S Z ; ;X<X*XH kXqX^.g T.XXs /.6 b b b @ n $./.I.* y z H.9.r...Z M d d d d N q.",
"g.d c c d d p t.{ / q.[ d d M D S S S D Z d d Z D S S * {.#XOXk kX5X^., { { { D.6 b b b # t | z.].= B H.J.5.} M c d d d d d N =.",
"c.s a s z C M N ^ ( -.%.p d d M S S S Z d d d S S S M : , Q.T.< qX5X^.M 2 q F.w.5 b b b 4 t ' z.[.t.n h.C.m _ p i i i i p d m 5.",
"1.$.a i s t.v.=.=.=.-.8.i p d d M M h d d d d h h d d d $   3 p 3X2X X) @ n.0.B 5 r b b 6 r b g.'.[.q <.4.z n a p N d C s d _ r.",
"^ S.G.D.K.K.b.` c m 6.r._ y i p d d d d d d d d d d p i X B C X % l f 6 @ n d d 6 r b b r 6 b | z.[.t.8 5.s.s.a.v.3.l.a.s p ) -.",
"^ h.S.9.M.K.x.) p d ) 6.7.y y i i i i p p p p d d p i $ y I.q   E.7X0X.X+ + Z S w w b b n 1 b ) z./.[.5 ! x.`.K.S.-.b.M.l.z 7.=.",
"^ c.S.j.4.m.c.B.m s m ! 6.m y y y y y y y y y i i i y $ L.L.$ R zXdXeX0X~.X 9 S r 6 b b n 6 r b g./.$Xt.7 F.).p.p } 6.=.V.M.B.<.",
"^ j.D.F.o.m $.c.V.] p x =.8.i y y i y y y y y y i y = p I.B $ 7XzXzXzXeX9X* @ g t 4 b b b t 7 b +.z.[.[.6 i.z p d d N 5.-.V.w.G.",
"^ C.k.B d d p i +.F.C p H.D.&._ n x s a y y y y y N 0 L.t.q $ ~.zXzXzXeX0X$ s $ b 4 b b b w 4 b ' /.[.].{ 4 i d d d d [ >.6.V.G.",
"<.n.C d d d d p i $.F.n.F.G.r.r.r.V.Z.r.C.M.4.7.7.| u I.V 0 3 % pXzXpXwXT * 9 * * 7 b r r r @ n n a.].(.V 4 9 d d d d c 9.h.A.G.",
"c.p.c d d d d d p i n.1.F.k.&.r.Z.D.B.K._.`.x.=.,.* L.t.V s : + + L.K f * B 9 : O   * # 4 6 # b n ' | ) w $ d M S S h d x.3.C.G.",
"k.] d d d d d d d i V x.F.v.] @.Z.C C %.=.=.-.r.! y I.V V i $ * y t 1 i P.V z : = X u y i s 2 w n n n r + p M S D S Z d m.7.1.K.",
"h.C d d d d d d d p y y.h.r.r.r.r.C.(.B.w.r.N.F.0 Y F V z * + p c v &.2 L P.V i = * $ _ %.( t 5 b b 4 + 9 d S D D D S d F.5.A.K.",
"m.C h M h d d d d d y y V k.b.0.e.e.N.i.5 W ~ Q = t.B z : @ 8 d d c N a 3 P.L.V 0 = 5 2 X.v a # t r r y p d S D D S S d S.5.G.F.",
"n.B d S M d d d d d i i i y i i i i y u   o o   q V s : $ 2 ^ %.d d d d 3 = I.t.V 0 $ X d d d # 2 l.p i d h S D D S Z c 6.5.G.S.",
"l.N h S S d d d d d p y y i i i y i i p ;   % % + q : * X y ` 6.z d d d d * w I.C q O 9 $ c } 5.x.{ i p d M S D D S M N >.q.G.F.",
"c.N M D D d d d d d d d p i p d d d d d d : o - % X $ $ u i p 6.z i p p z g.{ a s X 9 % r w.C.n.C i p d d Z S D D S d [ =.r.S.G.",
"C.N M D D M d d d d d d d d d d d d d d d d y   % ; = = d i i ( ~ x s n G.g.x.t   $ * # o.s.y.i i p d d d Z S D S M d %.=.w.A.K.",
"A.C h D S D d d d d d d d d d d d d h M Z M h y + + p d d i z q.x.l.V.5.J.-.:.w * % X : i i y i p d d d h S D D M d d &.>.6.D.G.",
"m.B M D S S Z d d d d d d d d d d Z S Z S D S S y p d d d i n r.Z.B.8.1.6.' $     + y i p p d d d d d d Z D D D d c +.3.6.,.r.G.",
"N.B h S D S S M d d d d d d d h S S D D D D D D Z d d d i i %.r.r.r.2.m.V d X $ p d d d d d d d d d d M D D D S d d } w.6.>.r.c.",
"5.{ d Z S D S S S M h d d d M Z S D D S D D D S S M d d i z e.%.s } m.#.d d d d d d d d d d d d d d Z D D D D Z d } %.e.5.5.B.c.",
"] &.B d S S D S D D D D D S S S S S Z S S S S S F V ] _ | e.8.a p N 4.c d d d d d h M h h d d h M S D D S D D M d ] 8.e.5.5.w.=.",
"d r.7.V d M N N M N Z S S M M d d d N B N M B %.6.r.r.r.w.@.z d d V =.d d d d h S D D D D D D D D S S D D D S M d @.7.7.5.6.w.' ",
"d v r.7.p.y.s.p.| $.V N V +.+.` | $.&.M.s.s.&.! >.r.m p i p d d d ] =.d d d M S S D D D D D D D D S D D D S S M d %.4.8.6.w.c d ",
"d c ] c c +.5.N.N.w.5.=.( q.+.7.>.1.=.( c c v V r.r.] d d d d d d V 6.c d M S Z D D S S S S S S S S D D S D D M d | @.3.r.c d d "
};
