/* XPM */
static char *a2d15f29c78f4d27a9fe5babc985bd39fVikUFJXcRqE7Emw[] = {
/* columns rows colors chars-per-pixel */
"64 64 229 2 ",
"   c #0B0907",
".  c #110D0B",
"X  c #1B1918",
"o  c #241C1A",
"O  c #2B1E1B",
"+  c #371E1A",
"@  c #25201E",
"#  c #2C231D",
"$  c #32221E",
"%  c #3C221E",
"&  c #2C2522",
"*  c #2C2623",
"=  c #342522",
"-  c #3E2520",
";  c #332A24",
":  c #3C2C26",
">  c #342C2A",
",  c #3A2D2A",
"<  c #38312A",
"1  c #3C322D",
"2  c #3C3532",
"3  c #3C3635",
"4  c #46211B",
"5  c #54241D",
"6  c #5A251D",
"7  c #60281F",
"8  c #412723",
"9  c #432A25",
"0  c #4C2923",
"q  c #462D29",
"w  c #492F2A",
"e  c #562C25",
"r  c #43332C",
"t  c #4B322D",
"y  c #463A2D",
"u  c #5A332C",
"i  c #433532",
"p  c #4E3531",
"a  c #443935",
"s  c #4B3C34",
"d  c #453C3A",
"f  c #4C3D3A",
"g  c #503732",
"h  c #533A35",
"j  c #5B3833",
"k  c #563D39",
"l  c #583F3A",
"z  c #622B22",
"x  c #6B2E24",
"c  c #69342B",
"v  c #743329",
"b  c #77342A",
"n  c #70352C",
"m  c #783C31",
"M  c #4D4136",
"N  c #4D423D",
"B  c #514235",
"V  c #54443C",
"C  c #5B423D",
"Z  c #5C4B38",
"A  c #644839",
"S  c #68553C",
"D  c #735A3E",
"F  c #4C4542",
"G  c #534542",
"H  c #5E4541",
"J  c #544944",
"K  c #5B4B43",
"L  c #5B4D4A",
"P  c #5E514A",
"I  c #5C5553",
"U  c #5A5857",
"Y  c #604742",
"T  c #634A45",
"R  c #664E49",
"E  c #684F4A",
"W  c #784740",
"Q  c #695747",
"!  c #63534D",
"~  c #6B524D",
"^  c #735D42",
"/  c #765D45",
"(  c #645552",
")  c #6D5651",
"_  c #665853",
"`  c #6B5A54",
"'  c #655D5C",
"]  c #705752",
"[  c #745B56",
"{  c #765D58",
"}  c #785F5A",
"|  c #7B6245",
" . c #796347",
".. c #6A605F",
"X. c #776655",
"o. c #74625D",
"O. c #7B625D",
"+. c #7E6561",
"@. c #776966",
"#. c #736F6B",
"$. c #7C7777",
"%. c #872A1E",
"&. c #8F3529",
"*. c #A43628",
"=. c #B73B2A",
"-. c #C33E2C",
";. c #854239",
":. c #B14537",
">. c #CB412E",
",. c #C94330",
"<. c #D44531",
"1. c #D84A36",
"2. c #8D5047",
"3. c #95554B",
"4. c #9C5B51",
"5. c #AF5245",
"6. c #886B4B",
"7. c #89714C",
"8. c #96734E",
"9. c #886E50",
"0. c #987853",
"q. c #9B7C52",
"w. c #A0784F",
"e. c #A46359",
"r. c #A37B53",
"t. c #A97C53",
"y. c #806762",
"u. c #836A65",
"i. c #866D69",
"p. c #886F6A",
"a. c #87756A",
"s. c #8B726D",
"d. c #8E7571",
"f. c #897A74",
"g. c #907772",
"h. c #937A75",
"j. c #977D79",
"k. c #987F7A",
"l. c #B97268",
"z. c #D85A49",
"x. c #CF6152",
"c. c #D77668",
"v. c #E37364",
"b. c #9D8056",
"n. c #A98557",
"m. c #A38358",
"M. c #B48859",
"N. c #BB8C5C",
"B. c #B9915E",
"V. c #968476",
"C. c #9A8576",
"Z. c #9B827D",
"A. c #AD926D",
"S. c #BC9762",
"D. c #A28878",
"F. c #C48E5E",
"G. c #C6915F",
"H. c #C8925F",
"J. c #C59362",
"K. c #CA9561",
"L. c #C39D65",
"P. c #CD9963",
"I. c #CD9D69",
"U. c #D19D66",
"Y. c #E88577",
"T. c #CEA067",
"R. c #CDA46A",
"E. c #D5A369",
"W. c #D5AA6D",
"Q. c #DBAD6E",
"!. c #D7AF74",
"~. c #DCB174",
"^. c #E1AF70",
"/. c #E4B573",
"(. c #E6B976",
"). c #E9BA76",
"_. c #EDBE79",
"`. c #EFC079",
"'. c #F0C27D",
"]. c #9F8581",
"[. c #978987",
"{. c #958F8E",
"}. c #998A88",
"|. c #A18783",
" X c #A48A86",
".X c #A68D88",
"XX c #A79284",
"oX c #B79C8A",
"OX c #A89A98",
"+X c #B59F90",
"@X c #B7A192",
"#X c #A7A6A6",
"$X c #B4A9A8",
"%X c #BBB5B2",
"&X c #EB8F82",
"*X c #ED958A",
"=X c #C5A997",
"-X c #CDB095",
";X c #D2B997",
":X c #D6B49E",
">X c #D8B69F",
",X c #E3BD84",
"<X c #D8B7A0",
"1X c #DBBAA3",
"2X c #D6BAA8",
"3X c #C4B8B6",
"4X c #E0BFA8",
"5X c #EDC486",
"6X c #F2C889",
"7X c #E7C99D",
"8X c #F4CE94",
"9X c #F6D29C",
"0X c #DDC3AC",
"qX c #E3C3AD",
"wX c #F7D6A6",
"eX c #F8D6A3",
"rX c #FADAAC",
"tX c #EACCB7",
"yX c #EED0BC",
"uX c #FBDEB3",
"iX c #FCE0B7",
"pX c #FDE2BC",
"aX c #D2C9C8",
"sX c #D2D0D0",
"dX c #F4D6C1",
"fX c #F7D9C4",
"gX c #FEE5C1",
"hX c gray91",
"jX c #F3F2F2",
/* pixels */
"i.p.i.p.p.i.R Y C g q w t k Y Y Y Y Y Y Y Y Y Y ~ ~ { u.+.] u.p.p.R 8 ] [ +.Z. X X X X X X X X X.X X X].Z.].|.|.s.p.p.p.Y u.p.i.",
"p.i.p.p.p.O.Y Y C { O.{ { Y w C Y Y C p t t p k Y Y Y Y C w 8 t Y - 9 8 [ { y.j. X X X X X X X XZ.h.d.s.s.]..X|.j.p.p.p.C u.p.i.",
"p.i.p.p.} h Y Y O.p.p.p.p.u.T q Y k t H ] O.y.p.u.O.[ ~ R Y Y p % % % % 9 [ } O.p.h.j.Z.Z.h.p.p.p.p.p.p.p.p.j.].g.p.p.p.g u.p.u.",
"+.i.i.y.t k Y Y { O.u.p.p.p.y.8 C Y p.p.p.p.s.L G X.9.( ( ( T f s = O O $ : a f } y.u.p.p.p.u.+.O.O.O.O.u.p.p.p.p.p.p.i.t } u.[ ",
"[ [ [ ] 8 q q w t R ] { +.u.i.h g ~ p.p.s.Z.p.N 8.7.9.9.| ^ S < Z Q S S | | | y i } { O.O.O.O.{ [ [ { { } +.p.p.p.p.p.i.w R [ ) ",
"] [ ~ T % 8 8 9 q q t H R ~ [ Y C T O.p.p.d.K -XiXgXgXgXpXiXiXiXiXuXuXpXiXiXuX5XB = - % - w C ~ } [ } } } } i.p.p.p.p.u.t q ~ [ ",
"h R { t 8 T } u.u.O.~ g h Y k h Y Y T ~ p.S A.pXiXiXuXiXpXuXrXiXpXpXpXuXuXrXuXpX;Xr C 9 9 t p 9 t H [ [ [ { +.p.p.p.p.u.q g t g ",
"9 8 t - T p.p.p.p.p.p.p.] k C t C H H H | a.pXrX8X`.`.`.rXuXiXiXpXpXiXrX8X_.`.eXiXm.y 9 g h l Y Y t t [ [ [ O.p.p.p.p.u.8 t Y Y ",
"Y 9 % 9 i.p.s.g.s.p.p.d.p.p.[ t t t p q.X.iXrX5X`.`.`.`.8XeXeXiXpXeXeX8X`.`.`.`.eXrX9.A Y Y Y u.i.T 9 k [ [ O.p.p.p.p.u.9 w Y Y ",
"Y 9 % C p.s.Z.Z.s.p.k.|.s.p.p.p.C 9 A Q 0XrX`.`.`.`.`.`.`.`.6XuXrX'.`.`.`.`.`.`._.eXrX| ^ Y ) p.i.u.Y q [ [ } p.p.p.p.u.9 p Y Y ",
"Y 8 8 } p.Z. X|.j.s.|.Z.Z.p.s.p.p.H s ;XrX_.).W._._.R.B.(.`.6XuXrX6X'.L.S._.`.Q./._.wX7XS V ) u.+.u.~ g T [ } p.p.p.p.u.8 p Y Y ",
"Y 8 t p.s. X X X].s.|. X].s.Z.p.+.N =XuX`.n.| r.K.G.m.q.| L.`.`.`.Q.7.8.0.B.E.L.7.0.).eX7Xy C +.u.O.u.C g [ } p.p.p.p.y.% g Y Y ",
"H 8 R p.k. X X X|.s.Z.|.g.p.d.p.O.2 uX`./.n.U.K.G.G.J.P.B.L./._._.R.B.K.G.F.F.H.K.m._.`.iX/ s ] u.p.u.~ w [ } p.p.p.p.+.% g Y Y ",
"l 8 i.p.Z..X.X X|.p.p.p.p.p.s.p.O.a _._.E.F.t.A s P Q q.K.N.M.(.R.n.K.F.^ Z N A 8.G.U./.rXX.( ] E u.p.{ p ) { i.p.p.p.O.% p Y Y ",
"h C p.p.]..X.X XZ.p.p.p.k.|.|.k.+.a `._.J.8.: ` oX=XXXB 6.M.8._.n.0.M.y d.oX=XV.V | H.E.8XX.( p.~ T p.i.C k { O.p.p.p.O.- p Y C ",
"Y O.p.p.|..X.X Xg.p.p.Z. X].|. Xs.M `.Q.N.> D.:X<X1X:XoX1 M.7._.m.w.S C.:X:X>X<X<X> r.P.`.| ( p.{ Y i.p.Y k ] [ } O.O.~ 8 p H h ",
"O.p.p.s. X.X XZ.p.p.p. X X X X Xd.Z `.E.r.a <XfX@XfX<X:Xd t.^ ~.| n.B -X<XtX=XqX>X` | K.`.7.! p.O.Y u.p.u.Y Y R ] ] E k 9 p Y C ",
"p.p.s. X X X|.s.p.p.s. X X X X Xd.Q `.P.n.K <XXXC.fX1X:X( 9.M.!.B.N.N :X4XfX+XZ.-Xa.6.K.`.0.P p.u.Y u.i.p.[ Y Y H g 9 t q p Y Y ",
"p.j. X.X X Xs.p.p.p.s.]. X X X Xp.^ `.J.r.Q <XfXqXfX+XD.P 2 i & ; a d oXXXfXfXdX:XC./ K.`.q._ p.i.Y y.u.p.i.u.O.~ H w q 9 C R p.",
"j. X.X X.XZ.p.p.p.p.p.j. X X X.X@.^ _.K.0.` <XfXtX=X@ 2 =X@X=X:XoXoX-XP o V.fXfX:XD.Q K.`.b._ p.i.Y u.i.p.i.p.O.u.~ t t C ] p.p.",
" X X.X X Xg.p.p.p.p.p.p.h.].|. X@.| _.K.0.` <XfXyXZ.X > 1X1X<X<X<X<X4XK X ! fXfX>XC.L K.`.m._ p.+.Y u.i.p.i.p.i.+.~ k H [ p.p.p.",
"|..X.X|. Xj.p.p.p.p.p.p.s.s.s.g.o.| `.K.q.] <XfXfXXX@ < 2XfXfXfXdXdXyXF @ o.fXfX>XC.Z P.`.m._ p.O.Y O.p.i.p.p.+.C g C [ p.p.p.p.",
" X.X X].].s.p.p.p.p.p.p.p.s.p.p.( ^ _.K.r.Q :XdXfX0X3 < 2XfXfXfXdXdXyXF > =XfXfX:Xa.S P.`.m.( p.[ Y ] u.u.O.) l g Y O.p.s.Z.s.p.",
".X X XZ.p.p.p.u.O.} } { O.u.i.p.( Q P.J.r.f =XyXfXfX2XfXyXfXfXfXfXfXfXfX2XfXfXfX:XK A P._.n.K i.~ Y Y T Y g q g H u.p.g.].Z.s.p.",
" X Xj.p.p.y.} [ [ [ ) ~ T K } } K & K T I F _ yXfXfXfXfXyXfXfXfXfXfXfXfXfXfXfXfXV.d 2 V | i a } T i = 8 w 8 C Y [ p.s..X.X].p.p.",
"].s.p.i.O.[ [ [ C w q 9 O X d f < ' #X%XsX3Xf a.dXfXfXfXtXXXh.a.V.XXtXfXfXfXfX@X' hXaX$X$X{.3 I J o # % % q Y Y y.p.]..X.X|.p.p.",
"p.p.u.{ [ [ ] 9 8 t g C C 3 #X#XsXjX#X$.U f a > a yXfXfXfXtX+XC.=XdXfXfXfXfXXXN U $.U $.#XjXjX#XOX& q % 9 9 C Y u.p.k. X.Xh.p.p.",
"O.{ [ [ [ ] - q l Y ) R Y N ..sX%XF s n.!.A.^ r , J -XqXqX<X>X:X:X1XfXfX2XL a R N | A.C.$.I $XsXI O % - - - t Y ] p.p.g.h.p.p.p.",
"{ } [ [ ) 8 q Y R y.+.y.{ Y r , : 6.wXiX8X'.P.y G.b.B J _ ! < X ; 1 G N 1 D G.S M.5XwXiXuXA.> > , t 8 8 9 - 8 C T O.y.i.p.p.p.p.",
"{ { [ ~ - 9 C ) i.p.p.p.+.t w ; S rXpXeX'._.U.Z M.`._.W.R.L.r.; n.R.W.(._./.F.s F.E.`.6XiXiX9.= p C Y Y l t % w H ] { { +.y.+.} ",
"[ [ T 8 8 T O.p.i.p.p.i.) - 8 o ,XiX9X`.`.W.B.y K.`.'.'._._.K.; M./.`.`.`.`.G.A 6.K.Q.`.`.rX8X; G { O.[ ~ Y q - t T [ [ [ [ [ [ ",
"w 9 - 8 E u.p.s.p.i.{ [ w k [ & ).6X`.).E.T.S 8.E._.wXuX8X_.G.; n./._.5X_._.E.M.Z n.K./.`.'.`.V ` p.p.p.p.y.k q w w H { [ [ [ ] ",
"8 8 9 H i.s.j.d.p.O.T w T u.p.1 T.`.^.P.K.Z 7.K._.eXpXiXuX_.N.< r.)._.8X9X5X).K.M.Z N.K._.`._.2 u.p.p.p.p.p.~ w t w 9 8 - % % % ",
"H C C O.g.Z.d.i.+.) 9 Y u.p.p.L B P.K.J.| 1 / E.`.9XeXeX9X_.N.< r._.'.9XrXrX`.Q.r.y r N.G./.7.d h.j.p.p.p.i.] t g Y Y C k p t p ",
"Y { i.s. Xg.i.p.{ k t E p.s.s.{ & Q J.0.3 ( 1 U.).`.(.`.'._.N.< r.`.`.6X,X_._.`.Z a a B I.8.: P  X|.s.p.p.i.~ p h Y ~ { +.[ Y Y ",
"~ u.k. X Xi.i.y.{ 8 p { p.k. X! W N 3 a f.@.< | K./.S.S./.`.K.; r.`.`.L.n.E.P.n., I [.a d 1 v k  Xh.s.p.p.y.Y h T i.Z.|.|.g.[ Y ",
"[ s. X.XZ.i.p.O.[ 8 h O.p.]..Xp v H ..a.}.@.G V A F.K.R.R.Q.S.& 8.W.~.S.F.G.D 0 v ( }.V.@.w %.w +.p.p.p.i.} g C u.].Z.g.d.s.+.Y ",
"O.s. X XZ.p.p.{ ) 9 g y.p.Z.g.w %.C #.}.}.@.j &.< r.F.F.8.D S X B ^ 0.G.G.P.; %.z I }..X$X0 %.u ! p.i.y.{ H H Y Z.Z.s.p.p.p.u.Y ",
"[ i.g.].d.i.i.) ~ 9 p u.p.s._ c *.( f.$X}.@.u %.A n.J.F.F.F.N.& r.G.G.K.G.N.0 %.z I }.OX$Xe *.&.a O.[ ) h H Y i.j.p.p.p.p.p.u.Y ",
"R +.i.i.p.i.} ~ T p g { p.p.< *.=.( [.aX}.@.j *.v 0.K.K.).`.W.; S.).`.).F.t.4 *.b I }.$X$Xu -.:.> ! ~ k Y Y { s.p.p.i.i.i.p.u.Y ",
"Y [ } O.} [ [ [ q H k H O.( j c.-._ $.aX}.@.j *.&.) J.E._._.(.; L.'.`.).G.6.e >.&.I }.3X$Xu >.x.A i H Y Y { ] O.{ [ [ { } i.+.Y ",
"C ~ { [ [ ~ g q l Y Y t { 2 l.v.<.' @.3X}.@.j *.>.; 6.J./.).).; L._.(.W.7.r m <.;.I }.$XOXj <.v.c.& h l ~ { ] { { [ [ ) { u.{ C ",
"- C Y Y k p g ~ i.y.Y q C e *X1.<.J d ' I N j =.>.;.s 1 ; & @ X # : ; ; : s 5.<.;.F I ' J w <.v.&X8 = k Y ~ ) ~ R R ~ ~ [ y.O.p ",
"% 9 9 q C Y Y ) O.p.} 9 = e.Y.<.*., @.g.D.L q <.*.u c c 6 6 5 4 5 z 7 z 6 = m <.j _ XXV.@.N &.v.*X:.o q p 9 t w h Y Y Y R O.R t ",
"k - % - 8 Y Y Y [ O.y.g O c.z.<.g XX<X>X>X<Xh *.&.c 3.4.3.;.;.m x x x x v r p ,.C <X:X:X:X=Xr z.*X5.# = - - h ~ y.{ T Y g C 9 8 ",
"l p 8 % l [ R h k ~ O.} O % 0 j d :XqXdXtX<X[ c u A 3.4.;.;.;.m v v v v v c & i.o.:X>X<X:X:Xa i r 1 1 C t C [ +.i.p.u.Y 8 % % % ",
"C t % [ p.p.y.O.C 8 ~ y.q % r r 1 qXdXfXfXtX_ f > 3.e.m v v v v v v v v v v @ o._ <XtXfXdX1X2 r [ i.O.Y Y { i.p.p.p.p.} C 9 % 8 ",
"Y - 9 i.p.p.p.y.{ k - p 9 9 9 t f +XdXfXfX0X> k & e.3.v z $ # O & O v v v v & _ d =XfXfXfX2X2 T O.p.i.Y ~ i.p.p.s.p.p.p.Y H 8 9 ",
"C % 9 p.p.p.p.p.+.[ 9 8 Y ~ ~ Y f N @X=Xa.1 O $ : e.;.v 6 # o.p.p.o 6 v v v : f R a o.+X@XG f ) u.p.O.T O.y.p.k. X|.s.p.C Y t 8 ",
"C % 9 p.p.p.p.p.i.{ ~ 9 g ~ O.] Y ! J V G q 9 $ A e.v x 6 o i.p.i.$ 5 x v v z & } { G a i G T O.p.y.Y ~ O.u.h.]. X|.k.p.h Y C - ",
"C % 9 p.p.p.p.p.p.y.[ Y w C Y k g k C g q 9 8 # 3.3.v 6 5 , p.p.i.i 4 6 v v v & G ~ ] ] ~ Y ) p.p.T T { O.p.Z. X.X XZ.p.g Y Y 9 ",
"C % - j.s.p.p.p.p.p.[ [ E k g p p k k h k l i q 4.b v 6 4 = T p.p.G + 6 v v v 0 = p T Y ) y.i.p.[ Y ~ O.y.s.]..X.X XZ.p.p g Y t ",
"C 8 - |.h.p.p.p.p.p.{ [ { [ { { { { [ [ [ [ 1 n 2.v 7 6 8 , t Y p.! + 6 x v v v # T i.p.p.p.p.O.Y T O.{ p.s.|..X.X|.Z.p.g p Y h ",
"C 9 - Z.].p.p.p.p.p.y.[ [ { { [ [ [ } O.y.u.; e 0 0 4 % ; a ~ w O.! # + 4 9 9 9 & C u.i.i.i.O.Y Y [ } +.p.g.|. X.X|.g.p.w t Y C ",
"C 9 -  X Xp.p.p.p.p.p.i.O.} O.u.i.p.p.p.p.O.> , 9 9 : # i ~ O.w ) [ K $ = @ o o o : T ] ] Y Y T [ { O.p.p.j.|..X Xk.p.p.9 g Y Y ",
"H 9 -  X Xj.p.p.p.p.p.p.p.p.p.p.p.p.p.p.p.L 1 P ; # # @ 1 { } 8 p { G # # # # M 1 = Y Y T E [ { [ +.p.p.p.Z.|..X].p.p.p.9 t Y Y ",
"H 8 - .X|. Xp.p.p.p.p.p.p.p.p.p.p.p.s.j._ 1 K < # # # # & { { 8 8 C # @ # # $ r T ; i } } [ [ [ +.p.p.p.s.]..X|.s.p.p.p.8 q Y Y ",
"C 9 9  X|. Xk.p.p.p.p.p.p.p.p.p.p.k.Z.{ & X           . & [ ) 9 - % O X . . . .     & f O.O.u.p.p.p.p.p.Z. X Xd.p.p.p.p.9 q Y Y ",
"Y g 8 j. XZ.|.j.p.p.p.p.p.p.p.s.Z.|. XF ; & > & ; & @ & > { C k t C , & ; i a a d > 3 2 +.p.p.p.p.p.p.s..X Xg.p.p.p.p.p.9 9 Y Y ",
"Y C t {  X X|. XZ.g.s.p.p.p.g.Z.Z..X X].j.s.@.@.o.` { o.[ [ h ~ [ ~ Y ) o.` ( ! ( { u.s.p.p.p.p.p.p.Z. X.Xk.p.p.p.p.p.p.9 8 w g ",
"O.Y Y q +.Z. X X X X X X X X|.|.|.|.Z.|.|.]. Xk.d.O.[ Y Y C Y [ O.u.t u.p.p.p.p.p.s.d.s.s.p.p.s.h.]. X X Xs.p.p.p.p.p.p.p % w h ",
"p.H Y Y q - q h k Y ~ [ O.] T C h p w q 9 8 - - - 9 t h Y R ) u.i.+.g p.p.p.p.s.|..X.X X X.X X X X].Z. XZ.p.p.p.p.p.p.p.H % h O.",
"p.y.w h C Y t q q g k C Y Y Y Y Y Y Y Y Y Y T ~ H Y } O.} +.p.p.p.l h p.p.p.g.|.|. X X X X.X.X.X X X X.Xd.p.p.p.p.p.p.p.k % i.p.",
"p.i.O.i.i.] Y Y Y Y Y Y Y Y [ R Y Y Y T i.i.u.+.H Y } u.u.O.{ ] R % 8 i.p.d.].j. X X X].|. X X X X X X Xs.p.p.p.p.p.p.p.t u.p.p."
};
