/* XPM */
static char *_e50ea37feca48a7caa282cdaae777e8C7GRT9jm9klYJLBU[] = {
/* columns rows colors chars-per-pixel */
"64 64 225 2 ",
"   c #0B0705",
".  c #090706",
"X  c #0C0907",
"o  c #110B0A",
"O  c #160A08",
"+  c #1D110F",
"@  c #1C1715",
"#  c #230F0C",
"$  c #2C130F",
"%  c #291915",
"&  c #231C1A",
"*  c #381A16",
"=  c #27201B",
"-  c #2C231D",
";  c #32231E",
":  c #3C221E",
">  c #2A2522",
",  c #2C2522",
"<  c #332622",
"1  c #3E2520",
"2  c #332A25",
"3  c #342D2A",
"4  c #3B2C28",
"5  c #37312C",
"6  c #3C322D",
"7  c #3D3533",
"8  c #3D3A3A",
"9  c #451B15",
"0  c #591C14",
"q  c #45231B",
"w  c #5A251C",
"e  c #67261C",
"r  c #77281C",
"t  c #412723",
"y  c #432A25",
"u  c #4D2A23",
"i  c #462D29",
"p  c #492F2B",
"a  c #552B24",
"s  c #43332D",
"d  c #4B322D",
"f  c #473A2D",
"g  c #55352A",
"h  c #433532",
"j  c #4E3531",
"k  c #443936",
"l  c #4C3C34",
"z  c #453C39",
"x  c #4C3D3A",
"c  c #503732",
"v  c #593630",
"b  c #533A35",
"n  c #563D38",
"m  c #583F3A",
"M  c #662B23",
"N  c #742B21",
"B  c #7C2E23",
"V  c #673427",
"C  c #743329",
"Z  c #753429",
"A  c #6F3C34",
"S  c #58432F",
"D  c #4D4134",
"F  c #4E423B",
"G  c #574837",
"H  c #53443C",
"J  c #5B423D",
"K  c #644A3B",
"L  c #66533D",
"P  c #745638",
"I  c #5E4541",
"U  c #574945",
"Y  c #5A4A44",
"T  c #59504B",
"R  c #604742",
"E  c #634A45",
"W  c #674E49",
"Q  c #684F4A",
"!  c #6A5944",
"~  c #63524D",
"^  c #6B524D",
"/  c #725D43",
"(  c #6D5651",
")  c #665855",
"_  c #6B5A55",
"`  c #705752",
"'  c #745B56",
"]  c #7D5F55",
"[  c #765D58",
"{  c #785F5A",
"}  c #766143",
"|  c #7A6548",
" . c #6C6158",
".. c #75625A",
"X. c #7B625D",
"o. c #7E6561",
"O. c #7A6A65",
"+. c #7C7267",
"@. c #74716F",
"#. c #842A1D",
"$. c #8B2B1E",
"%. c #922D1F",
"&. c #822F24",
"*. c #8C2D20",
"=. c #952E20",
"-. c #843024",
";. c #8C3226",
":. c #86362A",
">. c #943326",
",. c #9B3123",
"<. c #9D3A2C",
"1. c #A33324",
"2. c #A93626",
"3. c #AA3929",
"4. c #B23827",
"5. c #B43A29",
"6. c #BC3C2B",
"7. c #C33E2C",
"8. c #C83F2C",
"9. c #944634",
"0. c #B14232",
"q. c #C5402E",
"w. c #CC412E",
"e. c #D2422F",
"r. c #C84A38",
"t. c #D64430",
"y. c #D74935",
"u. c #D84A37",
"i. c #D84D3A",
"p. c #D9513E",
"a. c #91564B",
"s. c #866A4C",
"d. c #8B714E",
"f. c #836A57",
"g. c #937851",
"h. c #A37A52",
"j. c #806762",
"k. c #836A65",
"l. c #876D69",
"z. c #886F6A",
"x. c #85736A",
"c. c #8B726D",
"v. c #8E7571",
"b. c #8B7B77",
"n. c #907772",
"m. c #937A75",
"M. c #977D79",
"N. c #987F7A",
"B. c #DB5543",
"V. c #DB5846",
"C. c #DC5B4A",
"Z. c #DE604F",
"A. c #DF6352",
"S. c #D76859",
"D. c #E06757",
"F. c #E16B5B",
"G. c #E26F60",
"H. c #E37364",
"J. c #E47768",
"K. c #E57B6C",
"L. c #9E835B",
"P. c #A28459",
"I. c #B9895A",
"U. c #908471",
"Y. c #9B827D",
"T. c #96887D",
"R. c #AD997B",
"E. c #C6915F",
"W. c #C99562",
"Q. c #CC9863",
"!. c #D19E66",
"~. c #E78173",
"^. c #E9887B",
"/. c #D5A369",
"(. c #DDAB6E",
"). c #DEB272",
"_. c #E0AF70",
"`. c #E4B373",
"'. c #EABA76",
"]. c #E4B979",
"[. c #EEBF79",
"{. c #EFC079",
"}. c #F0C27E",
"|. c #9F8581",
" X c #908F8E",
".X c #969393",
"XX c #A18783",
"oX c #A48A86",
"OX c #A68D88",
"+X c #B49E8F",
"@X c #B8A192",
"#X c #A5A5A4",
"$X c #B1AEAD",
"%X c #BAB6B4",
"&X c #EB9084",
"*X c #CBB291",
"=X c #CAB7AF",
"-X c #ECC286",
";X c #F1C584",
":X c #F1C78A",
">X c #F3C98B",
",X c #F4CD93",
"<X c #F3CF9C",
"1X c #F6D19B",
"2X c #DFC7A6",
"3X c #F7D4A2",
"4X c #F8D6A3",
"5X c #FAD9AB",
"6X c #E5C9B5",
"7X c #FBDDB2",
"8X c #FDE0B7",
"9X c #FDE2BC",
"0X c #D2CECB",
"qX c #D6D4D3",
"wX c #DCDADA",
"eX c #F5D6C1",
"rX c #FFE5C1",
"tX c #F0E8DD",
"yX c #E7E5E3",
"uX c #ECEBEB",
"iX c #F1EFEE",
"pX c #F4F0EC",
"aX c #F5F3F3",
"sX c #F9F7F6",
"dX c #FAFAFA",
/* pixels */
"l.z.l.z.z.l.W R J c i p d n R R R R R R R R R R ^ ^ [ k.o.` k.z.z.W t ( ' o.Y.oXoXoXoXoXoXoXoXoXOXoXoX|.Y.|.XXXXc.z.z.z.R k.z.l.",
"z.l.z.z.z.X.R R J [ X.[ [ R p J R R J j d p j n R R R R J p t d R 1 y 1 ' [ j.M.oXoXoXoXoXoXoXoXY.m.v.c.c.|.OXXXM.z.z.z.J k.z.l.",
"z.l.z.z.{ b R R X.z.z.z.z.k.E i R n d I ` X.j.z.k.X.' ^ W R R j : : : : y ' { X.z.m.M.Y.Y.m.z.z.z.z.z.z.z.z.M.|.n.z.z.z.c k.z.k.",
"o.l.l.j.d n R R [ X.k.z.z.z.j.t J R z.z.z.z.c.T U ..f.) ) ) E x l ; * * ; 4 k x { j.k.z.z.z.k.o.X.X.X.X.k.z.z.z.z.z.z.l.d { k.' ",
"' ' ' ` t i i p d W ` [ o.k.l.b c ^ z.z.c.Y.x.F g.d.d.s.} / L 5 G ! L P } } | f h { [ X.X.X.X.[ ' ' [ [ { o.z.z.z.z.z.l.p W ' ( ",
"` ' ^ E : t t y i i d I W ^ ' R J E X.z.z.v.Y *X9XrXrXrX9X9X8X8X9X7X5X3X1X3X5X:XD < 1 : 1 p J ^ { ' { { { { l.z.z.z.z.k.d i ^ ' ",
"b W [ d t E { k.k.X.^ c b R n b R R E ^ z.L R.9X9X5X5X7X9X7X5X5X4X,X-X[.[.[.-X,X*Xs J y y d j y d I ' ' ' [ o.z.z.z.z.k.i c d c ",
"y t d 1 E z.z.z.z.z.z.z.` n J d J I I I } x.9X1X;X{.{.{.>X,X>X;X{.{.{.{.{.[.[.{.;XL.f y c b m R R d d ' ' ' X.z.z.z.z.k.t d R R ",
"R y : y l.z.c.n.c.z.z.v.z.z.' d d p j g. .9X>X[.{.{.{.{.{.{.{.[.'.{.{.{.{.{.{.{.[.}.s.K R R R k.l.E y n ' ' X.z.z.z.z.k.y p R R ",
"R y : J z.c.Y.Y.c.z.N.XXc.z.z.z.J y K / 2X;X[.{.{.{.{.{.{.{.{.{.{.{.{.{.{.{.{.{.[.[.}.} / R ( l.l.k.R i ' ' { z.z.z.z.k.y j R R ",
"R t t { z.Y.oXXXM.c.XXY.Y.z.c.z.z.I l *X,X[.[.{.[.[.[.[.{.{.{.{.{.{.{.{.{.[.{.'.{.[.[.).L H ( k.o.k.^ c E ' { z.z.z.z.k.t j R R ",
"R t d z.c.oXoXoX|.c.XXoX|.c.Y.z.o.F *X5X[.'.[.'.[.}.,X{.[.{.{.{.{.{.{.{.[.[.`.(.[.'.'.{.].f J o.k.X.k.J c ' { z.z.z.z.j.: c R R ",
"I t W z.N.oXoXoXXXc.Y.XXn.z.v.z.X.7 7X[.`.[.'.(.[.[.4X[.{.{.{.[.{.{.;X[.[.[.[.`.[.[.[.{.{./ l ` k.z.k.^ p ' { z.z.z.z.o.: c R R ",
"m t l.z.Y.OXOXoXXXz.z.z.z.z.c.z.o.k [.[.).[.(.'.[.[.5X5X1X,X{.].{.;X4X[.[.[.[.(.`.[.[.{.{.| ) ` Q k.z.[ j ( [ l.z.z.z.X.: j R R ",
"b J z.z.|.OXOXoXY.z.z.z.N.XXXXN.o.k {.[.[.[.[.[.[.[.1X5X5X}.1X:X}.,X,X{.[.[.[.`.(.[.[.{.{.| ) z.^ E z.l.J n [ X.z.z.z.X.1 j R J ",
"R X.z.z.XXOXOXoXn.z.z.Y.oX|.XXoXc.D {.[.'.[.[.[.[.[.[.3X9X{.7X[.}.4X[.[.[.[.[.[.'.[.[.{.{.| ~ z.[ R l.z.R n ` ' { X.X.^ t j I b ",
"X.z.z.c.oXOXoXY.z.z.z.oXoXoXoXoXv.G {.[.'.[.'.[.[.[.[.,X9X<X9X3X7X;X[.[.[.[.[.[.`.'.[.{.{.d.~ z.X.R k.z.k.R R W ` ` Q n y j R J ",
"z.z.c.oXoXoXXXc.z.z.c.oXoXoXoXoXv.! {.[.'.`.(.[.[.[.[.[.;X-XrX7X3X{.[.;X[.[.[.(.!.`.[.[.{.g.T z.k.R k.l.z.' R R I c y d i j R R ",
"z.M.oXOXoXoXc.z.z.z.c.|.oXoXoXoXx./ {.[.[._.(.[.[.[.[.[.[.,X9X7X[.[.>X9X1X}.[.`.W.(.[.[.{.L.) z.l.R j.k.z.l.k.X.^ I p i y J W z.",
"M.oXOXoXOXY.z.z.z.z.z.M.oXoXoXOXO./ {.[.[./.W.[.[.[.[.[.[.>X9X4X,X[.,X9X5X>X[.[.W./.[.[.{.P.) z.l.R k.l.z.l.z.X.k.^ d d J ` z.z.",
"oXoXOXoXoXn.z.z.z.z.z.z.m.|.XXoXO.} {.[.[.Q.E.`.[.[.[.[.[.[.7X7X[.[.,X5X{.,X:X[.E.!.[.[.{.P.) z.o.R k.l.z.l.z.l.o.^ n I ' z.z.z.",
"XXOXOXXXoXM.z.z.z.z.z.z.l.l.c.n.X.} _./.W.E.W./.[.[.[.[.[.[.[.[.[.[.[.{.[.[.[.[.E.Q.[.[.{.P.) z.X.R X.z.l.z.z.o.J c J ' z.z.z.z.",
"oXOXoX|.|.c.z.z.z.z.z.z.l.l.z.z.) / !.W.W.W.W.Q.[.[.[.[.[.[.[.[.[.[.[.[.[.[.[.`.E.W.`.[.{.P.) z.' R ` k.k.X.( m c R X.z.c.Y.c.z.",
"OXoXoXY.z.z.z.k.X.{ { [ X.k.l.z.) K I.I.h.h.E.E.(.[.[.[.[.[.[.[.[.[.[.[.[.[.[./.E.E.I.I.Q.d.U l.^ R R E R c i c I k.z.n.|.Y.c.z.",
"oXoXM.z.z.j.{ ' ' ' ( ^ E U { { U & < 2 5 z G I.W.!.(.'.:X[.[.{.[.[.[.[.(.!.W.E.h.P & ; 2 , k { E j 1 t p t J R ' z.c.OXOX|.z.z.",
"|.c.z.l.X.' ' ' J p i y % @ z x 3 _ $XwXwXwX.XT P I.E.W.W.Q.`.:X-X`.!.Q.W.I.d.l @.dXyX0X$X X8 ~ T & = : : i R R j.z.|.OXOXXXz.z.",
"z.z.k.[ ' ' ` y t d c J J 7 $X#XwXaXyXsXiXdXdXuX XF l L L L F , F E S G H H +.wXsXdXdXuXuXdXsX#X#X, i : y y J R k.z.N.oXOXm.z.z.",
"X.[ ' ' ' ` 1 i m R ( W R F @.wX=Xj.u s.sXdXiXdXdXuXyXqXqXqXuXsXaXyXqXwXyX0XdXdXaXsXdX#X@.#X$X0X) & : 1 1 1 d R ` z.z.n.m.z.z.z.",
"[ { ' ' ( t i R W j.o.j.[ R s , a r #.w aXuXU.0XdXdXpXwXaXdXdXdXdXdXdXsXaXdXdXaXU.qXdX! ;.Z y = 4 d t t y 1 t J E X.j.l.z.z.z.z.",
"[ [ ' ^ 1 y J ( l.z.z.z.o.d p 2 Z t.=.M $X] V K yXdXtXG +.0XdXdXsXyXT.f uXdXdX+.P  .=X9 =.,.;.< j J R R m d : p I ` [ [ o.j.o.{ ",
"' ' E t t E X.z.l.z.z.l.( 1 t & q.t.1.#.9 0.2.e ^ dXyXG u G wXdXaXK : V =XsXb.w =.9.* $.$.7.1.4 U [ X.' ^ R i 1 d E ' ' ' ' ' ' ",
"p y 1 t Q k.z.c.z.l.[ ' p n ' 2 q.t.6.=.,.4.t.1.e l f.V $.q D %XY.$ 9.:.b._ 0 =.6.t.1.%.=.t.t.v _ z.z.z.z.j.n i p p I [ ' ' ' ` ",
"t t y I l.c.M.v.z.X.E p E k.z.k t.t.t.5.5.6.t.t.2.#.9 r 5.#.q o # ;.2.r 0 r ,.w.7.6.,.$.S.t.t.u k.z.z.z.z.z.^ p d p y t 1 : : : ",
"I J J X.n.Y.v.l.o.( y R k.z.z.Y C.G.t.t.e.t.t.t.t.e.2.6.t.,.>.e ,.t.=.%.=.5.t.t.6.t.5.r.J.B.t.M m.M.z.z.z.l.` d c R R J n j d j ",
"R [ l.c.oXn.l.z.[ n d Q z.c.c.' i.F.t.t.t.t.t.t.t.t.4.6.t.7.=.,.w.t.w.7.t.t.t.t.t.t.t.C.J.F.t.Z oXXXc.z.z.l.^ j b R ^ [ o.' R R ",
"^ k.N.oXoXl.l.j.[ t j [ z.N.oX~ t.B.t.t.e.w.t.C.V.t.7.8.t.A.7.t.t.t.t.u.C.t.t.t.t.t.t.t.H.A.t.a oXm.c.z.z.j.R b E l.Y.XXXXn.' R ",
"' c.oXOXY.l.z.X.' t b X.z.|.OXd t.G.C.t.7.5.t.F.F.t.t.t.t.K.F.t.t.t.t.i.A.t.t.t.7.6.t.t.^.K.t.a o.z.z.z.l.{ c J k.|.Y.n.v.c.o.R ",
"X.c.oXoXY.z.z.[ ( y c j.z.Y.b.y t.F.F.t.6.4.t.K.H.t.t.e.t.H.~.t.t.7.7.i.A.t.t.t.6.4.t.y.&X^.t.V ~ z.l.j.[ I I R Y.Y.c.z.z.z.k.R ",
"' l.n.|.v.l.l.( ^ y j k.z.c.) V V.H.F.t.7.6.t.F.F.t.t.e.t.u.F.t.t.7.2.u.A.t.t.t.7.2.t.V.&X^.t.0.k X.' ( b I R l.M.z.z.z.z.z.k.R ",
"W o.l.l.z.l.{ ^ E j c [ z.z.5 ;.p.^.K.u.t.t.V.~.J.t.t.t.t.t.C.i.t.t.w.t.F.t.t.t.e.2.t.B.^.^.y.t.3 ~ ^ n R R [ c.z.z.l.l.l.z.k.R ",
"R ' { X.{ ' ' ' i I n I X.~ g $.7.~.~.C.u.i.F.^.K.i.t.t.t.t.y.t.t.t.w.t.F.i.t.t.t.w.t.t.p.t.t.t.m h I R R [ ` X.[ ' ' [ { l.o.R ",
"J ^ [ ' ' ^ c i m R R d [ 7 B $.t.V.K.w.r.i.D.~.~.F.t.V.C.B.t.t.t.w.5.t.F.C.i.t.t.t.w.t.t.t.t.t.*.> b m ^ [ ` [ [ ' ' ( [ k.[ J ",
"1 J R R n j c ^ l.j.R i J a $.2.t.r.V.q.;.e.u.K.J.K.u.A.A.C.t.t.t.3.3.t.p.B.i.t.t.t.3.t.t.r.7.,.$.: < n R ^ ( ^ W W ^ ^ ' j.X.j ",
": y y i J R R ( X.z.{ y < N $.,.6.e.e.5.-.w.t.F.J.K.F.H.Z.C.t.t.w.<.5.t.t.t.t.t.t.t.>.>.,.=.=.=.$.r & i j y d p b R R R W X.W d ",
"n 1 : 1 t R R R ' X.j.c @ e $.*.#.$.$.#.B 6.t.t.t.B.B.t.t.t.w.5.>.-.;.t.t.t.t.t.t.t.B >.$.$.$.#.r M @ 1 1 1 b ^ j.[ E R c J y t ",
"m j t : m ' W b n ^ X.X.% o X     % y A N B >.6.t.t.t.t.t.t.6.>.&.-.&.1.w.t.t.t.t.5.&.<.a.%       o > J d J ' o.l.z.k.R t : : : ",
"J d : ' z.z.j.X.J t ^ j.i : d s , _ @ h M B &.>.3.q.w.3.1.>.-.B B N B -.;.>.>.;.-.-.:.Z @ H , 6 ' l.X.R R [ l.z.z.z.z.{ J y : t ",
"R 1 y l.z.z.z.j.[ n 1 c y y y d x +XeXO.= % 9 e N ;.;.;.&.B N N N N &.&.B B N &.* # $ ~ 6X=X7 E X.z.l.R ^ l.z.z.c.z.z.z.R I t y ",
"J : y z.z.z.z.z.o.' y t R ^ ^ R x F @X*Xx.& o X   + # # O   % * $   X # O O X O # & _ +X@XU x ( k.z.X.E X.j.z.N.oXXXc.z.J R d t ",
"J : y z.z.z.z.z.l.[ ^ y c ^ X.` R ~ U H U i y ; v K 9 $ $ & l.z.l.; $ $ * q u , { [ U k h U E X.z.j.R ^ X.k.m.|.oXXXN.z.b R J 1 ",
"J : y z.z.z.z.z.z.j.' R p J R n c n J c i t t - a.a.C w w 4 z.z.l.h q w C C C < U ^ ` ` ^ R ( z.z.E E [ X.z.Y.oXOXoXY.z.c R R y ",
"J : 1 M.c.z.z.z.z.z.' ' Q n c j j n n b b n h i a.Z C w q < E z.z.U * w C C C u < j E R ( j.l.z.' R ^ X.j.c.|.OXOXoXY.z.j c R d ",
"J t 1 XXm.z.z.z.z.z.[ ' [ ' [ [ [ [ ' ' ' ' 6 A a.C e w t 6 d R z.~ * w M C C C - E l.z.z.z.z.X.R E X.[ z.c.XXOXOXXXY.z.c j R b ",
"J y 1 Y.|.z.z.z.z.z.j.' ' [ [ ' ' ' { X.j.k.2 a u u q : 2 k ^ p X.~ - * q y y y , J k.l.l.l.X.R R ' { o.z.n.XXoXOXXXn.z.p d R J ",
"J y 1 oXoXz.z.z.z.z.z.l.X.{ X.k.l.z.z.z.z.X.3 4 y y 4 - h ^ X.p ( ' U ; < = & & & 4 E ` ` R R E ' [ X.z.z.M.XXOXoXN.z.z.y c R R ",
"I y 1 oXoXM.z.z.z.z.z.z.z.z.z.z.z.z.z.z.z.T 6 E 2 - - = 6 [ { t j [ U = - - - D 6 2 R R E Q ' [ ' o.z.z.z.Y.XXOX|.z.z.z.y d R R ",
"I t 1 OXXXoXz.z.z.z.z.z.z.z.z.z.z.z.c.M.) 6 Y 6 - - - - , [ [ t t J - = - - ; s E 2 h [ { ' ' ' o.z.z.z.c.|.OXXXc.z.z.z.t i R R ",
"J y y oXXXoXN.z.z.z.z.z.z.z.z.z.z.N.Y.[ > @ X         o > ' ( y 1 : % @ o o o o X X > x X.X.k.z.z.z.z.z.Y.oXoXv.z.z.z.z.y i R R ",
"R c t M.oXY.XXM.z.z.z.z.z.z.z.c.Y.XXoXU 2 > 3 2 2 > = > 3 [ J n d J 4 , 2 h k k z 3 7 7 o.z.z.z.z.z.z.c.OXoXn.z.z.z.z.z.y y R R ",
"R J d [ oXoXXXoXY.n.c.z.z.z.n.Y.Y.OXoX|.M.x.O.O..._ ' X.' ' b ^ ' ^ R ( X._ ) ~ ) ' k.c.z.z.z.z.z.z.Y.oXOXN.z.z.z.z.z.z.y t p c ",
"X.R R i o.Y.oXoXoXoXoXoXoXoXXXXXXXXXY.XXXX|.oXN.v.X.' R R J R ' X.k.d k.z.z.z.z.c.c.v.c.c.z.z.c.m.|.oXoXoXc.z.z.z.z.z.z.j : p b ",
"z.I R R i 1 i b n R ^ ' X.` E J b j p i y t 1 1 1 y d b R W ( k.l.o.c z.z.z.z.c.XXOXOXoXoXOXoXoXoX|.Y.oXY.z.z.z.z.z.z.z.I : b X.",
"z.j.p b J R d i i c n J R R R R I R I R R R E ^ I I [ X.{ o.z.z.z.m b z.z.z.n.XXXXoXoXoXoXOXOXOXoXoXoXOXv.z.z.z.z.z.z.z.n : l.z.",
"z.l.X.l.l.` R R R R R R R R ' W I I I E l.l.k.o.I I [ k.k.X.[ ` W : t l.z.v.|.M.oXoXoX|.XXoXoXoXoXoXoXoXc.z.z.z.z.z.z.z.d k.z.z."
};
