/* XPM */
static char *_5586d77daf54041c73e2d9f739b90544UjOHdejT8ayL4WU[] = {
/* columns rows colors chars-per-pixel */
"64 64 232 2 ",
"   c #0C0606",
".  c #130D0B",
"X  c #1D0E0C",
"o  c #1C110E",
"O  c #1A1512",
"+  c #250D0A",
"@  c #27110D",
"#  c #36120D",
"$  c #2D1613",
"%  c #241A15",
"&  c #281915",
"*  c #331915",
"=  c #381813",
"-  c #351D1A",
";  c #3B1E1A",
":  c #26201D",
">  c #35261C",
",  c #3C211C",
"<  c #3A2925",
"1  c #3A3431",
"2  c #4D150F",
"3  c #441A13",
"4  c #471A14",
"5  c #531C14",
"6  c #5A1912",
"7  c #681D16",
"8  c #42211D",
"9  c #4C231D",
"0  c #53241D",
"q  c #5C231B",
"w  c #59271A",
"e  c #51321F",
"r  c #64241B",
"t  c #6A271D",
"y  c #78271B",
"u  c #452622",
"i  c #4A2723",
"p  c #4D2923",
"a  c #432E29",
"s  c #522923",
"d  c #532A25",
"f  c #5B2A24",
"g  c #5D2E29",
"h  c #493727",
"j  c #5E312B",
"k  c #553828",
"l  c #493B34",
"z  c #513C35",
"x  c #632C25",
"c  c #6D2C24",
"v  c #632F29",
"b  c #6A2F29",
"n  c #742C22",
"m  c #7A2D23",
"M  c #752F28",
"N  c #663628",
"B  c #62332D",
"V  c #6C322A",
"C  c #73322A",
"Z  c #7B332A",
"A  c #79362A",
"S  c #653731",
"D  c #6B3730",
"F  c #663832",
"G  c #6A3B35",
"H  c #763B34",
"J  c #58442D",
"K  c #594736",
"L  c #6A472D",
"P  c #664B34",
"I  c #7A4835",
"U  c #6B5438",
"Y  c #755739",
"T  c #594B45",
"R  c #764C47",
"E  c #685447",
"W  c #7A6453",
"Q  c #79706F",
"!  c #872E1F",
"~  c #98271C",
"^  c #A9281D",
"/  c #B2271B",
"(  c #B52419",
")  c #BB261B",
"_  c #BD291C",
"`  c #832D24",
"'  c #8A2D24",
"]  c #962C23",
"[  c #8C3125",
"{  c #833229",
"}  c #8C3329",
"|  c #89392C",
" . c #923329",
".. c #983629",
"X. c #823D33",
"o. c #9D3D32",
"O. c #A72E23",
"+. c #B22D22",
"@. c #A43529",
"#. c #A83629",
"$. c #AB3C2D",
"%. c #B33528",
"&. c #B93829",
"*. c #C51604",
"=. c #C32A1D",
"-. c #CA2C1F",
";. c #D6301B",
":. c #C52E21",
">. c #CD2E21",
",. c #D12F21",
"<. c #C33323",
"1. c #CC3324",
"2. c #CC3728",
"3. c #C83928",
"4. c #D43223",
"5. c #DB3425",
"6. c #D43728",
"7. c #D73A28",
"8. c #DA3A29",
"9. c #E23626",
"0. c #E53728",
"q. c #E43928",
"w. c #E83928",
"e. c #8A463A",
"r. c #974432",
"t. c #895235",
"y. c #A64733",
"u. c #AD4431",
"i. c #B04932",
"p. c #B74C35",
"a. c #84623F",
"s. c #CA432E",
"d. c #D4442D",
"f. c #DB422C",
"g. c #C64A33",
"h. c #D64430",
"j. c #D54B32",
"k. c #DB4B32",
"l. c #CA5439",
"z. c #D95336",
"x. c #D55639",
"c. c #DC553A",
"v. c #DC5C3C",
"b. c #E3432E",
"n. c #E8432E",
"m. c #E84630",
"M. c #E34C33",
"N. c #E94D34",
"B. c #E65136",
"V. c #E45539",
"C. c #E95539",
"Z. c #E35B3B",
"A. c #EA5B3C",
"S. c #DD603E",
"D. c #E3623F",
"F. c #EA613F",
"G. c #874C43",
"H. c #94534A",
"J. c #96554B",
"K. c #AC574B",
"L. c #856743",
"P. c #956B46",
"I. c #9A764C",
"U. c #886C53",
"Y. c #A4784E",
"T. c #B96155",
"R. c #A97E52",
"E. c #967668",
"W. c #847B79",
"Q. c #AC7F6C",
"!. c #DA5644",
"~. c #D8664F",
"^. c #E56642",
"/. c #EA6541",
"(. c #E46B44",
"). c #EA6B45",
"_. c #E46D53",
"`. c #DC7668",
"'. c #E47869",
"]. c #A88554",
"[. c #B78758",
"{. c #BA935D",
"}. c #968277",
"|. c #BF9960",
" X c #C68A5A",
".X c #C6925E",
"XX c #CA9561",
"oX c #C49D63",
"OX c #CD9963",
"+X c #D29E65",
"@X c #E78172",
"#X c #CBA367",
"$X c #D5A569",
"%X c #DBAA6C",
"&X c #DCB170",
"*X c #E1AF70",
"=X c #E4B472",
"-X c #E6B777",
";X c #EBBC76",
":X c #EEBF78",
">X c #EFC079",
",X c #F0C27C",
"<X c #988E8D",
"1X c #B0988B",
"2X c #B7A195",
"3X c #BAAEAC",
"4X c #C3A38E",
"5X c #C6A894",
"6X c #D3AC95",
"7X c #D5B39C",
"8X c #D9B69F",
"9X c #C5B5AE",
"0X c #DAB8A2",
"qX c #DCBAA4",
"wX c #E2BFA7",
"eX c #F1C583",
"rX c #F2C88A",
"tX c #F5CE96",
"yX c #F6D199",
"uX c #CCC0BE",
"iX c #E5C3AD",
"pX c #F8D7A6",
"aX c #EBCCB6",
"sX c #F7DAB6",
"dX c #FCE0B6",
"fX c #FDE2BB",
"gX c #CACACA",
"hX c #D2C5C3",
"jX c #F5D6C1",
"kX c #F7D9C4",
"lX c #E3E0DF",
"zX c #F1F1F1",
/* pixels */
"v g v g g v &.=.-.-.=.4.w.q.=.( ) _ =.=.=.=.) =.%.3.{ v v b g g g g / x p d G G G G G F G G G G G G F F S F F F B C 8.7.5.b g v ",
"g v g g g | =.-.9.} M m ` O.) =.9.w.5.4.w.-._ 4.w.w.w.q.=.) _ ' b ~ _ _ s p g B G G G G G G G F S B B j B F G F S g 9.:._ b g v ",
"g v g g X.Z.c.w.f g g g g b ' _ ,.w.7.%.} Z b g b Z ..&.6.1.~ ! y y ! ] ^ s p d g B B F F B g g g g g g g g G F B g 8.4.=.b g g ",
"d g v g _ c.).A.s s g g g g C 4.4.%.g g g g B j g g g k h J a.I.Y.I.P.a.L f 4 ; p d g g g g g d s s p s d g F F g g 6.q.=.m d p ",
"f p p x _ ,.=.Z./.r.b f d g v 2./.i.g g j F G G F L J U $X:X:X:X:X>X>X>X>X:X.XI 9 9 f s s s s p i p p p p d B S g g 3.q.5.O.f m ",
"x s c ' =.9._ 4.m.N.A.A.s.| x #.A.(.| g g F G G j J Y.>X>X>X>X>X>X>X>X:X>X>X>X:X{.w y Z.8.2.#.b p i p p p p g S g g &.N.4.,.%.@.",
"~ m M =.4.@.{ V V { #.k.A.F.Z.Z.f.Z.(.$.g g B u k oX:X>X>X>X>X>X>X>X>X>X>X>X>X>X>X:Xw ~ 4.w.7.A.v.y.i i p p d F B g p.M.4.4.w.,.",
") ( ) =.@.g g g g g g g  .8.5.;.*.4.D./.v.V ; h :X>X:X>XeX,X>X>X>X:X:X>X>X>X>X>X>X>X$X6 9.>._ w.-.>.1.i p i s F B g $.b.=.5.0.-.",
"( _ _ -.v g B B j g g B g g  .4.9.;.w.w.F.p.h %XpXeXtX,XdXsXeX:X:X>X>X>X>X>X>X>X>X>X>XL @._ 4.C v &.=.u.i i p S B g g 6.) >.4.,.",
"_ ( 4.1.g j S F g g S F j g g g O.8.w.w.w.w {.>XpXfXsXfXfXyX:X:X:X:X:X>X>X>X|.].].>X>XY.t <.%.v v C 5.1.i i p S B g g <.=._ =.4.",
"( _ 4. .g S F F S g F S F g j g g o.3.2.~ Y >X>XpXfXfXfXpX:X>X>X:X:X>X>X#XU L.].{.>X>X>Xk M.%.b Z Z O.q.| i p S S g g / 2.d.-.5.",
"=._ 1.g j G G G F j F F F j F g g g @.v.w {.>X>XpXsXyXyX:X:X:X:X>X>X>X#XY |.:X:X>X>X>X>XP p.k.Z b { Z n.l.i p F S g g +.v.x.&.=.",
"5.,.%.g S G F G F g S F B g B g g g g p.e :X>X>XyXfXyX>X>X:X>X>X>X>X>X&X#X>X:X-X{.#X>X>XI.N k.%.b g V 2.Z.i p F B g g } Z.z.8.) ",
"w.q.v g F G G G F g g g g g j g g g g s L >X>X:XeXdX>X>X:X:X>X>X>X>X>X:X>X:XL.l K K W >X#Xh g i.2.C g ..A.b p g g g g y.D.z.m._ ",
"w.6.g g F G G G S g g g S F F S j g g 9 Y >X>X:XpXrX>X>X:X>X>X:X>X>X>X:X>XI.E 7X7X7XW P.;X> g g g.9.g v C.i.p s g g g r.C.m.A._ ",
"w.{ g g F G G F B g g S G F F G S g g ; Y =X>X:XrX>X>X>X:X>X>X:X>XOX-X>X=XJ 5X8X8X0X4XK >Xa d g r.w.v g w.^.x p p s d (.m.b.k.) ",
"} g g j G G G S g g g G G G G G G B g - a.*X>X:XtXrX>X:X:X>X:X>X=X].].>X{.T 0XqXaXkXwXJ >Xk p g { ,.C g C w.M.$.c c j.Z.5.j.2.=.",
"g g j G G G F j g g B F G G F F G G j * P.$X>X:XeX,X>X:X:X:X-X>X%XY.L.>XI.W 0XiXaXkXaXJ :XJ i g C =.Z v g @.w.A.F.A.b.3.3.j.2.=.",
"g B G G G G g g g g j F G F F G G G F * I.+X>X:X>X>X>X>X:X:X:X>X%XI.L.,XU }.0XaX2X7XsXJ :XJ p g v 9.Z b g v C } 2.q.w.A.6.A.6.g ",
"S G G G G S g g g g g S G G F G F G G - Y.OX>X:X:X>X>X>X>X:X:X>X+XP.L.,XJ 2XqXaX: : kXK %X, d g V w.b v g v g { C s.A.F.Z.p.g g ",
"G G G G G B g g g g g g B F F G F F G , I.XX:X:X:X>X>X>X>X:X:X>X+XP.Y ,Xh 5XqXjXO O iX< % - G g A w.v v g v g v Z u.C.^.y.g g B ",
"F G G F F B g g g g g g g g j B S F F , P.XX%X:X:X>X>X>X:X:X:X>XOXP.U =Xz 5XqXjX1 T kX1Xz F G g | 5.{ g v g g Z k.z.^.o.g g F G ",
"G G F F F j g g g g g g g g g g g g B < L.XXOX-X:X>X>X>X:X:X:X>XOXP.P %XK 5XiXkXkXkXkX5Xa F F g y.,.@.b Z  .O.D.D.S.{ g B F G G ",
"G G F S g g g g s p p p s d 8 g g g g , Y XXXXOX$X:X>X>X>X:X:X=XXXR.L.$XK 5XiXkXkXkXkX1X< g g g p.d.D.k.q.w.j.k.2.C g B F F G F ",
"F G S g g d p i i i x c x s o X , d g $ k Y.XXI.Y t.Y.OX+X+XOX.X{.XXOX+XK 4XaXkXkXkXkXW - d s p d.v.)./.k.^.D.d.@.g j G G G F F ",
"F B g g s p i p ] / / =.5.9.^ 2 T < < X & U.h d X.y r L [.[.L.k & h K E l 0XjXkXkXkXsX< , i p ' 4.k.A.V.2.b.^.).A g F G G G G G ",
"g g d p i i x / 9.8.1.s.<.>.4.y W.zXzXzXlX< K.'.c.h.h.&.C h U L.E E }.2X4XqXkXkXkXkX1X% s ` / _ =.4.w.n.=.w.C.F.C g S G G G G F ",
"s p p p i f >.w.w.).u.g.D.:._ ) R Q gXzXE K._.h.&.5 m [ 9 XX=XyXpX-XK 6X8XaXkXkXkX5Xf +.4.4.0.=.=.w.5._ ( 5.C./.o.g g B F S B j ",
"p p i i f :.w.N.x.A Z Z $.k.<.=.>.[ K <XD '.j.#.# k [.K P.$X,XdXfXsXP h k P E K 1 a f v b Z 3.9.-.5.9.j.V.n./.F.l.s d g g g g g ",
"p p p c >.C.).p.g g g g M _ ( 4.A.).7.0 ~.~.@.5 f OXOXK  X$X:XeXpXfXh I.;X$XoXoXu s g g v Z 3.9.,.,.w.w.A./.C.A.A.b p p d d s p ",
"s f ' =.C.x.{ g v g g v ' =.>.w.F.C.y.D '.h.3 y p XXOXP [.OX:X:X>X>XK #X>XrXeX>XP u g v Z &.5.>.<...{ @.s.A.C.m.n.f.i i i i i p ",
"( ( ( 4.l.V g V g v Z { _ 8.} 6.A.A.q T.c.' # ` d XXXXL.Y XX%X>X>X=Xh :XrXsXpX>XK u b 9.4.:. .v g g g g g Z V.N.4.9.~ f i i d x ",
"( =.q.c.B B B B g s r.D.>.V g g v ] g _.[ 4 4 m 0 .XXX[.J [.XX%X:XK L.eXsXsXyX:X> d 9.=.] g g g g g g g g g &.A.=.) =.M.k.^.x.5.",
"M.w.w.| B S B v d f /.x.b g g g g 3 H.!.n # t m 9 I.XXOXP > [.[.P > {.rXpXrX=X X% g 6.=.b g g g B B g g g g ' A.=.( V.).C.A.^.w.",
"N...v j F B v g p p.j.$.g j j B j $ _.$.t @ n m = P XXOXR.% < 1 W U ].=X%XXX.Xk - v =.=.g g j F G F j g g g [ V.) =.g.$.o.u.<.=.",
"3.C S G F v v d p S.j.} g S F G u r h.[ q = n n 3 > .XXXR.< Q <X9XU [.OX.X XA - i n ) 1.g g j F F B g g g d p.C.6. .H G G X.' =.",
"@.B G G D v g s d D.w.Z g F G G * K.h.m 5 5 n n 4 & [.XXR.h Q 2XhXU |.=X.XI 7 =.] _ -. .g g g B g g g g g p v.A.@.H D B B B { ,.",
"} B H G F g g d f d.w.V g S G j p ~.s.m 3 r n n 3 - P XXY.h Q 3XhXK $X>X-Xp ( 1.M.-.8.g g g g g g g g d p u.w.F.H D j g g g C 9.",
"@.v B F B v g b V d.w.b g j G 8 J.!.%.m @ n n n 3 j < {.P.a W.9XhXJ %X>X=X0 V.).F.n.{ g g g g g g s i x S.7.w.o.S B g g g g V 9.",
"s.g v v g g s e.| ) 9.} g g j 8 '.h...t # n n n 4 F < k S < W.3XhXl XX+X[.7 F.C.^.| g g g g g g p i X.S.D.4. .B v g g g g g V =.",
"k.f s f x A B V ( _ -.%.s g ; e.'.h.[ t 3 n n n 4 F j & $ a W.3XuXl P.Y.q [ A.9...g B j g g s p i r.D.d.M.M ' d p p p p d g M 4.",
"1.$.s p f e.l.=.=.=.-.8.p i ; `.~.s.n r 5 n n t 5 g g s . a }.<X1X< 7 + r /.7.C g B F F g s p i A D.D.7.3.b m s d V g A f g ' w.",
"( V.A.C.F.F.z.] v M 5.w.' $ I `.h...n 5 t n n r 5 g d ;   = z l % X Z C ; $.g g B F F S g p i x V.A.z.,.4.p.p.u.l.2.g.u.f d ` -.",
"( d.V.7.v.F.j.` s g ` 5.<.$ '.!.h.` n 3 m n n q q s p X o Q.7X4XU.. 0 J.p - S F G G F j g p i l.A.C.).s._ j.).F.V.-.z.v.g.x 6.=.",
"( k.V.f.3.c.k.n.M f M ^ 7 e.@X!.s.n t 6 m n n 5 r p * @ E.8XqXsXkXW $ G.G.@ F F G G B g g i i c.)././.3._ Z.(.y.d  .5.=.b.v.n.<.",
"( f.C.Z.+.M $.k.m.{ s t 5 '.'.h.#.n 5 y n n n 4 t , @ - 6X0XkXkXkX4X$ C J.p u F G S g g g i f 9.m C d.=.M.D.x s g g V 4.-.m.q.A.",
"( M.s.C g g d p @.Z.c 3 | `.'.!.[ n = q n n n 3 t $ f * 7X0XkXkXkXE.$ p e.G.* S B g g g p i c 5.v v { w.b.x g g g g g } >.5.m.A.",
"<.x.A g g g g d p $.y.q Z ~.`.u.m m # n t t c 7 6 ; 8 = E 7XiXkXiX$ ; 9 Z J.u 8 g g g s i i [ :.m g v w.] g g g g g g v 6.d.B.A.",
"k.y.v g g g g g d p x.6 t ` ..[ m y # r 4 3 5 + @ , 8 V = a z E @ # , f Z e.G.* s p p i i p O.] b g } k.s d g S F F j g j.3.M.A.",
"s.{ g g g g g g g p Z j.0 n m m m q = O.=.=._ @ - , x Z H.u + - p 7 $ p Z Z J.u - p i i p c :.{ g C z...s g B F G F S g c.6.1.F.",
"d.A g g g g g g g d i r.%.6 3 n n 5 r.n.q.5.6 * - s Z H.I $ g g v x # - x Z X.R 3  .M [ %._ #.g g 3.c.s s g F G G G F g A.4.B.F.",
"c.A j B j g g g g g i i Z &.y 7 ! 6 3.Z.z.6 4 ; 9 Z G.H.2 ^ O.g g v 8 @ , x Z X.; ^ <.~ # 0 g g ] z.$.p d g F G G F F g V.4.A.Z.",
"x.C g F B g g g g g p p p i p u @ X i i i X $ 9 Z e.J.3 y / ( %.g g g $ $ , f Z q + o o . f g { =.c.d p g j F G G F S v 5.4.A.V.",
"g.V j F F g g g g g d i i p p p i p p s @ , X 0 A J., $ i p ] 5.x g g d X * , 0 $ % & . > v  .4.j.| p d g B F G G F B V >.9.A.Z.",
"k.V B G G g g g g g g g s p s g g g g g - % 8 X f - - g d p d 5.x s s s 0 3 ; @ & : @ q #.q.M.x.A p s g g S F G G F g } =.w.V.A.",
"M.V B G G B g g g g g g g g g g g g g g d o & $   3 g g g p p _ / c f m A.! y > > + ^ 4.1.g.r.p p d g g g S F G F B g %.=.9.B.F.",
"B.A j G F G g g g g g g g g g g g g j B S p o % % $ g g g p x 9.j.g.M.4.D.-.^ 3 4 b x p p p i p d g g g j F G G B g g &.>.5.C.A.",
"z.C B G F F S g g g g g g g g g g S F S F G S & . . $ g g p m w.N.n.8.1.5.[ d i 8 p p p s s g g g g g g S G G G g v @.2.5.,.w.A.",
"b.C j F G F F B g g g g g g g j F F G G G G G G j * X g p p %.w.w.w.2.c.Z g g g g g g g g g g g g g g B G G G F g g  .q.5.>.w.k.",
"4.| g S F G F F F B j g g g B S F G G F G G G F F j g g p x 9.%.f  .c.@.g g g g g g g g g g g g g g S G G G G S g  .%.9.4.4.n.k.",
"{ &.C g F F G F G G G G G F F F F F S F F F F F H Z { ' ..9.7.s s V 3.v g g g g g j B j j g g j B F G G F G G B g { 8.9.4.4.q.=.",
"g w.6.Z g B V V B V S F F B B g g g V C V B C %.5.w.w.w.q.#.x g g Z =.g g g g j F G G G G G G G G F F G G G F B g #.6.6.4.5.q.[ ",
"g b w.6.y.r.p.y.o.$.Z V Z @.@.] ..$.&.x.p.p.&.^ >.w.M s p d g g g { =.g g g B F F G G G G G G G G F G G G F F B g %.3.8.5.9.v g ",
"g v { v v @.4.b.b.q.4.=._ 9.@.6.>.1.=._ v v V Z w.w.{ g g g g g g Z 5.v g B F S G G F F F F F F F F G G F G G B g ..#.2.w.v g g "
};
