/* XPM */
static char *d3161c3325554d5ad91c3c319fafe490StM9JoCje7AoJUc6[] = {
/* columns rows colors chars-per-pixel */
"64 64 233 2 ",
"   c #0A0605",
".  c #0A0706",
"X  c #160A08",
"o  c #1E120F",
"O  c #1D1816",
"+  c #240F0C",
"@  c #2B120D",
"#  c #32120E",
"$  c #261713",
"%  c #241C1A",
"&  c #2C1D1B",
"*  c #371C18",
"=  c #27201B",
"-  c #2C221C",
";  c #33221E",
":  c #3B211D",
">  c #35281C",
",  c #382924",
"<  c #312A28",
"1  c #461B14",
"2  c #561D16",
"3  c #651D16",
"4  c #43231C",
"5  c #4C231D",
"6  c #56251C",
"7  c #5A241D",
"8  c #68251D",
"9  c #78261C",
"0  c #452622",
"q  c #4A2723",
"w  c #442B25",
"e  c #4C2923",
"r  c #4A2C29",
"t  c #572620",
"y  c #542B26",
"u  c #5B2A24",
"i  c #5D2E29",
"p  c #45362B",
"a  c #55352A",
"s  c #5E312B",
"d  c #493933",
"f  c #573831",
"g  c #632C25",
"h  c #6C2C25",
"j  c #622F29",
"k  c #6A2F29",
"l  c #732C24",
"z  c #7B2E24",
"x  c #752F28",
"c  c #663826",
"v  c #62332D",
"b  c #6C322A",
"n  c #733229",
"m  c #7B332A",
"M  c #783629",
"N  c #653731",
"B  c #663932",
"V  c #6A3B35",
"C  c #773B33",
"Z  c #58432F",
"A  c #4C4136",
"S  c #564739",
"D  c #684839",
"F  c #744533",
"G  c #68543C",
"H  c #74583D",
"J  c #5A4E48",
"K  c #675649",
"L  c #6F584A",
"P  c #73624C",
"I  c #7A6E67",
"U  c #85291D",
"Y  c #8B2B1E",
"T  c #97291E",
"R  c #AD281D",
"E  c #B2271B",
"W  c #B52419",
"Q  c #BB261B",
"!  c #BD291C",
"~  c #832E24",
"^  c #892D24",
"/  c #952D21",
"(  c #9A2D23",
")  c #843025",
"_  c #8C3226",
"`  c #843229",
"'  c #8C3329",
"]  c #82392D",
"[  c #8D3A2C",
"{  c #943326",
"}  c #9B3223",
"|  c #933329",
" . c #9B382B",
".. c #8A3C32",
"X. c #A62E23",
"o. c #B22D22",
"O. c #A43325",
"+. c #AC3426",
"@. c #A33529",
"#. c #AD3428",
"$. c #A43C2E",
"%. c #AB3B2B",
"&. c #B83526",
"*. c #B33528",
"=. c #B43B2A",
"-. c #BC3C2B",
";. c #C51604",
":. c #C32A1D",
">. c #C92C1F",
",. c #D6301B",
"<. c #C52E21",
"1. c #CD2E21",
"2. c #D12F21",
"3. c #CC3424",
"4. c #C73826",
"5. c #CB3728",
"6. c #C33D2B",
"7. c #D43223",
"8. c #DB3425",
"9. c #D53728",
"0. c #D63A29",
"q. c #DB3A29",
"w. c #E23626",
"e. c #E53728",
"r. c #E43928",
"t. c #E83928",
"y. c #8B4635",
"u. c #974433",
"i. c #8D5B3D",
"p. c #A9422F",
"a. c #B9412E",
"s. c #A64733",
"d. c #AD4531",
"f. c #B74C35",
"g. c #B85338",
"h. c #C6422E",
"j. c #CC422E",
"k. c #D3432E",
"l. c #DB422C",
"z. c #C64934",
"x. c #D64430",
"c. c #D54B32",
"v. c #DA4B33",
"b. c #D84D3A",
"n. c #C75339",
"m. c #D95337",
"M. c #D45639",
"N. c #DB543A",
"B. c #DD5B3B",
"V. c #E3432E",
"C. c #E9432E",
"Z. c #E84630",
"A. c #E44D34",
"S. c #E94D34",
"D. c #E65136",
"F. c #E35639",
"G. c #E95539",
"H. c #E35B3B",
"J. c #EA5C3C",
"K. c #DC603E",
"L. c #E3623F",
"P. c #EA613F",
"I. c #8F574A",
"U. c #886847",
"Y. c #91724E",
"T. c #A67553",
"R. c #8C7A70",
"E. c #DB5543",
"W. c #DB5846",
"Q. c #DC5B4A",
"!. c #DD6646",
"~. c #DE6453",
"^. c #E56642",
"/. c #E96843",
"(. c #E87148",
"). c #E06757",
"_. c #E16B5B",
"`. c #E26F60",
"'. c #E37464",
"]. c #E57B6C",
"[. c #A18258",
"{. c #B88859",
"}. c #948475",
"|. c #AD997B",
" X c #C6915F",
".X c #C99561",
"XX c #CB9863",
"oX c #D19E66",
"OX c #E88578",
"+X c #D5A269",
"@X c #DCAB6E",
"#X c #DEB171",
"$X c #E4B373",
"%X c #E9B876",
"&X c #EBB976",
"*X c #EABB77",
"=X c #EEBF79",
"-X c #EFC079",
";X c #F0C27E",
":X c #918887",
">X c #B09D91",
",X c #BFA292",
"<X c #A9A5A5",
"1X c #BAB6B4",
"2X c #E99E83",
"3X c #CCB291",
"4X c #CBB7B1",
"5X c #EDC388",
"6X c #F1C584",
"7X c #F2C88B",
"8X c #EFC891",
"9X c #F4CD93",
"0X c #F1CD99",
"qX c #F6D19B",
"wX c #DFC7A6",
"eX c #F7D5A3",
"rX c #FAD9AB",
"tX c #E5C9B5",
"yX c #FBDDB2",
"uX c #F9DFBB",
"iX c #FCE0B7",
"pX c #FDE2BC",
"aX c #D8D0CD",
"sX c #D9D7D6",
"dX c #F0D4CB",
"fX c #FEE4C0",
"gX c #EEE6DD",
"hX c #E9E8E7",
"jX c #F5EBE9",
"kX c #F5F3F3",
"lX c #F9F5F4",
"zX c #F9F8F7",
"xX c #FAFAFA",
/* pixels */
"j i j i i j &.:.>.>.:.7.t.r.:.W Q ! :.:.:.:.Q :.*.4.` j j k i i i i E g e y V V V B B B V V V V V V B B N B B B v n q.q.8.k i j ",
"i j i i i [ :.>.w.' x z ~ X.Q :.w.t.8.7.t.>.! 7.t.t.t.r.:.Q Q ^ k T ! ! y e i v V V V V V V V B N v v s v B V B N i w.<.! k i j ",
"i j i i ..H.B.t.y i i i i k ^ ! 2.t.q.*.' m k i k m } &.9.r.8.7.Q Q c.j.5.u e y i v v B B v i i i i i i i i V B v i q.7.:.k i i ",
"y i j i ! N./.J.y y i i i i n 7.7.*.i i i i v 0 , B H e q u / %.f.f.d.{  .X.g : e y i i i i i y y y e y y i B B i i 9.r.:.z y e ",
"u e e g Q 2.:.H./.u.k u y i j 5./.f.i i s N a p Y.Y.Y.U.H H G , S L U.i.U.U.Y.F h g y y y y y e q e e e e y v N i i 4.r.8.X.u z ",
"g y h ^ :.w.! 7.Z.S.J.J.h.[ g #.J.(.[ i i s d 3XpXfXfXfXpXiXiXyXpXyXrXeXqXeXrX8XF O.0.H.q.5.+.k e q e e e e i N i i -.S.7.2.*.@.",
"T z x :.7.@.` b b ` +.v.J.P.H.H.l.H.^.%.i Z |.pXpXrXrXyXpXyXrXrXeX9X=X=X=X=X6X9X3Xi 1.0.7.t.0.J.B.s.q q e e y B v i a.A.7.7.t.2.",
"Q W Q :.@.i i i i i i i | q.8.,.;.7.L./.U.R.pXqX6X-X-X-X7X9X9X6X-X=X=X=X=X=X-X-X6X[.C 8.w.1.! t.>.1.3.q e q y B v i $.V.:.8.e.>.",
"W ! Q >.j i v v s i i v i i | 7.w.,.C.T.P pX7X=X=X-X-X-X-X-X-X=X*X=X=X-X-X-X-X-X-X;XU.i.v.! 7.n j &.:.d.q q e N v i i 7.Q 1.7.2.",
"! W 7.3.i s N B i i N B s i i i X.q.n.L wX6X=X-X-X=X-X-X-X=X=X-X=X-X-X-X-X-X-X-X=X=X-XP i.<.*.j j n 8.3.q q e N v i i 4.:.! :.7.",
"W Q 7.| i N B B N i B N B i s i i [ f 3X9X=X=X-X*X=X=X*X=X-X-X-X-X-X-X-X-X=X-X*X=X*X=X#XG p.*.k m m X.r.[ q e N N i i R 5.k.>.8.",
":.! 3.i s V V V B s B B B s B i y w 3XrX*X*X-X*X=X-X9X=X*X=X=X-X=X-X-X-X=X=X$X@X=X*X$X-X*Xc a.m k ` m C.n.q e B N i i o.B.M.&.:.",
"8.2.*.i N V B V B i N B v i v i y & rX=X*X=X*X@X=X=XeX=X-X-X-X*X-X-X6X=X=X=X=X$X=X=X=X=X-XH  .=.k i b 5.H.q e B v i i ' H.m.q.Q ",
"t.r.j i B V V V B i i i i i s i y ; =X=X*X=X@X*X=X=XrXrXqX9X-X#X-X6XeX=X=X=X=X@X$X=X=X-X=XL q f.5.n i  .J.g e i i i i s.L.m.Z.Q ",
"t.9.i i B V V V N i i i N B B N y , =X=X*X=X=X=X=X=XqXrXrX;XqX5X;X9X9X-X=X=X=X$X@X=X=X-X-XL q i z.w.i j G.d.e y i i i u.G.Z.J.Q ",
"t.` i i B V V B v i i N V B B V s p =X=X*X=X=X=X=X=X=XeXpX=XyX*X;XeX=X=X=X=X=X=X*X=X=X-X=XP 0 i u.t.j i t.^.g e e y y !.Z.V.v.! ",
"' i i s V V V N i i i V V V V V f f -X=X*X*X*X=X=X=X=X9XpX0XpXeXyX6X=X=X=X=X=X=X$X*X=X-X-XU.0 i ` 2.n i n t.A.$.h h c.H.8.c.5.:.",
"i i s V V V B s i i v B V V B B s S -X*X*X$X@X=X=X=X=X=X6X5XfXyXeX-X=X6X=X=X=X@XoX$X=X=X-XY.0 i n :.m j i @.t.J.P.J.V.4.4.c.5.:.",
"i v V V V V i i i i s B V B B V s G =X*X*X#X@X=X=X=X=X=X=X8XuXyX=X=X7XpXqX;X=X$X.X@X=X=X-XY.w i j w.m k i j n ' 5.t.t.H.9.H.9.i ",
"N V V V V N i i i i i N B V B V a H =X=X*X+X X=X=X=X=X=X=X7XpXeX9X=X9XpXrX7X=X=X.X+X=X=X-X[.r i v t.k j i j i ` n h.J.P.H.f.i i ",
"V V V V V v i i i i i i v B B V a H =X*X=XXX X$X=X=X=X=X=X=XyXrX=X=X9XrX;X9X7X=X XoX=X=X-X[.w i M t.k j i j i j m p.G.^.s.i i v ",
"B V V B B v i i i i i i i i s v r H @X+X.X X.X+X=X=X=X=X=X=X=X=X=X=X=X-X=X=X=X=X XXX=X=X-XT.r i [ 8.` i j i i m v.m.^. .i i B V ",
"V V B B B s i i i i i i i i i i q G oX X.X.X.XXX=X=X=X=X=X=X=X=X=X=X=X=X-X=X=X$X X.X$X=X=XT.w i s.2.O.k m | +.L.L.K.` i v B V V ",
"V V B N i i i i y e e e y y i i q f {.{.Y.T. X X@X=X=X=X=X=X=X=X=X=X=X=X=X=X*X+X X X{.{.XXY.w i g.k.L.v.r.t.c.v.5.n i v B B V B ",
"B V N i i y e q q q g h t 4 e e , O $ - < , a {..XoX@X*X5X=X-X-X=X=X=X=X@XoX.X XT.H % - > = & e k.g.g./.A.^.L.k.@.i s V V V B B ",
"B v i i y e q e / R E :./ * F .., J <XsXsXaX:XJ H {. X.X.XoX$X7X6X$XoXXX.X{.U.d R.xXhX4X<X:X< D y.: n F.3.V.^.(.M i B V V V V V ",
"i i y e q q g R w.q.3.j.4.d <X<XgXlXjXlXhXxXxXhX:XA d G G G A - A J Z S S S I sXxXxXxXhXhXxXkX<X<Xe 4.C.:.r.G.P.n i N V V V V B ",
"y e e e q t 1.t.t./.d.z.L.' I sX4XT.M U.zXxXkXxXxXjXgXsXsXsXhXlXkXhXsXsXgXdXzXxXkXzXxX<XI <X4XaXL 9 8.! W 8.G./. .i i v B N v s ",
"e e e q u <.t.S.M.M m m $.v.U 7 z z U 7 kXhX}.aXxXxXjXsXkXxXxXxXxXxXxXkXkXxXxXkX}.sXxXK _ l 3 2 9 8.w.c.F.C.^.P.n.y y i i i i i ",
"e e e h 1.G./.f.j i i i x ! W U M x./ g 1XP h D hXxXgXS I aXxXxXlXhX}.p hXxXxXI F P 4X1 / } _ 9 2.2.t.t.J./.G.J.J.g e e y y y e ",
"y u ^ :.G.M.` i j i i j ^ :.1.2 h.x.O.U 1 a.+.8 K xXhXD y S sXxXkXG : v 4XzXR.7 } y.* Y Y 6.O.6 X. .` @.h.J.G.Z.C.l.q q q q q e ",
"W W W 7.n.b i b i j m ] ! q.) 5 h.x.-./ } =.x.} 8 d I.c Y : A 1X}.@ u.] R.P 2 } -.x.O.T / x.x.u e i i i i m F.S.7.w.T t q q y g ",
"W :.r.N.v v v v i y y.L.1.b i & x.x.x.=.=.-.x.x.+.U 1 9 =.U 5   + ' +.9 2 9 } h.6.-.} Y ~.x.x.4 i i i i i i =.J.:.Q :.A.v.^.M.8.",
"A.t.t.] v N v j y u /.M.k i i 0 Q.`.x.x.k.x.x.x.x.k.O.-.x.} } 8 } x./ T / =.x.x.-.x.=.n.'.E.x.t v v i i i i ^ J.:.W F.(.G.J.^.t.",
"S. .j s B v j i e f.c.%.i s s y b._.x.x.x.x.x.x.x.x.=.-.x.6./ } j.x.j.6.x.x.x.x.x.x.x.Q.'._.x.x V B s i i i _ F.Q :.n.%. .d.<.:.",
"4.n N V B j j y e K.c.' i N B w x.E.x.x.k.h.x.Q.W.x.6.6.x.~.6.x.x.x.x.b.Q.x.x.x.x.x.x.x.'.~.x.t B v i i i y a.G.9.| C V V ] / :.",
"@.v V V V j i y y L.t.m i B V : x.`.Q.x.6.=.x._._.x.x.x.x.]._.x.x.x.x.b.~.x.x.x.6.-.x.x.OX].x.6 y i i i i e B.J.$.C V v v v ` 2.",
"' v C V V i i y u k.t.b i N f : x._._.x.-.=.x.].'.x.x.k.x.'.OXx.x.6.6.b.~.x.x.x.-.=.x.v.2XOXx.g 0 i i y e d.t.J.C V s i i i n w.",
"@.j v B v j i k b k.t.k i s w 7 W.'._.x.6.-.x._._.x.x.k.x.b._.x.x.6.+.b.~.x.x.x.6.+.x.E.2XOXx. .& y q g K.0.t.$.N v i i i i b w.",
"h.i j j i i y y.[ Q w.' i i & ^ N.OX].b.x.x.E.OX'.x.x.x.x.x.Q.b.x.x.h.x._.x.x.x.k.O.x.E.OXOXx.x.% 0 ] K.L.7.| v j i i i i i b :.",
"v.u y u g m v b W ! >.*.y 0 5 Y 6.OXOXQ.b.b._.OX].b.x.x.x.x.v.x.x.x.j.x._.b.x.x.x.h.x.x.N.x.x.x.y y L.k.A.x ^ y e e e e y i x 7.",
"3.=.y e u y.n.:.:.:.>.q.e & 9 Y x.W.].h.n.b.).OXOX_.x.W.Q.E.x.x.x.j.=.x._.Q.b.x.x.x.j.x.x.x.x.x.Y 5 L.0.4.g z y y b i M u i ^ t.",
"W F.J.G.P.P.m./ j x 8.t.h 5 Y O.x.j.W.h._ k.b.].'.].b.~.~.Q.x.x.x.%.%.x.N.E.b.x.x.x.%.x.x.h.6.} Y M [ 2.7.f.g.d.n.5.z.d.u y ~ >.",
"W k.F.0.B.P.c.~ y i ~ 8.8 l Y } -.k.k.=.) h.x._.'.]._.'.~.Q.x.x.j. .=.x.x.x.x.x.x.x.{ { } / / / Y ~ s j.! c.(.P.F.>.m.B.n.g 9.:.",
"W v.F.l.4.N.v.C.x u x R * 8 Y Y U Y Y U z -.x.x.x.E.E.x.x.x.j.=.{ ) _ x.x.x.x.k.x.x.z { Y Y Y U 9 z * +.! H.!.s.y | 8.:.Z.B.C.<.",
"W l.G.H.o.x %.v.Z.) y h 3 X       $ w C l z { -.x.x.x.x.x.x.-.{ ~ ) ~ @.h.x.x.x.x.=.z  .I.&         6 ! Z.L.g y i i b 7.>.Z.r.J.",
"W A.z.n i i y e @.H.m y K.G.+.7 - P O d g z ~ { %.h.j.%.@.{ ) z z l z ) _ { { _ ) ) ] M O S - U y j ' t.V.g i i i i i ' 1.8.Z.J.",
"<.M.M i i i i y e %.H.M.H.J.t.t.C >XdXI - $ 1 8 l _ _ _ ~ z l l l l ~ ~ z z l ~ * + @ K tX4X0 <.z i j t.{ i i i i i i j 9.k.D.J.",
"v.s.v i i i i i y e M.3.H.h.-.t.a.K ,X3XR.; @ X   o + + X   + # @   . + X X X X X O K >X>Xd 9 ( k i ' v.y y i N B B s i c.4.A.J.",
"j.` i i i i i i i e M c.H.n.` #.S.v f B ` E >.l f D 1 # # % j i j * # @ * 5 e % e e : ; & 5 <.` i n m. .y i v B V B N i N.9.3.P.",
"k.m i i i i i i i y q u.k.t.t.t.t.A.!.C.r.t.l.; I.I.m 7 5 , i i j : 4 7 m m m , } / x _ *.! #.i i 6.M.y y i B V V V B i H.7.D.P.",
"B.M s v s i i i i i q q M z.m.q.w.w.V.H.c.4.Y r I.M n 7 5 7 X.i i 0 * 7 n m m e 8 8.q.8.X.k j i / m.%.e y i B V V B B i F.7.J.H.",
"M.n i B v i i i i i e e e q e e e e q q q e & V I.m 8 7 0 3 W *.i 0 * 7 g m m b * 9.j i i i i ` :.N.y e i s B V V B N j 8.7.J.F.",
"z.b s B B i i i i i y q q e e e q e e y y i & y q q 4 * - & ( 8.g 0 & * 4 0 0 a 6 X.k j j j | 7.c.] e y i v B V V B v b 1.w.J.H.",
"v.b v V V i i i i i i i y e y i i i i i i y - , w w , - ; 0 y 8.g q , & - - = = 5 T 3.#.#.r.A.M.m e y i i N B V V B i ' :.t.F.J.",
"A.b v V V v i i i i i i i i i i i i i i i 0 , J , - - = - e e Q R h 4 & - - - A p g 7.7.3.z.u.e e y i i i N B V B v i *.:.w.D.P.",
"D.M s V B V i i i i i i i i i i i i s v e < S , - - - = % e g w.c.z.{ - - ; ; p K < : e e e q e y i i i s B V V v i i -.1.8.G.J.",
"m.n v V B B N i i i i i i i i i i N B r O o         . X % e z t.S.C.9 o         . . $ ; y y i i i i i i N V V V i j @.5.8.2.t.J.",
"V.M s B V B B v i i i i i i i s B B V , % % - = - % % % % e *.t.t.t.8 y & & ; ; ; & & & i i i i i i i v V V V B i i | r.8.1.t.v.",
"7.[ i N B V B B B v s i i i v N B V V B N s a r r e e y q g w.*.u { N. .y e q 0 q e i i i i i i i i B V V V V N i | *.w.7.7.C.v.",
"` &.n i B B V B V V V V V B B B B B N B B B B B C m ` ^ } w.q.y y b 4.j i i i i i s v s s i i s v B V V B V V v i ` q.w.7.7.r.:.",
"i t.9.m i v b b v b N B B v v i i i b n b v n *.8.r.t.t.r.#.g i i m :.i i i i s B V V V V V V V V B B V B V B v i #.9.9.7.8.r._ ",
"i k t.9.s.u.f.s. .%.m b m @.O.} } %.-.B.g.g.-.R 1.t.x y e y i i i ` :.i i i v B B V V V V V V V V B V V V B B v i *.4.q.8.w.j i ",
"i j ` j j @.7.V.V.r.7.:.Q w.@.9.1.3.:.! j j k m t.r.` i i i i i i m 8.j i v B N V V B B B B B B B B V V B V V v i  .#.5.t.j i i "
};
