/* XPM */
static char *_12e540180c54d2fcca1e0abf065057fQIDB38YbMJxoqRp7[] = {
/* columns rows colors chars-per-pixel */
"64 64 87 1 ",
"  c #D61C01",
". c #DA1E04",
"X c #D91F08",
"o c #DD2106",
"O c #DD220B",
"+ c #DE2613",
"@ c #DF2917",
"# c #DF2918",
"$ c #E32306",
"% c #EA2707",
"& c #E3250B",
"* c #EB2709",
"= c #EB290C",
"- c #E22711",
"; c #E42A14",
": c #EC2C13",
"> c #E32C1B",
", c #EC2E19",
"< c #EC3016",
"1 c #EC321D",
"2 c #ED3A1F",
"3 c #E42E21",
"4 c #E53225",
"5 c #EC3521",
"6 c #ED3A25",
"7 c #E73729",
"8 c #E83728",
"9 c #E73829",
"0 c #EC3D2A",
"q c #E6412E",
"w c #ED422D",
"e c #EE4A2D",
"r c #EF542F",
"t c #EC4532",
"y c #E74933",
"u c #ED4A36",
"i c #EE4D39",
"p c #EF5235",
"a c #EF5837",
"s c #EE543D",
"d c #EF593E",
"f c #F0653E",
"g c #EF5C42",
"h c #EF6246",
"j c #EF6748",
"k c #EF6849",
"l c #F06C47",
"z c #F06748",
"x c #F06C4B",
"c c #F0724E",
"v c #EF7C53",
"b c #F07350",
"n c #F17651",
"m c #F17852",
"M c #F17A53",
"N c #F17A54",
"B c #F17E56",
"V c #F18057",
"C c #F28358",
"Z c #F28459",
"A c #F2875B",
"S c #F2885B",
"D c #F2885C",
"F c #F38E5F",
"G c #F28F60",
"H c #F39060",
"J c #F39563",
"K c #F39664",
"L c #F39A67",
"P c #F39C68",
"I c #F39E69",
"U c #F3A16B",
"Y c #F4A36B",
"T c #F4A36C",
"R c #F4A66D",
"E c #F4A96F",
"W c #F4AB70",
"Q c #F5AF73",
"! c #F5B375",
"~ c #F5B576",
"^ c #F6B778",
"/ c #F5B879",
"( c #F6BC7A",
") c #F6BE7C",
"_ c #F6C27E",
"` c #F7C680",
"' c #F7C982",
/* pixels */
"uo====*=1066=**=tiijBxsnFggxNWY/!~SiisDisiisBii0*11*%%*=,=,uiiii",
"w&8w&&. iiiit5=*,iissiiiiiixkNHEWLFCFssiBxCxiit,*&&,+O.o&,tiiiis",
"ii 9iiiiiiiiii1=5iiiiiiiiigHxCNsnixgchiiiiii1,***oOi4i> +iiiiiJ/",
"iitiiiiiiiiiiiu,,i,6iiiiiiijDgiigiiiiiii0=,1:*%%*& 4isiiiiiiiiPR",
"iiiigxiiigssxiii0,=6iiiiiisLBgsiiiiiiigi5**=,*%*,:8igxisisghxiPQ",
"jhinsgisnngihiiiu56iiiiiiiihhBGgiisgiiLsi6,::*%1O&wiiiinhgjicmP!",
"ngsciigcsiiiiViiiiiiihiiinshkiixhigkiiiiii0iw6*,;.OiiiiiisiixDUQ",
"gxkciiiCsiisisiiiiiiGniixDJFgjDgsCiiiu61wi+ &&>;: &iiiDssVnnxELP",
"BW_/igimiZiViiiiiiigBiiihscmhBK(sxiit:%%*ti..ooO=&5iihYhxiixDhRY",
"~TQRjCiigHgi,6iggiixsDsbmgiigxsxi,1w=**:1ii04i.OiuiiiiHZxigiBxZ(",
"PPhkghsmixNw,1iggiixkFsgxsiiiiii0**=,1uiikiiit.OuixhiiR)WsnkLgsR",
"Ksiinshzs!gt,:0uicsnKBxsit01,5,5i:==,iiiiJssNitiijgxHBGP(CNskixg",
"i6w6wgZkiiii5*,5ihxCFncsi1*****=,:*&wihxxPDCFhiiixign~PRLjniiihP",
"3o:5wiiiiu>O;=5iiisimYNii:*;**=:*%$o,,wuZZisjciixxgigWCmBiiiiijZ",
">.&1;60ii8Oo,:50tnVijsiu,$O.**:**&>&. ::dRTiiiVigxCsgcgisDxigcii",
"> ...5,0iiOO,*1=:diixii5$ O.*,6&oX>t306*wignFnsiiissshiisPsiijBx",
"g>-&Oiiiii0o5=O&=iinst,=.O&..*$. ++ggii0iigC~'/ZiihjiiiiimsiiisD",
"msi4;iiiii9.+.3.;1igi;.o.u. $$.&&wgDDFKsixsB~H_KsigciiiiiiiiiisD",
"ZGg3.uiiih4 Oyi>,:uuu;.88iu&.$.&=6iiicRgiFRjCDRjsingu9itu4iiiiig",
"hKhu>uiiictOOqi4;&::,+8ii91&.,O. .wiihPFHPR/!(~siPHi8O>>3+@utihZ",
"nQZc5iiiiii5iisi0o&==1w;. .&>iy+..,iiiZRBsD~Q(HZYDWCu+>isu+3>iik",
"Q(YLiixhihu0iicgi9.**%*$.&Otiixi8o=tiiiisiiih/RZniDRxiisBxiiiiin",
"ZSPHiiZsinsiiniii0O&....Oigiiiiii+6iiiiiiiiixbHkihHhNiijxjiigcim",
"FF~nLbsikciihxsxiii8O>@+9iciiiiik0.6iiiiiiiHHYLxDFxismFsiikkigiR",
"hBWRBichxgsxhsixnhiiuhHDZxsxixiict ;ihhxhijFitxQRhiiidsiiisgsimL",
"iLEZZiiiiiiciiiihxiixH(TijgxixggxiqiigghRFLn6*0sFgiiixhiiiixjh/P",
"sDsmkisiiisFsiiCniiicx'_ZFcBshhiiiiiiuuinhBs1*,iDniiiiiiiiDQHB!B",
"iiHQsgnkhigCDxZPxhDgiF/Lhiiiiiiiiihs=.&661,=*%,ixKxiiiiihgRWDkKT",
"isLZzZsjxixZgxD'FcDDDxBhigiimiiiiigd0..*$%*%%%%:iNRiinsHLnPZL~D!",
"ZDTckcijKhFgiB!(RZFndBsiingigiiijiiii8;&..&.&o%*isTxiZsFxmLnFHHR",
"Lxmcckt0uu:tiiZHmVgitwiiuiiiiiiiBgiiiiit0iit&.=*6gHHk6,w,nsnFicL",
"xxHPgt;&&&$1xFZiiuuu::5:15iiiiiihgiuiiiiiiiO.;*$.:0u.&,,1*tiZigZ",
"YWns6-.  O&,cKCi0,0t===,1,uuwiiii0:.O=iiiii3.... &.+,*=wBescnHDs",
"HBFnw66,&&=wiCi0:00,**,0i61,0iiii==..;iiiiii8;;3+6&;55uxidgxgHgV",
"VihBg5:,=:*5ii5,=1:==uuiiiiiiiiu,*:; OiiiiniiiiGh>=.,tiiskgixBD!",
"LBiii5uw,u6151==,**:1tiiiiiw6iiw=**&..iiiigiiisx6$=5i=wBNggxgisH",
"HZi1=1ii601&&%$$.&=0611iiuiw0ii===%=&.,iiiiiiiFiw1tiu&5iijFDnhiD",
"Cgiw6iiii5.  ...$**,1*,ut:0iiiit:,*=68.OiiiiiiisCcgKd$,=::5sDciZ",
"Uiiiiijxi& &,1wu.$%$.5115,uiii5:5i=*:6*.;iiiiiiihgncu &==5:isiic",
"FiiiiiDhi>.uiiii; &.>iiiiiiiiw*5ii,:==5&,ggiimscVBE0&Oo*tBtiiiiV",
"nxiiiinsiiushiBst..;,iiiiiiiiiwiiii,,wi.uhhixxigZN>.$*;0isiiiicZ",
"isiiisihx:=sjisi61tiiiiiiiiiiiissiiit*,=igiijcisZh>$6565iiiiiihG",
"sniihe=8.*,ui,0t1twiiiiiiiiiiigHxiiiw%*,iZhBDVDYFsw,*=*:,,iiiicP",
"gBigi;.$.$**5o**&=*0iiiiZEhiiiixishi1%:tiBnPJsxs0::*&$.O;=uiiiGK",
"iginht8>...==..$.w:6hiiixHKhggiiscgw.*0iinPcw0i5=6ww&&6t;,igxgEC",
"xiiigiihitiiwuiuti55xsxhBRZDHnnn5==*o0ihngmiw0i:13.o.6i+&6ixDghH",
"giigHgsFixxixgshniw,iigCZnihLhCh*%&1igsPPRZsiiitxB>-wiii15inciiP",
"iiimciigisgisickisdiiiiisxnHhii6   iHDgn/QciiiiZ^CGjijniiigPsiZ`",
"KPhxHgnhsiijcnsiihhisNiiiiBTEHZx06iBLRRDRxiiiiiCcssxiiiigsZBiHQB",
"sHHjchDkBhitqgiiii0,5tiiiiiihxnFjgxHH(dcTDFiiiiiZFiiiiiikhxsiBYZ",
"YFBZLmhgmxi+.,uiiu=:,,uw=*0iiiiHUxxYF<*=ecLLxisiFhiiiisjiiiZssRK",
"WLKRJ()mZsi3 %=,uiw=::0*::*iiiiKTg//c=*&.w0sHHciiiiiisKcmijHPxKD",
"cjCmU~~RLcxx0..%:51=%=5,=*1iiiissZFR6=&,0t:=uxsiiiiiiixsgixgiHe:",
"BHCiF!nciiiLgu;=****%==&O5iiiiic!QFc,$-:iit:0DZiimgiiiiiiiiisl==",
"/BcLWKiiiiixPgi,o;.--.&OidBisiiiiHw.&.O#thgiiciiiiiiiiiiixiii0*=",
"_gcPkhiiiigcui6o$iiD6OX3ZcDZxiiignt5;$6i:sgiinsiisgiiiiiihixhu=*",
"!biigQxhFs0,$$&&uiiFxvtgNiii,5iiggiiwiiiiiiiiiiiinNsu,iiZiisii:*",
"Lxig~Rns>:$&. isxcGxcDBhi61>>,iibgiiiiiiiiiiigxi61iiiwww,iihii,*",
"ViiHUFisO;utkvFRNYEjCHig7o$.isihsisjiiiiiisiisgt.;i5,06,0iicii,*",
"hiiYEWYZcBKLWQYnsJghHCsJ> .-DPWSpax21ihkisniiii4 -:,1,*:tiiiii:*",
"jiNQnggDBR~SHRLwwiinCimZ6o&uhFd=*,=,iisgiiiiiiii ..o&$,=,iiiiw*%",
"iihDRmFPDRximu,=5sGBxhhcitsYRZr$$&1iiiiiiiiiiiii0&>t4.11,6iii,*%",
"w:*==6utmVt0,**,sVNxgiigmiQ)_'f$-..OiiiiiiiiiiiiiiiuO..$*=,6w=**",
"w*%%%%%***%*=1pDZJKPPnnBKQQ~`'`J2;O-iiiiiiiiiiiiiw1=%$$%.=**:**="
};
