/* XPM */
static char *_607888d6e5b4a9498d37aa7887d293298eVIkBGZ0W1BWsx[] = {
/* columns rows colors chars-per-pixel */
"64 64 96 2 ",
"   c #D61C01",
".  c #DA1E04",
"X  c #D91F08",
"o  c #DD2106",
"O  c #DD230B",
"+  c #DE2612",
"@  c #DF2A18",
"#  c #E32306",
"$  c #EA2707",
"%  c #E3250B",
"&  c #EB2709",
"*  c #E7290E",
"=  c #EB290C",
"-  c #E12711",
";  c #E42914",
":  c #EC2C13",
">  c #E32C1B",
",  c #EC2E19",
"<  c #EC3116",
"1  c #EC321D",
"2  c #ED391E",
"3  c #E42E21",
"4  c #E53224",
"5  c #EC3522",
"6  c #E53C25",
"7  c #ED3A25",
"8  c #E73729",
"9  c #E83728",
"0  c #E73929",
"q  c #EC3D2A",
"w  c #EE4526",
"e  c #E6422E",
"r  c #ED422D",
"t  c #EE4B2D",
"y  c #EF532F",
"u  c #EC4532",
"i  c #E74933",
"p  c #ED4A35",
"a  c #EE4D39",
"s  c #EF5234",
"d  c #EF5837",
"f  c #EE543D",
"g  c #EF5A3D",
"h  c #F0653E",
"j  c #EF5C42",
"k  c #EF6246",
"l  c #EF6648",
"z  c #EF6949",
"x  c #F06745",
"c  c #F06B43",
"v  c #F06748",
"b  c #F06B4B",
"n  c #F06C4B",
"m  c #F06D4C",
"M  c #F0714E",
"N  c #F0724E",
"B  c #F0724F",
"V  c #EF7C53",
"C  c #F07450",
"Z  c #F17651",
"A  c #F17852",
"S  c #F17A54",
"D  c #F17B54",
"F  c #F17C55",
"G  c #F28253",
"H  c #F18157",
"J  c #F28358",
"K  c #F28459",
"L  c #F2885B",
"P  c #F2885C",
"I  c #F28E5F",
"U  c #F3955E",
"Y  c #F38F60",
"T  c #F39060",
"R  c #F39563",
"E  c #F39664",
"W  c #F39A67",
"Q  c #F39D68",
"!  c #F39E69",
"~  c #F4A067",
"^  c #F3A16B",
"/  c #F4A36B",
"(  c #F4A56C",
")  c #F4A96F",
"_  c #F4AA70",
"`  c #F4AE72",
"'  c #F5AF73",
"]  c #F5B376",
"[  c #F5B475",
"{  c #F6B778",
"}  c #F5B878",
"|  c #F6BD7A",
" . c #F6BE7B",
".. c #F6C27E",
"X. c #F7C680",
"o. c #F7C982",
/* pixels */
"p o % o % = = % o # # % = & & = u a a l F m f Z I j j b S _ / } ] [ L a a f P a f a a f F a a q & 1 1 & $ & & = : = = = = = = : ",
"r % O . . % . . O 4 q 4 u 5 = & , a a f f a a a a a a m z S T ) _ W I J I f f a F b J m a a u , & % % , + O . o * : : = = & = 7 ",
"a a   ; u a a a a a a a a a 1 = 5 a a a a a a a a a j T b J S f Z a b j M k a a a a a a 1 , & & & o O a 9 a >   ; , 1 , # . : [ ",
"I a u a a a a a a a a a a a p , , a , 7 a a a a a a a l P j a a j a a a a a a a q = , 1 : & $ $ & #   4 a f a r = , , = o o 7 ( ",
"[ a a a j b a a a j f f m a a a q , = 7 a a a a a a f W F j f a a a a a a a j a 5 & & = , & $ & , : q a j b a f 1 : : o o = G ` ",
"| m a Z f j a f Z Z j a k a a a p 5 7 a a a a a a a a k k F Y j a a f j a a W f a 7 , : : & $ 1 O # r a a a u d u u = o % x Q ] ",
"| J f M a a j M f a a a a H a a a a a a a k a a a Z f k z a a b k a j z a a a a a a q a r 7 & , ; . O a p % % : 1 5 ; . # H ^ ` ",
"| ( z M a a a J f a a f a f a a a a a a Y Z a a m P R I j l P j f J a a a p 7 1 r a +   % % > ; :   % a O . . r f w % o r ) W Q ",
"} ` ..} a j a A a K a H a a a a a a a j F a a a k f M A k F E | f m a a u : $ $ & u a . . o o O = # 5 5 . # : = % # o i P k ( / ",
"} / ` ( l J a a j T j a , 7 a j j a a m f P f Z A j a a j b f m a , 1 r = & & : 1 a a q 4 a . O a p a 1 , 1 T 1 O # , a F b K | ",
"Q Q k z j k f A a b S r , 1 a j j a a b z I f j m f a a a a a a q & & = , 1 p a a z a a a u . O p a z > = u ( U O ; Z z W j f ( ",
"E f a a Z f k v f ] j u , : q p a M f Z E F m f a u q 1 , 5 , 5 a : = = , a a a a R f f S a u a a l f O = p Y Q + ; S f z a n j ",
"a 7 r 7 r j K z a a a a 5 & , 5 a k n J I Z M f a 1 & & & & & = , : & % r a k m b Q P J I k a a a b p % : ~ Q ( O : Z a a a k Q ",
"3 o : 5 r a a a a p > O ; = 5 a a a f a A / S a a : & ; & & = : & $ # o , , r p K K a f l M a a m m j q f _ J A s : a a a a l K ",
"> . % 1 ; 7 q a a q O o , : 5 q u Z H a l f a p , # O . & & : & & % > % .   : : g ( / a a a H a j m J f j M j a p 2 g a j M a a ",
">   . . . 5 , q a a O O , & 1 = : g a a b a a 5 #   O . & , 7 % o X > u 3 q 7 & r a j Z I Z f a a a f f f k a r , c f a a l F b ",
"j > - # O a a a a a q o 5 = O % = a a Z f u , = . O % . . & # .   + + j j a a q a a j J [ o.} K a a k l a a a a a A f a a a f P ",
"A f a 4 ; a a a a a 0 . + . 3 . ; 1 a j a ; . o . p .   # # . % % r j P P I E f a b f F [ T ..E f a j M a a a a a a a a a a f P ",
"K Y j 3 . p a a a k 4   O i a > , : p p p ; . q q a p % . # . % = 7 a a a M ( j a I ( l J P ( l f a Z j p 0 a u p 9 a a a a a j ",
"k E k p > p a a a M u O O e a 4 ; % : : , + q a a 0 1 % . , O .   . r a a k Q I T Q ) } ] | [ f a Q T a q O > > 3 + @ p u a k K ",
"Z ` K M 5 a a a a a a 5 a a f a q o % = = 1 r ; .   . % > a i + . . , a a a K ( F f P [ ` | T K / P _ J p + > a f p + 3 > a a z ",
"` | / W a a b k a k p q a a M j a 0 . & & $ & # . # O u a a m a 9 o = u a a a a f a a a k } ( K Z a P ( b a a f F m a a a a a Z ",
"K L Q T a a K f a Z f a a Z a a a q O % . . . . O a j a a a a a a + 7 a a a a a a a a a b Z T z a k T k S a a l b l a a j M a A ",
"I I [ Z W Z f a z M a a k m f m a a a 9 O > @ + 0 a M a a a a a z q . 7 a a a a a a a T T / W m P I m a f A I f a a z z a j a ( ",
"k F _ ( F a M k b j f m k f a m Z k a a p k T P K b f m a b a a M u   ; a k k b k a l I a u b ` ( k a a a g f a a a f j f a A W ",
"a W ) P P a a a a a a M a a a a k m a a b T | / a l j b a m j j n a e a a j j k ( I W Z 7 & q f I j a a a m k a a a a b l k } Q ",
"f P f A z a f a a a f I f a a J Z a a a M n o...K I M F f k k a a a a a a p p a Z k F f 1 & , a P Z a a a a a a a a P ` T F ] F ",
"a a T ` f j Z z k a j J P b K Q m k P j a I } W k a a a a a a a a a k f = . % 7 7 1 , = & $ , a b E m a a a a a k j ( _ P z E / ",
"a f W K v K f l m a m K j b P o.I M P P P m F k a j a a A a a a a a j g q . . & # $ & $ $ $ $ : a S ( a a Z f T W Z Q K W [ P ] ",
"K P / M z M a l E k I j a F ] | ( K I Z g F f a a Z j a j a a a l a a a a q ; % . . % . # o $ & a f / b a K f I m A W Z I T T ( ",
"W b A M M z u q p p : u a a K T A H j a u r a a p a a a a a a a F j a a a a a u q a a u % . = & 7 j T T z 7 , r , Z f Z I a M W ",
"m m T Q j u ; % % % # 1 m I K a a p p p : : 5 : 1 5 a a a a a a k j a p a a a a a a a O . ; & # . : q p . % , , 1 & u a K a j K ",
"/ _ Z f 7 - .     O % , M E J a q , q u = = = , 1 , p p r a a a a q : . O = a a a a a 3 . . . .   # . + , & = r F t f M Z T P f ",
"T F I Z r 7 7 , % % = r a J a q : q q , & & , q a 7 1 , q a a a a = = . . ; a a a a a a 9 ; ; 3 + 7 % ; 5 5 p m a g j b j T j H ",
"H a k F j 5 : , = : & 5 a a 5 , = 1 : = = p p a a a a a a a a p , & : ;   O a a a a Z a a a a Y k > = . , u a a f z j a m F P ] ",
"W F a a a 5 p r , p 7 1 5 1 = = , & & : 1 u a a a a a r 7 a a r = & & % . . a a a a j a a a f b 7 # = 5 a = r F S j j b j a f T ",
"T K a 1 = 1 a a 7 q 1 % % $ # # . % = q 7 1 1 a a p a r q a a = = = $ = % . , a a a a a a a I a r 1 u a p # 5 a a l I P Z k a P ",
"J j a r 7 a a a a 5 .     . . . # & & , 1 & , p u : q a a a a u : , & = 7 9 . O a a a a a a a f J M j E g # , = : : 5 f P M a K ",
"^ a a a a a l b a %   # , 1 r p . # $ # . 5 1 1 5 , p a a a 5 : 5 a = & : 7 & . ; a a a a a a a k j Z M p   % = = 5 : a f a a M ",
"I a a a a a P k a > . p a a a a ;   # . > a a a a a a a a r & 5 a a , : = = 5 % , j j a a A f M H F ) q # O o & u F u a a a a H ",
"Z m a a a a Z f a a p f k a F f u . . ; , a a a a a a a a a r a a a a , , r a . p k k a b b a j K S > . # & ; q a f a a a a M K ",
"a f a a a f a k m : = f l a f a 7 1 u a a a a a a a a a a a a f f a a a u & , = a j a a l M a f K k > # 7 5 7 5 a a a a a a k Y ",
"f Z a a k t = 9 . & , p a , q u 1 u r a a a a a a a a a a a j T n a a a r $ & , a K k F P H P / I f r , & = & : , , a a a a M Q ",
"j F a j a ; . # . # & & 5 o & & % = & q a a a a K ) k a a a a m a f k a 1 $ : u a F Z Q R f b f q : : & % # . O ; = p a a a Y E ",
"a j a Z k u 9 > . . . = = . . # . r : 7 k a a a b T E k j j a a f M j r . & q a a Z Q M r q a 5 = 7 r r % % 7 u ; , a j n j ) J ",
"b a a a j a a k a u a a r p a p u a 5 5 n f n k F ( K P T Z Z Z 5 = = & o q a k Z j A a r q a : 1 3 . o . 7 a + % 7 a m P j k T ",
"j a a j T j f I a b m a n j f k Z a r , a a j J K Z a k W k J k & $ % 1 a j f Q Q ( K f a a a u b F > - r a a a 1 5 a Z M a a Q ",
"a a a A M a a j a f j a f a M z a f g a a a a a f b Z T k a a 7       a T P j Z } ` M a a a a K { J Y l a l Z a a a j Q f a K X.",
"E Q k m T j Z k f q 1 l M Z f a a k k a f S a a a a F / ) T K b q 7 a F W ( ( P ( m a a a a a J M f f n a a a a j f L H a T ` F ",
"f T T w p k P z c k a u e j a a a a q , 5 u a a a a a a k b Z I l j m T T | d M / P I a a a a a K I a a a a a a z k m f a F / K ",
"/ I F 7 t M k 5 , b a + . , p a a p = : , , p r = & q a a a a T ^ m b / I < & = t M W W b a f a I k a a a a f l a a a K > 0 ( E ",
"_ W E t , < y : 7 f a 3   $ = , p a r = : : q & : : & a a a a E / j } } M = & % . r q f T T M a a a a a a f E M A a l T I b E ) ",
"t l J 1 = : = = 7 M b m q . . $ : 5 1 = $ = 5 , = & 1 a a a a f f K I ( 7 = % , q u : = p b f a a a a a a a b f j p a f u z - < ",
": T F 1 w G 7 : = r a W j p ; = & & & & $ = = # O 5 a a a a a M ] ` I M , # - : a a u : q P K a a A j a a a a a a + + > O 6 o : ",
"= k M W ` E u = : u a m Q j a , o ; . - - . # O a g F a f a a a a T r . % . O @ u k j a a M a a a a a a a a a p 9 O a O O O . < ",
"= 7 M ^ z k 5 , a a j M p a 7 o # a a P 7 O X 3 K M P K m a a a j Z u 5 ; # 7 a : f j a a Z f a a f j a a a a q O O O z u > # & ",
"= 2 a a f R = t I f q , # % % % p a a I m V u j S a a a , 5 a a j j a a r a a a a a a a a a a a a Z S f p , a a k ; > f a O o & ",
"= % ; 2 < = = 1 > : # # .   a f m M Y n M P F k a 7 1 > > , a a Z j a a a a a a a a a a a j m a 7 1 a a a r r r , a a k a O . = ",
"= o . o % o = = = ; s u z V I ( S / ) l J T a j 8 o # . a f a k f a f l a a a a a a f a a f j u . ; a 5 , q 7 , q a a M a ; # = ",
"= o - 6 % * c t 1 , d W _ ` / Z f R j k T J f R >   . - P Q _ L s d n 2 1 a k z a f Z a a a a 4   - : , 1 , & : u a a a a ; o = ",
"7 O S ` Z s j P F c 2 L T ( W r r a a Z J a A K 7 o % p k I d = & , = , a a f j a a a a a a a a   . . o % # , = , a a a a + o $ ",
", q 4 @ O e K Q P ( b a A p , = 5 f Y F m k k M a u f / ( K y # # % 1 a a a a a a a a a a a a a q % > u 4 . 1 1 , 7 a e O . . $ ",
", ; o # % O . + S H u q , & & , f H S b j a a j A a ` | ..o.h # - . . O a a a a a a a a a a a a a a a p O . . # & = , 9 ; # & & ",
"r & $ $ $ $ $ # & & $ & = 1 s P K R E Q Q Z Z F E ` ` [ X.o.X.E 2 ; O - a a a a a a a a a a a a a r 1 = $ # # $ . = & & : & & = "
};
